<?xml version="1.0" encoding="utf-8"?>
<!-- Generator: Adobe Illustrator 24.3.0, SVG Export Plug-In . SVG Version: 6.00 Build 0)  -->
<svg version="1.1" id="Layer_1" xmlns="http://www.w3.org/2000/svg" xmlns:xlink="http://www.w3.org/1999/xlink" x="0px" y="0px"
	 viewBox="0 0 250 89" style="enable-background:new 0 0 250 89;" xml:space="preserve">
<style type="text/css">
	.st0{fill:#FFFFFF;}
</style>
<g>
	<g>
		<rect x="143.57" y="16.92" class="st0" width="13.94" height="13.82"/>
		<path class="st0" d="M143.57,53.35L143.57,53.35c0.14,8.69,5.98,16.03,13.92,18.43V33.98h-13.92V53.35z"/>
		<path class="st0" d="M70.04,59.24c-4.87,0-9.16-2.48-11.7-6.24c-1.27,4.92-3.71,9.35-6.99,13.01c4.96,4.45,11.52,7.17,18.69,7.17
			c7.26,0,13.89-2.78,18.88-7.32c-3.3-3.73-5.72-8.24-6.95-13.21C79.46,56.6,75.05,59.24,70.04,59.24z"/>
		<path class="st0" d="M126.45,20.9c-4.14-2.42-8.96-3.82-14.11-3.82c-7.22,0-13.81,2.75-18.78,7.24c3.29,3.69,5.72,8.16,6.97,13.1
			c2.52-3.86,6.87-6.41,11.81-6.41c7.77,0,14.1,6.33,14.11,14.1v0.01c0,7.77-6.33,14.11-14.1,14.11c-7.78,0-14.1-6.33-14.1-14.11
			c0-7.08-2.64-13.55-6.97-18.49c-5.14-5.86-12.69-9.56-21.08-9.56c-15.47,0-28.04,12.58-28.04,28.05c0,0.57-0.04,1.14-0.11,1.69
			c-0.85,6.97-6.8,12.41-14,12.41c-7.78,0-14.11-6.33-14.11-14.11v-3.25V17.47H0v24.41v3.45h0c0.09,12.92,8.97,23.8,20.95,26.94
			v3.35V89h13.94V75.66v-3.34c5.56-1.41,10.46-4.46,14.15-8.63c4.03-4.56,6.62-10.42,7-16.87c0.04-0.56,0.06-1.13,0.06-1.69
			c0-7.79,6.33-14.11,14.1-14.11c7.77,0,14.11,6.33,14.11,14.11c0,7.02,2.59,13.46,6.88,18.39c5.15,5.91,12.72,9.65,21.16,9.65
			c15.47,0,28.05-12.58,28.05-28.04V0h-13.94V20.9z"/>
	</g>
	<path class="st0" d="M221.95,17.26c-5.05,0-9.79,1.34-13.89,3.69c-7.5,4.29-12.83,11.94-13.94,20.89v6.93v4.28
		c0,3.11-2.54,5.64-5.65,5.64c-3.11,0-5.65-2.53-5.65-5.64h-0.04V33.96h-13.94v19.09h-0.06c0,3.11-2.53,5.64-5.64,5.64
		c-0.86,0-1.69-0.2-2.42-0.55v14.34c0.79,0.1,1.61,0.15,2.42,0.15c4.83,0,9.25-1.75,12.66-4.65c3.42,2.9,7.84,4.65,12.66,4.65
		c5.77,0,10.97-2.51,14.56-6.5c1.3-1.7,2.41-3.57,3.3-5.58c1.85-4.23,1.59-11.32,1.51-13.65v-0.01c-0.06-0.51-0.09-1.02-0.09-1.55
		c0-7.85,6.37-14.22,14.21-14.22c7.85,0,14.22,6.37,14.22,14.22c0,7.85-6.37,14.21-14.22,14.21c-4.39,0-8.3-1.99-10.91-5.12
		c-0.23,2.64-0.72,5.27-1.67,7.45c-0.99,2.25-2.24,4.35-3.7,6.26c4.6,3.28,10.21,5.21,16.27,5.21c15.47,0,28.05-12.59,28.05-28.05
		C250,29.83,237.42,17.26,221.95,17.26z"/>
</g>
</svg>
