<svg width="291" height="33" viewBox="0 0 291 33" fill="none" xmlns="http://www.w3.org/2000/svg">
<mask id="path-1-outside-1_211_5" maskUnits="userSpaceOnUse" x="0.522705" y="0.511364" width="290" height="32" fill="black">
<rect fill="white" x="0.522705" y="0.511364" width="290" height="32"/>
<path d="M10.5 31H1.52271V1.90909H10.8977C13.7197 1.90909 16.1344 2.49148 18.142 3.65625C20.1496 4.81155 21.6884 6.47348 22.7585 8.64205C23.8286 10.8011 24.3636 13.3864 24.3636 16.3977C24.3636 19.428 23.8238 22.0369 22.7443 24.2244C21.6648 26.4025 20.0928 28.0786 18.0284 29.2528C15.964 30.4176 13.4545 31 10.5 31ZM5.04543 27.875H10.2727C12.678 27.875 14.6714 27.411 16.2528 26.483C17.8343 25.5549 19.0132 24.2339 19.7897 22.5199C20.5663 20.8059 20.9545 18.7652 20.9545 16.3977C20.9545 14.0492 20.571 12.0275 19.804 10.3324C19.0369 8.62784 17.8911 7.32102 16.3665 6.41193C14.8418 5.49337 12.9432 5.03409 10.6704 5.03409H5.04543V27.875Z"/>
<path d="M30.2727 31V1.90909H47.8295V5.03409H33.7954V14.8636H46.9204V17.9886H33.7954V27.875H48.0568V31H30.2727Z"/>
<path d="M70.088 9.18182C69.9176 7.74243 69.2263 6.625 68.0142 5.82955C66.8021 5.03409 65.3153 4.63636 63.554 4.63636C62.2661 4.63636 61.1392 4.8447 60.1733 5.26136C59.2168 5.67803 58.4687 6.25095 57.929 6.98011C57.3987 7.70928 57.1335 8.53788 57.1335 9.46591C57.1335 10.2424 57.3182 10.91 57.6875 11.4688C58.0663 12.018 58.5492 12.4773 59.1363 12.8466C59.7235 13.2064 60.339 13.5047 60.9829 13.7415C61.6269 13.9688 62.2187 14.1534 62.7585 14.2955L65.713 15.0909C66.4706 15.2898 67.3134 15.5644 68.2415 15.9148C69.179 16.2652 70.0738 16.7434 70.9261 17.3494C71.7879 17.946 72.4981 18.7131 73.0568 19.6506C73.6155 20.5881 73.8949 21.7386 73.8949 23.1023C73.8949 24.6742 73.4829 26.0947 72.6591 27.3636C71.8447 28.6326 70.6515 29.6411 69.0795 30.3892C67.517 31.1373 65.6183 31.5114 63.3835 31.5114C61.3002 31.5114 59.4962 31.1752 57.9716 30.5028C56.4564 29.8305 55.2632 28.893 54.392 27.6903C53.5303 26.4877 53.0426 25.0909 52.929 23.5H56.5653C56.66 24.5985 57.0293 25.5076 57.6733 26.2273C58.3267 26.9375 59.1505 27.4678 60.1449 27.8182C61.1487 28.1591 62.2282 28.3295 63.3835 28.3295C64.7282 28.3295 65.9356 28.1117 67.0057 27.6761C68.0757 27.2311 68.9233 26.6155 69.5483 25.8295C70.1733 25.0341 70.4858 24.1061 70.4858 23.0455C70.4858 22.0795 70.2159 21.2936 69.6761 20.6875C69.1363 20.0814 68.4261 19.589 67.5454 19.2102C66.6648 18.8314 65.713 18.5 64.6903 18.2159L61.1108 17.1932C58.838 16.5398 57.0388 15.607 55.713 14.3949C54.3873 13.1828 53.7244 11.5966 53.7244 9.63636C53.7244 8.00758 54.1648 6.58712 55.0454 5.375C55.9356 4.15341 57.1288 3.20644 58.625 2.53409C60.1307 1.85227 61.8115 1.51136 63.6676 1.51136C65.5426 1.51136 67.2093 1.84754 68.6676 2.51989C70.1259 3.18276 71.2812 4.09186 72.1335 5.24716C72.9952 6.40246 73.4498 7.71402 73.4971 9.18182H70.088Z"/>
<path d="M79.6868 31V1.90909H83.2095V16.3409H83.5504L96.6186 1.90909H101.221L89.005 15.0341L101.221 31H96.9595L86.8459 17.4773L83.2095 21.5682V31H79.6868Z"/>
<path d="M110.196 31V1.90909H120.849C122.914 1.90909 124.623 2.25 125.977 2.93182C127.331 3.60417 128.345 4.51799 129.017 5.6733C129.689 6.81913 130.026 8.11174 130.026 9.55114C130.026 10.7633 129.803 11.786 129.358 12.6193C128.913 13.4432 128.316 14.1061 127.568 14.608C126.83 15.1004 126.015 15.4602 125.125 15.6875V15.9716C126.091 16.0189 127.033 16.3314 127.952 16.9091C128.88 17.4773 129.647 18.2869 130.253 19.3381C130.859 20.3892 131.162 21.6676 131.162 23.1733C131.162 24.66 130.812 25.9953 130.111 27.179C129.419 28.3532 128.349 29.286 126.901 29.9773C125.452 30.6591 123.6 31 121.347 31H110.196ZM114.585 27.2358H120.92C123.023 27.2358 124.528 26.8286 125.437 26.0142C126.347 25.1998 126.801 24.1818 126.801 22.9602C126.801 22.0417 126.569 21.1989 126.105 20.4318C125.641 19.6648 124.978 19.054 124.116 18.5994C123.264 18.1449 122.251 17.9176 121.077 17.9176H114.585V27.2358ZM114.585 14.4943H120.466C121.451 14.4943 122.336 14.3049 123.122 13.9261C123.918 13.5473 124.547 13.017 125.011 12.3352C125.485 11.6439 125.722 10.8295 125.722 9.89205C125.722 8.68939 125.3 7.68087 124.457 6.86648C123.615 6.05208 122.322 5.64489 120.58 5.64489H114.585V14.4943ZM161.638 16.4545C161.638 19.5606 161.07 22.2311 159.933 24.4659C158.797 26.6913 157.239 28.4053 155.26 29.608C153.29 30.8011 151.051 31.3977 148.541 31.3977C146.022 31.3977 143.773 30.8011 141.794 29.608C139.824 28.4053 138.271 26.6866 137.135 24.4517C135.999 22.2169 135.43 19.5511 135.43 16.4545C135.43 13.3485 135.999 10.6828 137.135 8.45739C138.271 6.22254 139.824 4.50852 141.794 3.31534C143.773 2.11269 146.022 1.51136 148.541 1.51136C151.051 1.51136 153.29 2.11269 155.26 3.31534C157.239 4.50852 158.797 6.22254 159.933 8.45739C161.07 10.6828 161.638 13.3485 161.638 16.4545ZM157.291 16.4545C157.291 14.0871 156.908 12.0938 156.141 10.4744C155.383 8.84565 154.341 7.61458 153.016 6.78125C151.699 5.93845 150.208 5.51705 148.541 5.51705C146.865 5.51705 145.369 5.93845 144.053 6.78125C142.736 7.61458 141.695 8.84565 140.928 10.4744C140.17 12.0938 139.791 14.0871 139.791 16.4545C139.791 18.822 140.17 20.8201 140.928 22.4489C141.695 24.0682 142.736 25.2992 144.053 26.142C145.369 26.9754 146.865 27.392 148.541 27.392C150.208 27.392 151.699 26.9754 153.016 26.142C154.341 25.2992 155.383 24.0682 156.141 22.4489C156.908 20.8201 157.291 18.822 157.291 16.4545ZM192.38 16.4545C192.38 19.5606 191.812 22.2311 190.675 24.4659C189.539 26.6913 187.981 28.4053 186.002 29.608C184.032 30.8011 181.793 31.3977 179.283 31.3977C176.764 31.3977 174.515 30.8011 172.536 29.608C170.566 28.4053 169.013 26.6866 167.877 24.4517C166.741 22.2169 166.173 19.5511 166.173 16.4545C166.173 13.3485 166.741 10.6828 167.877 8.45739C169.013 6.22254 170.566 4.50852 172.536 3.31534C174.515 2.11269 176.764 1.51136 179.283 1.51136C181.793 1.51136 184.032 2.11269 186.002 3.31534C187.981 4.50852 189.539 6.22254 190.675 8.45739C191.812 10.6828 192.38 13.3485 192.38 16.4545ZM188.033 16.4545C188.033 14.0871 187.65 12.0938 186.883 10.4744C186.125 8.84565 185.084 7.61458 183.758 6.78125C182.442 5.93845 180.95 5.51705 179.283 5.51705C177.607 5.51705 176.111 5.93845 174.795 6.78125C173.478 7.61458 172.437 8.84565 171.67 10.4744C170.912 12.0938 170.533 14.0871 170.533 16.4545C170.533 18.822 170.912 20.8201 171.67 22.4489C172.437 24.0682 173.478 25.2992 174.795 26.142C176.111 26.9754 177.607 27.392 179.283 27.392C180.95 27.392 182.442 26.9754 183.758 26.142C185.084 25.2992 186.125 24.0682 186.883 22.4489C187.65 20.8201 188.033 18.822 188.033 16.4545ZM197.852 31V1.90909H202.241V15.8011H202.597L214.798 1.90909H220.324L208.591 15.0057L220.366 31H215.082L205.679 18.0028L202.241 21.9517V31H197.852ZM228.804 1.90909V31H224.415V1.90909H228.804ZM258.676 1.90909V31H254.642L239.855 9.66477H239.585V31H235.196V1.90909H239.258L254.06 23.2727H254.33V1.90909H258.676ZM284.766 11.0994C284.492 10.2377 284.122 9.46591 283.658 8.78409C283.204 8.0928 282.659 7.50568 282.025 7.02273C281.39 6.5303 280.666 6.15625 279.852 5.90057C279.047 5.64489 278.161 5.51705 277.195 5.51705C275.557 5.51705 274.08 5.93845 272.763 6.78125C271.447 7.62405 270.406 8.85985 269.638 10.4886C268.881 12.108 268.502 14.0919 268.502 16.4403C268.502 18.7983 268.886 20.7917 269.653 22.4205C270.42 24.0492 271.471 25.285 272.806 26.1278C274.141 26.9706 275.661 27.392 277.366 27.392C278.947 27.392 280.325 27.0701 281.499 26.4261C282.683 25.7822 283.597 24.8731 284.241 23.6989C284.894 22.5152 285.221 21.1231 285.221 19.5227L286.357 19.7358H278.033V16.1136H289.468V19.4233C289.468 21.8665 288.947 23.9877 287.906 25.7869C286.873 27.5767 285.443 28.9593 283.616 29.9347C281.798 30.91 279.714 31.3977 277.366 31.3977C274.733 31.3977 272.423 30.7917 270.434 29.5795C268.455 28.3674 266.911 26.6487 265.803 24.4233C264.695 22.1884 264.141 19.5369 264.141 16.4688C264.141 14.1487 264.463 12.0653 265.107 10.2188C265.751 8.37216 266.656 6.80492 267.82 5.51705C268.995 4.2197 270.372 3.23011 271.954 2.5483C273.545 1.85701 275.282 1.51136 277.167 1.51136C278.739 1.51136 280.202 1.74337 281.556 2.20739C282.92 2.6714 284.132 3.32955 285.192 4.18182C286.263 5.03409 287.148 6.04735 287.849 7.22159C288.549 8.38636 289.023 9.67898 289.269 11.0994H284.766Z"/>
</mask>
<path d="M10.5 31H1.52271V1.90909H10.8977C13.7197 1.90909 16.1344 2.49148 18.142 3.65625C20.1496 4.81155 21.6884 6.47348 22.7585 8.64205C23.8286 10.8011 24.3636 13.3864 24.3636 16.3977C24.3636 19.428 23.8238 22.0369 22.7443 24.2244C21.6648 26.4025 20.0928 28.0786 18.0284 29.2528C15.964 30.4176 13.4545 31 10.5 31ZM5.04543 27.875H10.2727C12.678 27.875 14.6714 27.411 16.2528 26.483C17.8343 25.5549 19.0132 24.2339 19.7897 22.5199C20.5663 20.8059 20.9545 18.7652 20.9545 16.3977C20.9545 14.0492 20.571 12.0275 19.804 10.3324C19.0369 8.62784 17.8911 7.32102 16.3665 6.41193C14.8418 5.49337 12.9432 5.03409 10.6704 5.03409H5.04543V27.875Z" fill="black"/>
<path d="M30.2727 31V1.90909H47.8295V5.03409H33.7954V14.8636H46.9204V17.9886H33.7954V27.875H48.0568V31H30.2727Z" fill="black"/>
<path d="M70.088 9.18182C69.9176 7.74243 69.2263 6.625 68.0142 5.82955C66.8021 5.03409 65.3153 4.63636 63.554 4.63636C62.2661 4.63636 61.1392 4.8447 60.1733 5.26136C59.2168 5.67803 58.4687 6.25095 57.929 6.98011C57.3987 7.70928 57.1335 8.53788 57.1335 9.46591C57.1335 10.2424 57.3182 10.91 57.6875 11.4688C58.0663 12.018 58.5492 12.4773 59.1363 12.8466C59.7235 13.2064 60.339 13.5047 60.9829 13.7415C61.6269 13.9688 62.2187 14.1534 62.7585 14.2955L65.713 15.0909C66.4706 15.2898 67.3134 15.5644 68.2415 15.9148C69.179 16.2652 70.0738 16.7434 70.9261 17.3494C71.7879 17.946 72.4981 18.7131 73.0568 19.6506C73.6155 20.5881 73.8949 21.7386 73.8949 23.1023C73.8949 24.6742 73.4829 26.0947 72.6591 27.3636C71.8447 28.6326 70.6515 29.6411 69.0795 30.3892C67.517 31.1373 65.6183 31.5114 63.3835 31.5114C61.3002 31.5114 59.4962 31.1752 57.9716 30.5028C56.4564 29.8305 55.2632 28.893 54.392 27.6903C53.5303 26.4877 53.0426 25.0909 52.929 23.5H56.5653C56.66 24.5985 57.0293 25.5076 57.6733 26.2273C58.3267 26.9375 59.1505 27.4678 60.1449 27.8182C61.1487 28.1591 62.2282 28.3295 63.3835 28.3295C64.7282 28.3295 65.9356 28.1117 67.0057 27.6761C68.0757 27.2311 68.9233 26.6155 69.5483 25.8295C70.1733 25.0341 70.4858 24.1061 70.4858 23.0455C70.4858 22.0795 70.2159 21.2936 69.6761 20.6875C69.1363 20.0814 68.4261 19.589 67.5454 19.2102C66.6648 18.8314 65.713 18.5 64.6903 18.2159L61.1108 17.1932C58.838 16.5398 57.0388 15.607 55.713 14.3949C54.3873 13.1828 53.7244 11.5966 53.7244 9.63636C53.7244 8.00758 54.1648 6.58712 55.0454 5.375C55.9356 4.15341 57.1288 3.20644 58.625 2.53409C60.1307 1.85227 61.8115 1.51136 63.6676 1.51136C65.5426 1.51136 67.2093 1.84754 68.6676 2.51989C70.1259 3.18276 71.2812 4.09186 72.1335 5.24716C72.9952 6.40246 73.4498 7.71402 73.4971 9.18182H70.088Z" fill="black"/>
<path d="M79.6868 31V1.90909H83.2095V16.3409H83.5504L96.6186 1.90909H101.221L89.005 15.0341L101.221 31H96.9595L86.8459 17.4773L83.2095 21.5682V31H79.6868Z" fill="black"/>
<path d="M10.5 31H1.52271V1.90909H10.8977C13.7197 1.90909 16.1344 2.49148 18.142 3.65625C20.1496 4.81155 21.6884 6.47348 22.7585 8.64205C23.8286 10.8011 24.3636 13.3864 24.3636 16.3977C24.3636 19.428 23.8238 22.0369 22.7443 24.2244C21.6648 26.4025 20.0928 28.0786 18.0284 29.2528C15.964 30.4176 13.4545 31 10.5 31ZM5.04543 27.875H10.2727C12.678 27.875 14.6714 27.411 16.2528 26.483C17.8343 25.5549 19.0132 24.2339 19.7897 22.5199C20.5663 20.8059 20.9545 18.7652 20.9545 16.3977C20.9545 14.0492 20.571 12.0275 19.804 10.3324C19.0369 8.62784 17.8911 7.32102 16.3665 6.41193C14.8418 5.49337 12.9432 5.03409 10.6704 5.03409H5.04543V27.875Z" stroke="black" stroke-width="2" mask="url(#path-1-outside-1_211_5)"/>
<path d="M30.2727 31V1.90909H47.8295V5.03409H33.7954V14.8636H46.9204V17.9886H33.7954V27.875H48.0568V31H30.2727Z" stroke="black" stroke-width="2" mask="url(#path-1-outside-1_211_5)"/>
<path d="M70.088 9.18182C69.9176 7.74243 69.2263 6.625 68.0142 5.82955C66.8021 5.03409 65.3153 4.63636 63.554 4.63636C62.2661 4.63636 61.1392 4.8447 60.1733 5.26136C59.2168 5.67803 58.4687 6.25095 57.929 6.98011C57.3987 7.70928 57.1335 8.53788 57.1335 9.46591C57.1335 10.2424 57.3182 10.91 57.6875 11.4688C58.0663 12.018 58.5492 12.4773 59.1363 12.8466C59.7235 13.2064 60.339 13.5047 60.9829 13.7415C61.6269 13.9688 62.2187 14.1534 62.7585 14.2955L65.713 15.0909C66.4706 15.2898 67.3134 15.5644 68.2415 15.9148C69.179 16.2652 70.0738 16.7434 70.9261 17.3494C71.7879 17.946 72.4981 18.7131 73.0568 19.6506C73.6155 20.5881 73.8949 21.7386 73.8949 23.1023C73.8949 24.6742 73.4829 26.0947 72.6591 27.3636C71.8447 28.6326 70.6515 29.6411 69.0795 30.3892C67.517 31.1373 65.6183 31.5114 63.3835 31.5114C61.3002 31.5114 59.4962 31.1752 57.9716 30.5028C56.4564 29.8305 55.2632 28.893 54.392 27.6903C53.5303 26.4877 53.0426 25.0909 52.929 23.5H56.5653C56.66 24.5985 57.0293 25.5076 57.6733 26.2273C58.3267 26.9375 59.1505 27.4678 60.1449 27.8182C61.1487 28.1591 62.2282 28.3295 63.3835 28.3295C64.7282 28.3295 65.9356 28.1117 67.0057 27.6761C68.0757 27.2311 68.9233 26.6155 69.5483 25.8295C70.1733 25.0341 70.4858 24.1061 70.4858 23.0455C70.4858 22.0795 70.2159 21.2936 69.6761 20.6875C69.1363 20.0814 68.4261 19.589 67.5454 19.2102C66.6648 18.8314 65.713 18.5 64.6903 18.2159L61.1108 17.1932C58.838 16.5398 57.0388 15.607 55.713 14.3949C54.3873 13.1828 53.7244 11.5966 53.7244 9.63636C53.7244 8.00758 54.1648 6.58712 55.0454 5.375C55.9356 4.15341 57.1288 3.20644 58.625 2.53409C60.1307 1.85227 61.8115 1.51136 63.6676 1.51136C65.5426 1.51136 67.2093 1.84754 68.6676 2.51989C70.1259 3.18276 71.2812 4.09186 72.1335 5.24716C72.9952 6.40246 73.4498 7.71402 73.4971 9.18182H70.088Z" stroke="black" stroke-width="2" mask="url(#path-1-outside-1_211_5)"/>
<path d="M79.6868 31V1.90909H83.2095V16.3409H83.5504L96.6186 1.90909H101.221L89.005 15.0341L101.221 31H96.9595L86.8459 17.4773L83.2095 21.5682V31H79.6868Z" stroke="black" stroke-width="2" mask="url(#path-1-outside-1_211_5)"/>
<path d="M110.196 31V1.90909H120.849C122.914 1.90909 124.623 2.25 125.977 2.93182C127.331 3.60417 128.345 4.51799 129.017 5.6733C129.689 6.81913 130.026 8.11174 130.026 9.55114C130.026 10.7633 129.803 11.786 129.358 12.6193C128.913 13.4432 128.316 14.1061 127.568 14.608C126.83 15.1004 126.015 15.4602 125.125 15.6875V15.9716C126.091 16.0189 127.033 16.3314 127.952 16.9091C128.88 17.4773 129.647 18.2869 130.253 19.3381C130.859 20.3892 131.162 21.6676 131.162 23.1733C131.162 24.66 130.812 25.9953 130.111 27.179C129.419 28.3532 128.349 29.286 126.901 29.9773C125.452 30.6591 123.6 31 121.347 31H110.196ZM114.585 27.2358H120.92C123.023 27.2358 124.528 26.8286 125.437 26.0142C126.347 25.1998 126.801 24.1818 126.801 22.9602C126.801 22.0417 126.569 21.1989 126.105 20.4318C125.641 19.6648 124.978 19.054 124.116 18.5994C123.264 18.1449 122.251 17.9176 121.077 17.9176H114.585V27.2358ZM114.585 14.4943H120.466C121.451 14.4943 122.336 14.3049 123.122 13.9261C123.918 13.5473 124.547 13.017 125.011 12.3352C125.485 11.6439 125.722 10.8295 125.722 9.89205C125.722 8.68939 125.3 7.68087 124.457 6.86648C123.615 6.05208 122.322 5.64489 120.58 5.64489H114.585V14.4943ZM161.638 16.4545C161.638 19.5606 161.07 22.2311 159.933 24.4659C158.797 26.6913 157.239 28.4053 155.26 29.608C153.29 30.8011 151.051 31.3977 148.541 31.3977C146.022 31.3977 143.773 30.8011 141.794 29.608C139.824 28.4053 138.271 26.6866 137.135 24.4517C135.999 22.2169 135.43 19.5511 135.43 16.4545C135.43 13.3485 135.999 10.6828 137.135 8.45739C138.271 6.22254 139.824 4.50852 141.794 3.31534C143.773 2.11269 146.022 1.51136 148.541 1.51136C151.051 1.51136 153.29 2.11269 155.26 3.31534C157.239 4.50852 158.797 6.22254 159.933 8.45739C161.07 10.6828 161.638 13.3485 161.638 16.4545ZM157.291 16.4545C157.291 14.0871 156.908 12.0938 156.141 10.4744C155.383 8.84565 154.341 7.61458 153.016 6.78125C151.699 5.93845 150.208 5.51705 148.541 5.51705C146.865 5.51705 145.369 5.93845 144.053 6.78125C142.736 7.61458 141.695 8.84565 140.928 10.4744C140.17 12.0938 139.791 14.0871 139.791 16.4545C139.791 18.822 140.17 20.8201 140.928 22.4489C141.695 24.0682 142.736 25.2992 144.053 26.142C145.369 26.9754 146.865 27.392 148.541 27.392C150.208 27.392 151.699 26.9754 153.016 26.142C154.341 25.2992 155.383 24.0682 156.141 22.4489C156.908 20.8201 157.291 18.822 157.291 16.4545ZM192.38 16.4545C192.38 19.5606 191.812 22.2311 190.675 24.4659C189.539 26.6913 187.981 28.4053 186.002 29.608C184.032 30.8011 181.793 31.3977 179.283 31.3977C176.764 31.3977 174.515 30.8011 172.536 29.608C170.566 28.4053 169.013 26.6866 167.877 24.4517C166.741 22.2169 166.173 19.5511 166.173 16.4545C166.173 13.3485 166.741 10.6828 167.877 8.45739C169.013 6.22254 170.566 4.50852 172.536 3.31534C174.515 2.11269 176.764 1.51136 179.283 1.51136C181.793 1.51136 184.032 2.11269 186.002 3.31534C187.981 4.50852 189.539 6.22254 190.675 8.45739C191.812 10.6828 192.38 13.3485 192.38 16.4545ZM188.033 16.4545C188.033 14.0871 187.65 12.0938 186.883 10.4744C186.125 8.84565 185.084 7.61458 183.758 6.78125C182.442 5.93845 180.95 5.51705 179.283 5.51705C177.607 5.51705 176.111 5.93845 174.795 6.78125C173.478 7.61458 172.437 8.84565 171.67 10.4744C170.912 12.0938 170.533 14.0871 170.533 16.4545C170.533 18.822 170.912 20.8201 171.67 22.4489C172.437 24.0682 173.478 25.2992 174.795 26.142C176.111 26.9754 177.607 27.392 179.283 27.392C180.95 27.392 182.442 26.9754 183.758 26.142C185.084 25.2992 186.125 24.0682 186.883 22.4489C187.65 20.8201 188.033 18.822 188.033 16.4545ZM197.852 31V1.90909H202.241V15.8011H202.597L214.798 1.90909H220.324L208.591 15.0057L220.366 31H215.082L205.679 18.0028L202.241 21.9517V31H197.852ZM228.804 1.90909V31H224.415V1.90909H228.804ZM258.676 1.90909V31H254.642L239.855 9.66477H239.585V31H235.196V1.90909H239.258L254.06 23.2727H254.33V1.90909H258.676ZM284.766 11.0994C284.492 10.2377 284.122 9.46591 283.658 8.78409C283.204 8.0928 282.659 7.50568 282.025 7.02273C281.39 6.5303 280.666 6.15625 279.852 5.90057C279.047 5.64489 278.161 5.51705 277.195 5.51705C275.557 5.51705 274.08 5.93845 272.763 6.78125C271.447 7.62405 270.406 8.85985 269.638 10.4886C268.881 12.108 268.502 14.0919 268.502 16.4403C268.502 18.7983 268.886 20.7917 269.653 22.4205C270.42 24.0492 271.471 25.285 272.806 26.1278C274.141 26.9706 275.661 27.392 277.366 27.392C278.947 27.392 280.325 27.0701 281.499 26.4261C282.683 25.7822 283.597 24.8731 284.241 23.6989C284.894 22.5152 285.221 21.1231 285.221 19.5227L286.357 19.7358H278.033V16.1136H289.468V19.4233C289.468 21.8665 288.947 23.9877 287.906 25.7869C286.873 27.5767 285.443 28.9593 283.616 29.9347C281.798 30.91 279.714 31.3977 277.366 31.3977C274.733 31.3977 272.423 30.7917 270.434 29.5795C268.455 28.3674 266.911 26.6487 265.803 24.4233C264.695 22.1884 264.141 19.5369 264.141 16.4688C264.141 14.1487 264.463 12.0653 265.107 10.2188C265.751 8.37216 266.656 6.80492 267.82 5.51705C268.995 4.2197 270.372 3.23011 271.954 2.5483C273.545 1.85701 275.282 1.51136 277.167 1.51136C278.739 1.51136 280.202 1.74337 281.556 2.20739C282.92 2.6714 284.132 3.32955 285.192 4.18182C286.263 5.03409 287.148 6.04735 287.849 7.22159C288.549 8.38636 289.023 9.67898 289.269 11.0994H284.766Z" stroke="black" stroke-width="2" mask="url(#path-1-outside-1_211_5)"/>
</svg>
