<svg width="24" height="24" viewBox="0 0 24 24" fill="none" xmlns="http://www.w3.org/2000/svg">
<path fill-rule="evenodd" clip-rule="evenodd" d="M12 22C6.48584 22 2 17.5137 2 12C2 6.48584 6.48584 2 12 2C17.5137 2 22 6.48584 22 12C22 17.5137 17.5137 22 12 22ZM12 3C7.0376 3 3 7.0376 3 12C3 16.9629 7.0376 21 12 21C16.9629 21 21 16.9629 21 12C21 7.0376 16.9629 3 12 3ZM12 16.0416C12.5514 16.0416 13 16.4902 13 17.0416C13 17.593 12.5514 18.0416 12 18.0416C11.4486 18.0416 11 17.593 11 17.0416C11 16.4902 11.4486 16.0416 12 16.0416ZM12 15.0416C10.8954 15.0416 10 15.937 10 17.0416C10 18.1461 10.8954 19.0416 12 19.0416C13.1046 19.0416 14 18.1461 14 17.0416C14 15.937 13.1046 15.0416 12 15.0416ZM13 7C13 6.4486 12.5514 6 12 6C11.4486 6 11 6.4486 11 7V12C11 12.5514 11.4486 13 12 13C12.5514 13 13 12.5514 13 12V7ZM10 7C10 5.9 10.9 5 12 5C13.1 5 14 5.9 14 7V12C14 13.1 13.1 14 12 14C10.9 14 10 13.1 10 12V7Z" fill="#555555"/>
</svg>
