<svg width="24" height="24" viewBox="0 0 24 24" fill="none" xmlns="http://www.w3.org/2000/svg">
<path fill-rule="evenodd" clip-rule="evenodd" d="M2 12C2 6.48633 6.48584 2 12 2C17.5137 2 22 6.48633 22 12C22 17.5137 17.5137 22 12 22C6.48584 22 2 17.5137 2 12ZM3 12C3 16.9629 7.0376 21 12 21C16.9629 21 21 16.9629 21 12C21 7.03711 16.9629 3 12 3C7.0376 3 3 7.03711 3 12ZM12 9C13.1025 9 14 8.10254 14 7C14 5.89746 13.1025 5 12 5C10.897 5 10 5.89746 10 7C10 8.10254 10.897 9 12 9ZM12 6C12.5513 6 13 6.44824 13 7C13 7.55176 12.5513 8 12 8C11.4487 8 11 7.55176 11 7C11 6.44824 11.4487 6 12 6ZM14.5 17H14V11.5C14 11.2236 13.7764 11 13.5 11H9.5C9.22363 11 9 11.2236 9 11.5C9 11.7764 9.22363 12 9.5 12H10V17H9.5C9.22363 17 9 17.2236 9 17.5C9 17.7764 9.22363 18 9.5 18H14.5C14.7764 18 15 17.7764 15 17.5C15 17.2236 14.7764 17 14.5 17ZM13 12V17H11V12H13Z" fill="#555555"/>
</svg>
