<svg width="140" height="140" viewBox="0 0 140 140" fill="none" xmlns="http://www.w3.org/2000/svg">
<path fill-rule="evenodd" clip-rule="evenodd" d="M132.4 139H139.5C139.78 139 140 139.22 140 139.5C140 139.78 139.78 140 139.5 140H0.5C0.22 140 0 139.78 0 139.5C0 139.22 0.22 139 0.5 139H7.6V110.66C7.6 108.26 9.56 106.3 11.96 106.3H18.53V14.53C18.53 12.54 20.15 10.92 22.14 10.92H37.07V0.5C37.07 0.22 37.29 0 37.57 0H102.43C102.71 0 102.93 0.22 102.93 0.5V10.91H117.86C119.85 10.91 121.47 12.53 121.47 14.52V106.29H128.04C130.44 106.29 132.4 108.25 132.4 110.65V139ZM42.09 108.17C42.09 109 42.76 109.67 43.59 109.67H96.41C97.24 109.67 97.91 109 97.91 108.17V105.43C97.91 104.6 97.24 103.93 96.41 103.93H43.59C42.76 103.93 42.09 104.6 42.09 105.43V108.17ZM46.3062 122.655C46.3133 122.658 46.3205 122.66 46.33 122.66V115.45C46.3248 115.45 46.3202 115.451 46.316 115.452C46.3121 115.453 46.3086 115.454 46.305 115.455C46.302 115.456 46.299 115.457 46.2958 115.458C46.2911 115.459 46.286 115.46 46.28 115.46H8.6V122.65H46.28C46.2905 122.65 46.2983 122.653 46.3062 122.655ZM46.28 123.65H8.6V130.84H46.28C46.2841 130.84 46.2878 130.84 46.2913 130.841C46.2962 130.842 46.3006 130.844 46.305 130.845C46.3125 130.848 46.32 130.85 46.33 130.85V123.64C46.32 123.64 46.3125 123.643 46.305 123.645C46.2975 123.648 46.29 123.65 46.28 123.65ZM131.39 122.659V115.45C131.388 115.45 131.386 115.45 131.383 115.451C131.381 115.452 131.379 115.453 131.377 115.454C131.37 115.457 131.362 115.46 131.35 115.46H93.67V122.65H131.36C131.362 122.65 131.365 122.651 131.367 122.651C131.369 122.652 131.371 122.653 131.373 122.654C131.376 122.655 131.38 122.656 131.383 122.658C131.385 122.658 131.388 122.659 131.39 122.659ZM131.35 123.65H93.67V130.84H131.35C131.353 130.84 131.355 130.841 131.358 130.842C131.359 130.842 131.361 130.843 131.363 130.844C131.37 130.847 131.378 130.85 131.39 130.85V123.64C131.388 123.64 131.386 123.64 131.385 123.641C131.383 123.641 131.381 123.642 131.38 123.643C131.372 123.646 131.363 123.65 131.35 123.65ZM131.4 114.46V110.65C131.4 108.8 129.89 107.29 128.04 107.29H98.92V108.16C98.92 109.54 97.8 110.66 96.42 110.66H93.67V114.45H131.36C131.364 114.45 131.368 114.452 131.373 114.454C131.377 114.455 131.382 114.457 131.388 114.459C131.391 114.459 131.395 114.46 131.4 114.46ZM101.93 5.46V1H38.07V5.47C38.0741 5.47 38.0783 5.46828 38.0831 5.46627C38.09 5.46343 38.0983 5.46 38.11 5.46H101.93ZM38.0969 6.45627C38.09 6.45343 38.0817 6.45 38.07 6.45V10.92H101.93V6.46H38.11C38.1059 6.46 38.1017 6.45828 38.0969 6.45627ZM22.14 11.91C20.7 11.91 19.53 13.08 19.53 14.52V106.29H41.09V105.42C41.09 104.04 42.21 102.92 43.59 102.92H96.41C97.79 102.92 98.91 104.04 98.91 105.42V106.29H120.47V14.52C120.47 13.08 119.3 11.91 117.86 11.91H22.14ZM41.08 107.29H11.96C10.11 107.29 8.6 108.8 8.6 110.65V114.45H46.28C46.2894 114.45 46.2966 114.452 46.3037 114.455C46.3117 114.457 46.3194 114.46 46.33 114.46V110.66H43.58C42.2 110.66 41.08 109.54 41.08 108.16V107.29ZM46.28 131.84H8.6V139H46.33V131.83C46.3207 131.83 46.3136 131.832 46.3066 131.834C46.2986 131.837 46.2907 131.84 46.28 131.84ZM69.5 110.67H47.33V139H69.5V110.67ZM70.5 110.67V139H92.67V110.67H70.5ZM93.67 131.84V139H131.39V131.83C131.38 131.83 131.37 131.84 131.35 131.84H93.67ZM31.94 36.9101H44.29C45.67 36.9101 46.79 35.7901 46.79 34.4101V21.8101C46.79 20.4301 45.67 19.3101 44.29 19.3101H31.94C30.56 19.3101 29.44 20.4301 29.44 21.8101V34.4101C29.44 35.7901 30.56 36.9101 31.94 36.9101ZM30.44 21.8101C30.44 20.9801 31.11 20.3101 31.94 20.3101H44.29C45.12 20.3101 45.79 20.9801 45.79 21.8101V34.4101C45.79 35.2401 45.12 35.9101 44.29 35.9101H31.94C31.11 35.9101 30.44 35.2401 30.44 34.4101V21.8101ZM44.29 95.44C45.67 95.44 46.79 94.32 46.79 92.94V47.87C46.79 46.49 45.67 45.37 44.29 45.37H31.94C30.56 45.37 29.44 46.49 29.44 47.87V92.94C29.44 94.32 30.56 95.44 31.94 95.44H44.29ZM44.29 94.44H38.61V85.73H45.79V92.94C45.79 93.77 45.12 94.44 44.29 94.44ZM45.79 69.9H38.61V56.08H45.79V69.9ZM37.61 69.9H30.43V56.08H37.61V69.9ZM30.44 70.9H37.62V84.73H30.44V70.9ZM38.61 70.9H45.79V84.73H38.61V70.9ZM45.79 47.87V55.08H38.61V46.37H44.29C45.12 46.37 45.79 47.04 45.79 47.87ZM31.94 46.37H37.62V55.08H30.44V47.87C30.44 47.04 31.11 46.37 31.94 46.37ZM30.44 92.94V85.73H37.62V94.44H31.94C31.11 94.44 30.44 93.77 30.44 92.94ZM63.82 95.44H76.17C77.55 95.44 78.67 94.32 78.67 92.94V47.87C78.67 46.49 77.55 45.37 76.17 45.37H63.82C62.44 45.37 61.32 46.49 61.32 47.87V92.94C61.32 94.32 62.45 95.44 63.82 95.44ZM62.32 70.9H69.5V84.73H62.32V70.9ZM70.5 70.9H77.68V84.73H70.5V70.9ZM77.68 69.9H70.5V56.08H77.68V69.9ZM69.5 69.9H62.32V56.08H69.5V69.9ZM62.32 92.94V85.73H69.5V94.44H63.82C63 94.44 62.32 93.77 62.32 92.94ZM76.18 94.44H70.5V85.73H77.68V92.94C77.68 93.77 77 94.44 76.18 94.44ZM77.68 47.87V55.08H70.5V46.37H76.18C77 46.37 77.68 47.04 77.68 47.87ZM63.82 46.37H69.5V55.08H62.32V47.87C62.32 47.04 63 46.37 63.82 46.37ZM108.06 95.44H95.71C94.33 95.44 93.21 94.32 93.21 92.94V47.87C93.21 46.49 94.33 45.37 95.71 45.37H108.06C109.44 45.37 110.56 46.49 110.56 47.87V92.94C110.56 94.32 109.44 95.44 108.06 95.44ZM101.39 70.9H94.21V84.73H101.39V70.9ZM109.57 70.9H102.39V84.73H109.57V70.9ZM102.39 69.9H109.57V56.08H102.39V69.9ZM94.21 69.9H101.39V56.08H94.21V69.9ZM94.21 85.73V92.94C94.21 93.77 94.88 94.44 95.71 94.44H101.39V85.73H94.21ZM102.39 94.44H108.07C108.89 94.44 109.57 93.77 109.57 92.94V85.73H102.39V94.44ZM109.57 55.08V47.87C109.57 47.04 108.89 46.37 108.07 46.37H102.39V55.08H109.57ZM101.39 46.37H95.71C94.88 46.37 94.21 47.04 94.21 47.87V55.08H101.39V46.37ZM76.17 36.9101H63.82C62.45 36.9101 61.32 35.7901 61.32 34.4101V21.8101C61.32 20.4301 62.44 19.3101 63.82 19.3101H76.17C77.55 19.3101 78.67 20.4301 78.67 21.8101V34.4101C78.67 35.7901 77.55 36.9101 76.17 36.9101ZM63.82 20.3101C62.99 20.3101 62.32 20.9801 62.32 21.8101V34.4101C62.32 35.2401 62.99 35.9101 63.82 35.9101H76.17C77 35.9101 77.67 35.2401 77.67 34.4101V21.8101C77.67 20.9801 77 20.3101 76.17 20.3101H63.82ZM95.71 36.9101H108.06C109.44 36.9101 110.56 35.7901 110.56 34.4101V21.8101C110.56 20.4301 109.44 19.3101 108.06 19.3101H95.71C94.33 19.3101 93.21 20.4301 93.21 21.8101V34.4101C93.21 35.7901 94.33 36.9101 95.71 36.9101ZM94.21 21.8101C94.21 20.9801 94.88 20.3101 95.71 20.3101H108.06C108.89 20.3101 109.56 20.9801 109.56 21.8101V34.4101C109.56 35.2401 108.89 35.9101 108.06 35.9101H95.71C94.88 35.9101 94.21 35.2401 94.21 34.4101V21.8101ZM66 121.33C65.72 121.33 65.5 121.55 65.5 121.83V127.83C65.5 128.11 65.72 128.33 66 128.33C66.28 128.33 66.5 128.11 66.5 127.83V121.83C66.5 121.56 66.28 121.33 66 121.33ZM73.5 121.83C73.5 121.55 73.72 121.33 74 121.33C74.28 121.33 74.5 121.56 74.5 121.83V127.83C74.5 128.11 74.28 128.33 74 128.33C73.72 128.33 73.5 128.11 73.5 127.83V121.83Z" fill="#090909"/>
</svg>
