<svg width="80" height="80" viewBox="0 0 80 80" fill="none" xmlns="http://www.w3.org/2000/svg">
<path fill-rule="evenodd" clip-rule="evenodd" d="M75.68 79H79.5C79.78 79 80 79.22 80 79.5C80 79.78 79.78 80 79.5 80H0.5C0.22 80 0 79.78 0 79.5C0 79.22 0.22 79 0.5 79H4.33V63.1C4.33 61.62 5.53 60.41 7.02 60.41H10.53V8.47C10.53 7.22 11.55 6.2 12.8 6.2H21.07V0.5C21.07 0.22 21.29 0 21.57 0H58.42C58.7 0 58.92 0.22 58.92 0.5V6.2H67.19C68.44 6.2 69.46 7.22 69.46 8.47V60.42H72.98C74.47 60.42 75.68 61.62 75.68 63.11V79ZM24.35 60.91C24.35 61.7 24.99 62.33 25.77 62.33H54.23C55.02 62.33 55.65 61.7 55.65 60.91C55.65 60.12 55.01 59.49 54.23 59.49H25.77C24.99 59.49 24.35 60.12 24.35 60.91ZM5.32 69.71H26.33V66.05H5.32V69.71ZM26.33 70.71H5.32V74.37H26.33V70.71ZM53.67 69.71H74.68V66.05H53.67V69.71ZM74.68 70.71H53.67V74.37H74.68V70.71ZM74.68 65.05V63.11C74.68 62.17 73.92 61.41 72.99 61.41H56.6C56.37 62.51 55.4 63.33 54.24 63.33H53.67V65.05H74.68ZM57.93 3.1V1H22.07V3.1H57.93ZM57.94 4.1H22.07V6.2H57.94V4.1ZM12.8 7.2C12.1 7.2 11.53 7.77 11.53 8.47V60.41H23.41C23.64 59.31 24.61 58.49 25.77 58.49H54.23C55.39 58.49 56.36 59.32 56.59 60.41H68.47V8.47C68.47 7.77 67.9 7.2 67.2 7.2H12.8ZM23.41 61.41H7.02C6.08 61.41 5.32 62.17 5.32 63.11V65.05H26.34V63.33H25.77C24.61 63.33 23.64 62.5 23.41 61.41ZM26.33 75.36H5.32V79H26.33V75.36ZM39.5 63.33H27.33V79H39.5V63.33ZM40.5 63.33V79H52.67V63.33H40.5ZM53.67 75.36V79H74.68V75.36H53.67ZM18.23 21.41H25.52C26.35 21.41 27.02 20.74 27.02 19.91V12.47C27.02 11.64 26.35 10.97 25.52 10.97H18.23C17.4 10.97 16.73 11.64 16.73 12.47V19.91C16.73 20.74 17.4 21.41 18.23 21.41ZM17.73 12.47C17.73 12.19 17.95 11.97 18.23 11.97H25.52C25.8 11.97 26.02 12.19 26.02 12.47V19.91C26.02 20.19 25.8 20.41 25.52 20.41H18.23C17.95 20.41 17.73 20.19 17.73 19.91V12.47ZM25.52 54.67C26.35 54.67 27.02 54 27.02 53.17V27.29C27.02 26.46 26.35 25.79 25.52 25.79H18.23C17.4 25.79 16.73 26.46 16.73 27.29V53.18C16.73 54.01 17.4 54.68 18.23 54.68H25.52V54.67ZM25.52 53.67H22.37V49.15H26.02V53.17C26.02 53.45 25.8 53.67 25.52 53.67ZM26.02 39.73H22.37V32.3H26.02V39.73ZM21.38 39.73H17.73V32.3H21.38V39.73ZM17.73 40.73H21.38V48.16H17.73V40.73ZM22.38 40.73H26.03V48.16H22.38V40.73ZM26.02 27.29V31.31H22.37V26.79H25.52C25.8 26.79 26.02 27.01 26.02 27.29ZM18.23 26.79H21.38V31.31H17.73V27.29C17.73 27.01 17.95 26.79 18.23 26.79ZM17.73 53.17V49.15H21.38V53.67H18.23C17.95 53.67 17.73 53.45 17.73 53.17ZM36.35 54.67H43.64C44.47 54.67 45.14 54 45.14 53.17V27.29C45.14 26.46 44.47 25.79 43.64 25.79H36.35C35.52 25.79 34.85 26.46 34.85 27.29V53.18C34.85 54 35.53 54.67 36.35 54.67ZM35.85 40.73H39.5V48.16H35.85V40.73ZM40.5 40.73H44.15V48.16H40.5V40.73ZM44.15 39.73H40.5V32.3H44.15V39.73ZM39.5 39.73H35.85V32.3H39.5V39.73ZM35.85 53.17V49.15H39.5V53.67H36.35C36.08 53.67 35.85 53.45 35.85 53.17ZM43.65 53.67H40.5V49.15H44.15V53.17C44.15 53.45 43.92 53.67 43.65 53.67ZM44.15 27.29V31.31H40.5V26.79H43.65C43.92 26.79 44.15 27.01 44.15 27.29ZM36.35 26.79H39.5V31.31H35.85V27.29C35.85 27.01 36.08 26.79 36.35 26.79ZM61.77 54.67H54.48C53.65 54.67 52.98 54 52.98 53.18V27.29C52.98 26.46 53.65 25.79 54.48 25.79H61.77C62.6 25.79 63.27 26.46 63.27 27.29V53.17C63.27 54 62.6 54.67 61.77 54.67ZM57.63 40.73H53.98V48.16H57.63V40.73ZM62.27 40.73H58.62V48.16H62.27V40.73ZM58.62 39.73H62.27V32.3H58.62V39.73ZM53.97 39.73H57.62V32.3H53.97V39.73ZM53.98 49.15V53.17C53.98 53.45 54.2 53.67 54.48 53.67H57.63V49.15H53.98ZM58.62 53.67H61.77C62.05 53.67 62.27 53.45 62.27 53.17V49.15H58.62V53.67ZM62.27 31.31V27.29C62.27 27.01 62.05 26.79 61.77 26.79H58.62V31.31H62.27ZM57.63 26.79H54.48C54.2 26.79 53.98 27.01 53.98 27.29V31.31H57.63V26.79ZM43.64 21.41H36.35C35.53 21.41 34.85 20.74 34.85 19.91V12.47C34.85 11.64 35.52 10.97 36.35 10.97H43.64C44.47 10.97 45.14 11.64 45.14 12.47V19.91C45.14 20.74 44.47 21.41 43.64 21.41ZM36.35 11.97C36.07 11.97 35.85 12.19 35.85 12.47V19.91C35.85 20.19 36.07 20.41 36.35 20.41H43.64C43.92 20.41 44.14 20.19 44.14 19.91V12.47C44.14 12.19 43.92 11.97 43.64 11.97H36.35ZM54.48 21.41H61.77C62.6 21.41 63.27 20.74 63.27 19.91V12.47C63.27 11.64 62.6 10.97 61.77 10.97H54.48C53.65 10.97 52.98 11.64 52.98 12.47V19.91C52.98 20.74 53.65 21.41 54.48 21.41ZM53.98 12.47C53.98 12.19 54.2 11.97 54.48 11.97H61.77C62.05 11.97 62.27 12.19 62.27 12.47V19.91C62.27 20.19 62.05 20.41 61.77 20.41H54.48C54.2 20.41 53.98 20.19 53.98 19.91V12.47ZM36.73 68.96C36.45 68.96 36.23 69.18 36.23 69.46V72.87C36.23 73.15 36.45 73.37 36.73 73.37C37.01 73.37 37.23 73.15 37.23 72.87V69.46C37.23 69.18 37 68.96 36.73 68.96ZM42.77 69.46C42.77 69.18 42.99 68.96 43.27 68.96C43.55 68.96 43.77 69.18 43.77 69.46V72.87C43.77 73.15 43.55 73.37 43.27 73.37C42.99 73.37 42.77 73.15 42.77 72.87V69.46Z" fill="#090909"/>
</svg>
