<svg width="80" height="80" viewBox="0 0 80 80" fill="none" xmlns="http://www.w3.org/2000/svg">
<path fill-rule="evenodd" clip-rule="evenodd" d="M80 24.14C80 24.97 79.33 25.64 78.5 25.64H78.3V35.83H78.5C79.33 35.83 80 36.5 80 37.33V77.5C80 78.88 78.88 80 77.5 80H53.72C52.89 80 52.22 79.33 52.22 78.5V78.22H41.42C41.14 78.22 40.92 78 40.92 77.72C40.92 77.44 41.14 77.22 41.42 77.22H52.22V77.09C52.22 76.26 52.89 75.59 53.72 75.59H75.07C75.35 75.59 75.57 75.37 75.57 75.09V37.33C75.57 36.5 76.24 35.83 77.07 35.83H77.27V25.64H77.07C76.24 25.64 75.57 24.97 75.57 24.14V19.8C75.57 19.52 75.35 19.3 75.07 19.3H60.32C60.04 19.3 59.82 19.52 59.82 19.8V24.14C59.82 24.97 59.15 25.64 58.32 25.64H57.03C56.2 25.64 55.53 24.97 55.53 24.14V4.8C55.53 4.52 55.31 4.3 55.03 4.3H47.35C46.52 4.3 45.85 3.63 45.85 2.8V2.63L34.12 2.67V2.8C34.12 3.63 33.45 4.3 32.62 4.3H24.94C24.66 4.3 24.44 4.52 24.44 4.8V24.14C24.44 24.97 23.77 25.64 22.94 25.64H21.65C20.82 25.64 20.15 24.97 20.15 24.14V19.8C20.15 19.52 19.93 19.3 19.65 19.3H4.9C4.62 19.3 4.4 19.52 4.4 19.8V24.14C4.4 24.97 3.73 25.64 2.9 25.64H2.7V35.83H2.91C3.74 35.83 4.41 36.5 4.41 37.33V75.09C4.41 75.37 4.63 75.59 4.91 75.59H26.28C27.11 75.59 27.78 76.26 27.78 77.09V77.22H38.58C38.86 77.22 39.08 77.44 39.08 77.72C39.08 78 38.86 78.22 38.58 78.22H27.78V78.5C27.78 79.33 27.11 80 26.28 80H2.5C1.12 80 0 78.88 0 77.5V37.33C0 36.5 0.669998 35.83 1.5 35.83H1.7V25.64H1.5C0.669998 25.64 0 24.97 0 24.14V17.51C0 16.13 1.12 15.01 2.5 15.01H19.66C19.94 15.01 20.16 14.79 20.16 14.51V2.5C20.16 1.12 21.28 0 22.66 0H32.63C33.46 0 34.13 0.67 34.13 1.5V1.67L45.87 1.63V1.5C45.87 0.67 46.54 0 47.37 0H57.34C58.72 0 59.84 1.12 59.84 2.5V14.51C59.84 14.79 60.06 15.01 60.34 15.01H77.5C78.88 15.01 80 16.13 80 17.51V24.14ZM3.41 75.09V37.33C3.41 37.05 3.18 36.83 2.91 36.83H1.5C1.22 36.83 1 37.05 1 37.33V77.5C1 78.33 1.67 79 2.5 79H26.28C26.56 79 26.78 78.78 26.78 78.5V77.09C26.78 76.81 26.56 76.59 26.28 76.59H4.91C4.08 76.59 3.41 75.92 3.41 75.09ZM32.63 3.3C32.91 3.3 33.13 3.08 33.13 2.8V1.5C33.13 1.22 32.91 1 32.63 1H22.66C21.83 1 21.16 1.67 21.16 2.5V14.51C21.16 15.34 20.49 16.01 19.66 16.01H2.5C1.67 16.01 1 16.68 1 17.51V24.14C1 24.42 1.22 24.64 1.5 24.64H2.91C3.19 24.64 3.41 24.42 3.41 24.14V19.8C3.41 18.97 4.08 18.3 4.91 18.3H19.66C20.49 18.3 21.16 18.97 21.16 19.8V24.14C21.16 24.42 21.38 24.64 21.66 24.64H22.95C23.23 24.64 23.45 24.42 23.45 24.14V4.8C23.45 3.97 24.12 3.3 24.95 3.3H32.63ZM79 77.5V37.33C79 37.05 78.78 36.83 78.5 36.83H77.09C76.81 36.83 76.59 37.05 76.59 37.33V75.09C76.59 75.92 75.92 76.59 75.09 76.59H53.72C53.44 76.59 53.22 76.81 53.22 77.09V78.5C53.22 78.78 53.44 79 53.72 79H77.5C78.33 79 79 78.33 79 77.5ZM76.59 19.8V24.14C76.59 24.42 76.82 24.64 77.09 24.64H78.5C78.78 24.64 79 24.42 79 24.14V17.51C79 16.68 78.33 16.01 77.5 16.01H60.34C59.51 16.01 58.84 15.34 58.84 14.51V2.5C58.84 1.67 58.17 1 57.34 1H47.37C47.09 1 46.87 1.22 46.87 1.5V2.8C46.87 3.08 47.09 3.3 47.37 3.3H55.05C55.88 3.3 56.55 3.97 56.55 4.8V24.14C56.55 24.42 56.77 24.64 57.05 24.64H58.34C58.62 24.64 58.84 24.42 58.84 24.14V19.8C58.84 18.97 59.51 18.3 60.34 18.3H75.09C75.92 18.3 76.59 18.97 76.59 19.8ZM42.32 9.75C42.6 9.75 42.82 9.53 42.82 9.25V8.25C42.82 6.87 41.7 5.75 40.32 5.75H39.62C38.24 5.75 37.12 6.87 37.12 8.25V9.25C37.12 9.53 37.34 9.75 37.62 9.75H42.32ZM38.12 8.25C38.12 7.42 38.79 6.75 39.62 6.75H40.32C41.15 6.75 41.82 7.42 41.82 8.25V8.75H38.12V8.25ZM33.13 14.95V30.62C33.13 33.1 35.15 35.1199 37.63 35.1199H42.3C44.78 35.1199 46.8 33.1 46.8 30.62V14.95C46.8 12.47 44.78 10.45 42.3 10.45H37.63C35.15 10.45 33.13 12.47 33.13 14.95ZM37.63 11.45H42.3C44.23 11.45 45.8 13.02 45.8 14.95V30.62C45.8 32.55 44.23 34.1199 42.3 34.1199H37.63C35.7 34.1199 34.13 32.55 34.13 30.62V14.95C34.13 13.02 35.71 11.45 37.63 11.45ZM59.72 44.53V37.33C59.72 36.5 59.05 35.83 58.22 35.83H56.93C56.1 35.83 55.43 36.5 55.43 37.33V41.23C55.43 41.51 55.21 41.73 54.93 41.73H24.95C24.67 41.73 24.45 41.51 24.45 41.23V37.33C24.45 36.5 23.78 35.83 22.95 35.83H21.66C20.83 35.83 20.16 36.5 20.16 37.33V44.53C20.16 45.36 20.83 46.03 21.66 46.03H58.22C59.05 46.03 59.72 45.36 59.72 44.53ZM21.16 44.53V37.33C21.16 37.05 21.38 36.83 21.66 36.83H22.95C23.23 36.83 23.45 37.05 23.45 37.33V41.23C23.45 42.06 24.12 42.73 24.95 42.73H54.93C55.76 42.73 56.43 42.06 56.43 41.23V37.33C56.43 37.05 56.65 36.83 56.93 36.83H58.22C58.5 36.83 58.72 37.05 58.72 37.33V44.53C58.72 44.81 58.5 45.03 58.22 45.03H21.66C21.38 45.03 21.16 44.8 21.16 44.53ZM37.12 36.33C37.12 36.05 37.34 35.83 37.62 35.83H42.32C42.6 35.83 42.82 36.05 42.82 36.33V37.33C42.82 38.71 41.7 39.83 40.32 39.83H39.62C38.24 39.83 37.12 38.71 37.12 37.33V36.33ZM40.32 38.83C41.15 38.83 41.82 38.16 41.82 37.33V36.83H38.12V37.33C38.12 38.16 38.79 38.83 39.62 38.83H40.32ZM30.82 32.34C29.44 32.34 28.32 31.22 28.32 29.84V29.14C28.32 27.76 29.44 26.64 30.82 26.64H31.82C32.1 26.64 32.32 26.86 32.32 27.14V31.84C32.32 32.12 32.1 32.34 31.82 32.34H30.82ZM30.82 27.64C29.99 27.64 29.32 28.31 29.32 29.14V29.84C29.32 30.67 29.99 31.34 30.82 31.34H31.32V27.64H30.82ZM28.32 23.1399C28.32 24.5199 29.44 25.6399 30.82 25.6399H31.82C32.1 25.6399 32.32 25.4199 32.32 25.1399V20.4399C32.32 20.1599 32.1 19.9399 31.82 19.9399H30.82C29.44 19.9399 28.32 21.0599 28.32 22.4399V23.1399ZM29.32 22.4399C29.32 21.6099 29.99 20.9399 30.82 20.9399H31.32V24.6399H30.82C29.99 24.6399 29.32 23.9699 29.32 23.1399V22.4399ZM32.32 18.44C32.32 18.72 32.1 18.94 31.82 18.94H30.82C29.44 18.94 28.32 17.82 28.32 16.44V15.74C28.32 14.36 29.44 13.24 30.82 13.24H31.82C32.1 13.24 32.32 13.46 32.32 13.74V18.44ZM30.82 14.23C29.99 14.23 29.32 14.9 29.32 15.73V16.43C29.32 17.26 29.99 17.93 30.82 17.93H31.32V14.23H30.82ZM47.63 31.84C47.63 32.12 47.85 32.34 48.13 32.34H49.13C50.51 32.34 51.63 31.22 51.63 29.84V29.14C51.63 27.76 50.51 26.64 49.13 26.64H48.13C47.85 26.64 47.63 26.86 47.63 27.14V31.84ZM48.63 27.64H49.13C49.96 27.64 50.63 28.31 50.63 29.14V29.84C50.63 30.67 49.96 31.34 49.13 31.34H48.63V27.64ZM49.13 18.94H48.13C47.85 18.94 47.63 18.71 47.63 18.44V13.74C47.63 13.46 47.85 13.24 48.13 13.24H49.13C50.51 13.24 51.63 14.36 51.63 15.74V16.44C51.63 17.82 50.51 18.94 49.13 18.94ZM49.13 14.23H48.63V17.93H49.13C49.96 17.93 50.63 17.26 50.63 16.43V15.73C50.63 14.9 49.96 14.23 49.13 14.23ZM47.63 25.1399C47.63 25.4199 47.85 25.6399 48.13 25.6399H49.13C50.51 25.6399 51.63 24.5199 51.63 23.1399V22.4399C51.63 21.0599 50.51 19.9399 49.13 19.9399H48.13C47.85 19.9399 47.63 20.1599 47.63 20.4399V25.1399ZM48.63 20.9399H49.13C49.96 20.9399 50.63 21.6099 50.63 22.4399V23.1399C50.63 23.9699 49.96 24.6399 49.13 24.6399H48.63V20.9399ZM28.89 58.46C28.89 58.18 29.11 57.96 29.39 57.96H30.31C31.88 57.96 33.16 59.24 33.16 60.81C33.16 62.38 31.88 63.66 30.31 63.66H29.39C29.11 63.66 28.89 63.44 28.89 63.16V58.46ZM30.32 62.66C31.34 62.66 32.17 61.83 32.17 60.81C32.17 59.79 31.33 58.96 30.32 58.96H29.9V62.66H30.32ZM11.01 57.96C9.44003 57.96 8.16003 59.24 8.16003 60.81C8.16003 62.38 9.44003 63.66 11.01 63.66H11.93C12.21 63.66 12.43 63.44 12.43 63.16V58.46C12.43 58.18 12.21 57.96 11.93 57.96H11.01ZM11.43 62.66H11.01C9.99004 62.66 9.16003 61.83 9.16003 60.81C9.16003 59.79 9.99004 58.96 11.01 58.96H11.43V62.66ZM21.16 71.8099C21.16 72.0899 20.94 72.3099 20.66 72.3099C20.38 72.3099 20.16 72.0799 20.16 71.7999V70.2999H16.04C14.66 70.2999 13.54 69.1799 13.54 67.7999V53.8199C13.54 52.4399 14.66 51.3199 16.04 51.3199H20.16V49.8199C20.16 49.5399 20.38 49.3199 20.66 49.3199C20.94 49.3199 21.16 49.5399 21.16 49.8199V51.3199H25.28C26.66 51.3199 27.78 52.4399 27.78 53.8199V67.8099C27.78 69.1899 26.66 70.3099 25.28 70.3099H21.16V71.8099ZM26.78 53.8199C26.78 52.9899 26.11 52.3199 25.28 52.3199H21.16V69.2999H25.28C26.11 69.2999 26.78 68.63 26.78 67.7999V53.8199ZM14.54 67.7999C14.54 68.63 15.21 69.2999 16.04 69.2999H20.16V52.3199H16.04C15.21 52.3199 14.54 52.9899 14.54 53.8199V67.7999ZM22.9 61.56H23.23V64.22C23.23 64.5 23.45 64.72 23.73 64.72C24.01 64.72 24.23 64.5 24.23 64.22V57.4C24.23 57.12 24.01 56.9 23.73 56.9C23.45 56.9 23.23 57.12 23.23 57.4V60.06H22.9C22.53 60.06 22.23 60.36 22.23 60.73V60.89C22.24 61.26 22.54 61.56 22.9 61.56ZM18.09 60.06H18.42C18.79 60.06 19.09 60.36 19.09 60.73V60.89C19.09 61.26 18.79 61.56 18.42 61.56H18.09V64.22C18.09 64.5 17.87 64.72 17.59 64.72C17.31 64.72 17.09 64.5 17.09 64.22V57.4C17.09 57.12 17.31 56.9 17.59 56.9C17.87 56.9 18.09 57.12 18.09 57.4V60.06ZM68.93 63.66C70.5 63.66 71.78 62.38 71.78 60.81C71.78 59.24 70.5 57.96 68.93 57.96H68.01C67.73 57.96 67.51 58.18 67.51 58.46V63.16C67.51 63.44 67.73 63.66 68.01 63.66H68.93ZM68.51 58.96H68.93C69.95 58.96 70.78 59.79 70.78 60.81C70.78 61.83 69.95 62.66 68.93 62.66H68.51V58.96ZM46.78 60.81C46.78 59.24 48.06 57.96 49.63 57.96H50.55C50.83 57.96 51.05 58.18 51.05 58.46V63.16C51.05 63.44 50.83 63.66 50.55 63.66H49.63C48.06 63.66 46.78 62.38 46.78 60.81ZM49.63 62.66H50.05V58.96H49.63C48.61 58.96 47.78 59.79 47.78 60.81C47.78 61.83 48.61 62.66 49.63 62.66ZM59.28 49.3101C59 49.3101 58.78 49.5301 58.78 49.8101V51.3101H54.66C53.28 51.3101 52.16 52.4301 52.16 53.8101V67.8001C52.16 69.1801 53.28 70.3001 54.66 70.3001H58.78V71.8001C58.78 72.0801 59 72.3001 59.28 72.3001C59.56 72.3001 59.78 72.0801 59.78 71.8001V70.3001H63.9C65.28 70.3001 66.4 69.1801 66.4 67.8001V53.8201C66.4 52.4401 65.28 51.3201 63.9 51.3201H59.78V49.8201C59.78 49.5401 59.56 49.3101 59.28 49.3101ZM54.66 69.3001C53.83 69.3001 53.16 68.6301 53.16 67.8001V53.8201C53.16 52.9901 53.83 52.3201 54.66 52.3201H58.78V69.3001H54.66ZM63.9 52.3201C64.73 52.3201 65.4 52.9901 65.4 53.8201V67.8001C65.4 68.6301 64.73 69.3001 63.9 69.3001H59.78V52.3201H63.9ZM61.85 61.56H61.52C61.15 61.56 60.86 61.26 60.85 60.89V60.73C60.85 60.36 61.15 60.06 61.52 60.06H61.85V57.4C61.85 57.12 62.07 56.9 62.35 56.9C62.63 56.9 62.85 57.12 62.85 57.4V64.22C62.85 64.5 62.63 64.72 62.35 64.72C62.07 64.72 61.85 64.5 61.85 64.22V61.56ZM57.04 60.06H56.71V57.4C56.71 57.12 56.49 56.9 56.21 56.9C55.93 56.9 55.71 57.12 55.71 57.4V64.22C55.71 64.5 55.93 64.72 56.21 64.72C56.49 64.72 56.71 64.5 56.71 64.22V61.56H57.04C57.41 61.56 57.71 61.26 57.71 60.89V60.73C57.71 60.36 57.41 60.06 57.04 60.06Z" fill="#090909"/>
</svg>
