<svg width="140" height="140" viewBox="0 0 140 140" fill="none" xmlns="http://www.w3.org/2000/svg">
<path fill-rule="evenodd" clip-rule="evenodd" d="M140 42.85C140 43.68 139.33 44.35 138.5 44.35H137V63.04H138.5C138.89 63.01 139.27 63.2 139.56 63.48C139.84 63.76 140 64.14 140 64.54V135.5C140 137.98 137.98 140 135.5 140H93.38C92.55 140 91.88 139.33 91.88 138.5V136.87H72.5C72.22 136.87 72 136.65 72 136.37C72 136.09 72.22 135.87 72.5 135.87H91.88V134.5C91.88 133.67 92.55 133 93.38 133H131.51C132.34 133 133.01 132.33 133.01 131.5V64.54C133.01 63.72 133.68 63.05 134.5 63.04H136.01V44.35H134.51C133.68 44.35 133.01 43.68 133.01 42.85V34.7C133.01 33.87 132.34 33.2 131.51 33.2H106.03C105.2 33.2 104.53 33.87 104.53 34.7V42.85C104.53 43.68 103.86 44.35 103.03 44.35H99.24C98.41 44.35 97.74 43.68 97.74 42.85V8.31C97.74 7.48 97.07 6.81 96.24 6.81H82.2C81.37 6.81 80.7 6.14 80.7 5.31V3.87L59.3 3.94V5.31C59.3 6.14 58.63 6.81 57.8 6.81H43.77C42.94 6.81 42.27 7.48 42.27 8.31V42.85C42.27 43.68 41.6 44.35 40.77 44.35H36.98C36.15 44.35 35.48 43.68 35.48 42.85V34.7C35.48 33.87 34.81 33.2 33.98 33.2H8.5C7.67 33.2 7 33.87 7 34.7V42.85C7 43.68 6.33 44.35 5.5 44.35H4V63.04H5.5C6.33 63.04 7 63.71 7 64.54V131.5C7 132.33 7.67 133 8.5 133H46.62C47.45 133 48.12 133.67 48.12 134.5V135.87H67.5C67.78 135.87 68 136.09 68 136.37C68 136.65 67.78 136.87 67.5 136.87H48.12V138.5C48.12 139.33 47.45 140 46.62 140H4.5C2.02 140 0 137.98 0 135.5V64.54C0 63.71 0.67 63.04 1.5 63.04H3V44.35H1.5C0.67 44.35 0 43.68 0 42.85V30.91C0 28.43 2.02 26.41 4.5 26.41H33.97C34.8 26.41 35.47 25.74 35.47 24.91V4.5C35.47 2.02 37.49 0 39.97 0H57.8C58.63 0 59.3 0.67 59.3 1.5V2.94L80.7 2.87V1.5C80.7 0.67 81.37 0 82.2 0H100.03C102.51 0 104.53 2.02 104.53 4.5V24.91C104.53 25.74 105.2 26.41 106.03 26.41H135.5C137.98 26.41 140 28.43 140 30.91V42.85ZM6 131.5V64.54C6 64.27 5.77 64.04 5.5 64.04H1.5C1.22 64.04 1 64.26 1 64.54V135.5C1 137.43 2.57 139 4.5 139H46.63C46.91 139 47.13 138.78 47.13 138.5V134.5C47.13 134.22 46.91 134 46.63 134H8.5C7.12 134 6 132.88 6 131.5ZM57.8 5.81C58.08 5.81 58.3 5.59 58.3 5.31V1.5C58.3 1.22 58.08 1 57.8 1H39.97C38.04 1 36.47 2.57 36.47 4.5V24.91C36.47 26.29 35.35 27.41 33.97 27.41H4.5C2.57 27.41 1 28.98 1 30.91V42.85C1 43.13 1.22 43.35 1.5 43.35H5.5C5.78 43.35 6 43.13 6 42.85V34.7C6 33.32 7.12 32.2 8.5 32.2H33.98C35.36 32.2 36.48 33.32 36.48 34.7V42.85C36.48 43.13 36.7 43.35 36.98 43.35H40.77C41.05 43.35 41.27 43.13 41.27 42.85V8.31C41.27 6.93 42.39 5.81 43.77 5.81H57.8ZM138.86 64.19C138.76 64.09 138.64 64.04 138.5 64.04H134.5C134.23 64.04 134.01 64.27 134.01 64.54V131.5C134.01 132.88 132.89 134 131.51 134H93.38C93.1 134 92.88 134.22 92.88 134.5V138.5C92.88 138.78 93.1 139 93.38 139H135.51C137.44 139 139.01 137.43 139.01 135.5V64.54C139.01 64.41 138.95 64.28 138.86 64.19ZM134 34.7V42.85C134 43.13 134.23 43.35 134.5 43.35H138.5C138.78 43.35 139 43.13 139 42.85V30.91C139 28.98 137.43 27.41 135.5 27.41H106.03C104.65 27.41 103.53 26.29 103.53 24.91V4.5C103.53 2.57 101.96 1 100.03 1H82.2C81.92 1 81.7 1.22 81.7 1.5V5.31C81.7 5.59 81.92 5.81 82.2 5.81H96.23C97.61 5.81 98.73 6.93 98.73 8.31V42.85C98.73 43.13 98.95 43.35 99.23 43.35H103.02C103.3 43.35 103.52 43.13 103.52 42.85V34.7C103.52 33.32 104.64 32.2 106.02 32.2H131.5C132.88 32.2 134 33.32 134 34.7ZM74.08 16.39C74.36 16.39 74.58 16.17 74.58 15.89V12.62C74.58 11.24 73.46 10.12 72.08 10.12H67.81C66.43 10.12 65.31 11.24 65.31 12.62V15.89C65.31 16.17 65.53 16.39 65.81 16.39H74.08ZM66.31 12.61C66.31 11.78 66.98 11.11 67.81 11.11H72.08C72.91 11.11 73.58 11.78 73.58 12.61V15.38H66.31V12.61ZM58.3 26.89V52.54C58.3 57.23 62.11 61.04 66.8 61.04H73.09C77.78 61.04 81.59 57.23 81.59 52.54V26.89C81.59 22.2 77.78 18.39 73.09 18.39H66.8C62.11 18.39 58.3 22.2 58.3 26.89ZM66.8 19.39H73.09C77.23 19.39 80.59 22.75 80.59 26.89V52.54C80.59 56.68 77.23 60.04 73.09 60.04H66.8C62.66 60.04 59.3 56.68 59.3 52.54V26.89C59.3 22.75 62.67 19.39 66.8 19.39ZM104.32 77.73V64.54C104.32 63.71 103.65 63.04 102.82 63.04H99.03C98.2 63.04 97.53 63.71 97.53 64.54V72.93C97.53 73.21 97.31 73.43 97.03 73.43H42.77C42.49 73.43 42.27 73.21 42.27 72.93V64.54C42.27 63.71 41.6 63.04 40.77 63.04H36.97C36.14 63.04 35.47 63.71 35.47 64.54V77.73C35.47 79.11 36.59 80.23 37.97 80.23H101.82C103.2 80.23 104.32 79.11 104.32 77.73ZM36.47 77.73V64.54C36.47 64.26 36.69 64.04 36.97 64.04H40.77C41.05 64.04 41.27 64.26 41.27 64.54V72.93C41.27 73.76 41.94 74.43 42.77 74.43H97.03C97.86 74.43 98.53 73.76 98.53 72.93V64.54C98.53 64.26 98.75 64.04 99.03 64.04H102.82C103.1 64.04 103.32 64.26 103.32 64.54V77.73C103.32 78.56 102.65 79.23 101.82 79.23H37.97C37.14 79.23 36.47 78.56 36.47 77.73ZM65.31 63.54C65.31 63.26 65.53 63.04 65.81 63.04H74.08C74.36 63.04 74.58 63.26 74.58 63.54V66.82C74.58 68.2 73.46 69.32 72.08 69.32H67.81C66.43 69.32 65.31 68.2 65.31 66.82V63.54ZM72.08 68.32C72.91 68.32 73.58 67.65 73.58 66.82V64.04H66.31V66.82C66.31 67.65 66.98 68.32 67.81 68.32H72.08ZM52.33 56.14C50.95 56.14 49.83 55.02 49.83 53.64V49.37C49.83 47.99 50.95 46.87 52.33 46.87H55.6C55.88 46.87 56.1 47.09 56.1 47.37V55.64C56.1 55.92 55.88 56.14 55.6 56.14H52.33ZM52.33 47.87C51.5 47.87 50.83 48.54 50.83 49.37V53.64C50.83 54.47 51.5 55.14 52.33 55.14H55.1V47.87H52.33ZM49.83 41.85C49.83 43.23 50.95 44.35 52.33 44.35H55.6C55.88 44.35 56.1 44.13 56.1 43.85V35.58C56.1 35.3 55.88 35.08 55.6 35.08H52.33C50.95 35.08 49.83 36.2 49.83 37.58V41.85ZM50.83 37.58C50.83 36.75 51.5 36.08 52.33 36.08H55.1V43.35H52.33C51.5 43.35 50.83 42.68 50.83 41.85V37.58ZM55.6 32.56H52.33C50.95 32.56 49.83 31.44 49.83 30.06V25.79C49.83 24.41 50.95 23.29 52.33 23.29H55.6C55.88 23.29 56.1 23.51 56.1 23.79V32.06C56.1 32.34 55.88 32.56 55.6 32.56ZM52.33 24.29C51.5 24.29 50.83 24.96 50.83 25.79V30.06C50.83 30.89 51.5 31.56 52.33 31.56H55.1V24.29H52.33ZM83.8 55.64C83.8 55.92 84.02 56.14 84.3 56.14H87.57C88.95 56.14 90.07 55.02 90.07 53.64V49.37C90.07 47.99 88.95 46.87 87.57 46.87H84.3C84.02 46.87 83.8 47.09 83.8 47.37V55.64ZM84.8 47.87H87.57C88.4 47.87 89.07 48.54 89.07 49.37V53.64C89.07 54.47 88.4 55.14 87.57 55.14H84.8V47.87ZM87.57 32.56H84.3C84.02 32.56 83.8 32.34 83.8 32.06V23.79C83.8 23.51 84.02 23.29 84.3 23.29H87.57C88.95 23.29 90.07 24.41 90.07 25.79V30.06C90.07 31.44 88.95 32.56 87.57 32.56ZM87.57 24.29H84.8V31.56H87.57C88.4 31.56 89.07 30.89 89.07 30.06V25.79C89.07 24.96 88.4 24.29 87.57 24.29ZM83.8 43.85C83.8 44.13 84.02 44.35 84.3 44.35H87.57C88.95 44.35 90.07 43.23 90.07 41.85V37.58C90.07 36.2 88.95 35.08 87.57 35.08H84.3C84.02 35.08 83.8 35.3 83.8 35.58V43.85ZM84.8 36.08H87.57C88.4 36.08 89.07 36.75 89.07 37.58V41.85C89.07 42.68 88.4 43.35 87.57 43.35H84.8V36.08ZM50.33 102.48C50.33 102.2 50.55 101.98 50.83 101.98H53.1C55.58 101.98 57.6 104 57.6 106.48V106.76C57.6 109.24 55.58 111.26 53.1 111.26H50.83C50.55 111.26 50.33 111.04 50.33 110.76V102.48ZM56.6 106.76V106.48C56.6 104.55 55.03 102.98 53.1 102.98H51.33V110.26H53.1C55.03 110.26 56.6 108.69 56.6 106.76ZM18.85 101.98C16.37 101.98 14.35 104 14.35 106.48V106.76C14.35 109.24 16.37 111.26 18.85 111.26H21.12C21.4 111.26 21.62 111.04 21.62 110.76V102.48C21.62 102.2 21.4 101.98 21.12 101.98H18.85ZM20.62 110.25H18.85C16.92 110.25 15.35 108.68 15.35 106.75V106.47C15.35 104.54 16.92 102.97 18.85 102.97H20.62V110.25ZM36.47 125.96C36.47 126.24 36.25 126.46 35.97 126.46C35.7 126.46 35.47 126.24 35.47 125.96V122.94H26.32C24.94 122.94 23.82 121.82 23.82 120.44V92.79C23.82 91.41 24.94 90.29 26.32 90.29H35.47V87.27C35.47 86.99 35.69 86.77 35.97 86.77C36.25 86.77 36.47 86.99 36.47 87.27V90.29H45.62C47 90.29 48.12 91.41 48.12 92.79V120.44C48.12 121.82 47 122.94 45.62 122.94H36.47V125.96ZM47.12 92.79C47.12 91.96 46.45 91.29 45.62 91.29H36.47V121.94H45.62C46.45 121.94 47.12 121.27 47.12 120.44V92.79ZM24.83 120.44C24.83 121.27 25.5 121.94 26.33 121.94H35.48V91.29H26.33C25.5 91.29 24.83 91.96 24.83 92.79V120.44ZM39.47 107.79H40.14V112.61C40.14 112.89 40.36 113.11 40.64 113.11C40.92 113.11 41.14 112.89 41.14 112.61V100.61C41.14 100.33 40.92 100.11 40.64 100.11C40.36 100.11 40.14 100.33 40.14 100.61V105.43H39.47C38.82 105.43 38.29 105.96 38.29 106.61C38.3 107.26 38.82 107.79 39.47 107.79ZM31.8 105.44H32.48C33.12 105.44 33.65 105.96 33.65 106.62C33.65 107.27 33.12 107.8 32.47 107.8H31.8V112.62C31.8 112.9 31.58 113.12 31.3 113.12C31.02 113.12 30.8 112.9 30.8 112.62V100.62C30.8 100.34 31.02 100.12 31.3 100.12C31.58 100.12 31.8 100.34 31.8 100.62V105.44ZM121.04 111.25C123.52 111.25 125.54 109.23 125.54 106.75V106.47C125.54 103.99 123.52 101.97 121.04 101.97H118.77C118.49 101.97 118.27 102.19 118.27 102.47V110.75C118.27 111.03 118.49 111.25 118.77 111.25H121.04ZM119.27 102.98H121.04C122.97 102.98 124.54 104.55 124.54 106.48V106.76C124.54 108.69 122.97 110.26 121.04 110.26H119.27V102.98ZM82.3 106.48C82.3 104 84.32 101.98 86.8 101.98H89.07C89.35 101.98 89.57 102.2 89.57 102.48V110.76C89.57 111.04 89.35 111.26 89.07 111.26H86.8C84.32 111.26 82.3 109.24 82.3 106.76V106.48ZM86.8 110.25H88.57V102.97H86.8C84.87 102.97 83.3 104.54 83.3 106.47V106.75C83.3 108.68 84.87 110.25 86.8 110.25ZM103.92 86.77C103.64 86.77 103.42 86.99 103.42 87.27V90.29H94.27C92.89 90.29 91.77 91.41 91.77 92.79V120.44C91.77 121.82 92.89 122.94 94.27 122.94H103.42V125.96C103.42 126.24 103.64 126.46 103.92 126.46C104.2 126.46 104.42 126.24 104.42 125.96V122.94H113.57C114.95 122.94 116.07 121.82 116.07 120.44V92.79C116.07 91.41 114.95 90.29 113.57 90.29H104.42V87.27C104.42 86.99 104.2 86.77 103.92 86.77ZM94.28 121.94C93.45 121.94 92.78 121.27 92.78 120.44V92.79C92.78 91.96 93.45 91.29 94.28 91.29H103.43V121.94H94.28ZM113.57 91.29C114.4 91.29 115.07 91.96 115.07 92.79V120.44C115.07 121.27 114.4 121.94 113.57 121.94H104.42V91.29H113.57ZM108.09 107.79H107.42C106.77 107.79 106.25 107.26 106.24 106.61C106.24 105.96 106.77 105.43 107.42 105.43H108.09V100.61C108.09 100.33 108.31 100.11 108.59 100.11C108.87 100.11 109.09 100.33 109.09 100.61V112.61C109.09 112.89 108.87 113.11 108.59 113.11C108.31 113.11 108.09 112.89 108.09 112.61V107.79ZM100.42 105.44H99.75V100.62C99.75 100.34 99.53 100.12 99.25 100.12C98.97 100.12 98.75 100.34 98.75 100.62V112.62C98.75 112.9 98.97 113.12 99.25 113.12C99.53 113.12 99.75 112.9 99.75 112.62V107.8H100.42C101.07 107.8 101.6 107.27 101.6 106.62C101.6 105.96 101.07 105.44 100.42 105.44Z" fill="#090909"/>
</svg>
