<svg width="80" height="81" viewBox="0 0 80 81" fill="none" xmlns="http://www.w3.org/2000/svg">
<path fill-rule="evenodd" clip-rule="evenodd" d="M80 19.3434V41.1834C80 42.2934 79.33 43.2734 78.34 43.7134L78.78 43.9934C79.55 44.5234 80 45.3734 80 46.2934V68.1234C80 69.4434 79.06 70.5934 77.76 70.8434L31.75 79.8434C31.21 79.9534 30.68 80.0034 30.14 80.0034C28.44 80.0034 26.76 79.4934 25.35 78.5334L1.72 63.3734C0.64 62.6334 0 61.4234 0 60.1334V40.0334C0 38.7134 0.94 37.5634 2.25 37.3234L2.91 37.1934L1.72 36.4334C0.64 35.6934 0 34.4834 0 33.1934V12.0934C0 10.7634 0.94 9.62341 2.24 9.36341L49.65 0.0934061C50.96 -0.166594 52.35 0.123406 53.46 0.873406L78.78 17.0434C79.55 17.5734 80 18.4234 80 19.3434ZM79 68.1334V46.2934C79 45.7034 78.71 45.1534 78.21 44.8234L76.99 44.0434L73.52 44.7234L75.43 45.8634C76.06 46.2934 76.42 46.9734 76.42 47.7034V65.8934C76.42 66.9434 75.67 67.8534 74.64 68.0534L62.32 70.6734C62.22 70.6934 62.11 70.7034 62.01 70.7034C61.67 70.7034 61.34 70.5934 61.07 70.3734C60.71 70.0834 60.51 69.6634 60.51 69.2034V50.5034C60.51 50.1034 60.32 49.7334 59.99 49.5034L57.5 47.8534L54.45 48.4534L56.99 50.1934C57.59 50.6034 57.95 51.2834 57.95 52.0134V70.0334C57.95 70.5934 57.64 71.1034 57.15 71.3634C56.93 71.4734 56.69 71.5334 56.45 71.5334C56.15 71.5334 55.85 71.4434 55.6 71.2734L53.85 70.0734C53.44 69.7934 53.2 69.3334 53.2 68.8334V54.5534C53.2 54.0734 52.97 53.6234 52.58 53.3434L49.62 51.1934C49.47 51.0834 49.27 51.0634 49.1 51.1534C48.93 51.2434 48.83 51.4134 48.83 51.6034V63.6834C48.83 64.2334 48.54 64.7234 48.05 64.9934C47.56 65.2534 46.99 65.2434 46.52 64.9434L43.7 63.1534C43.26 62.8734 43 62.4034 43 61.8834V53.5834L5.15 61.4134C5.04 61.4334 4.94 61.4434 4.83 61.4434C4.45 61.4434 4.09 61.3134 3.79 61.0734C3.41 60.7634 3.19 60.3034 3.19 59.8134V41.6334C3.19 40.8534 3.74 40.1734 4.51 40.0234L6.65 39.5834L4.12 37.9634L2.43 38.2934C1.6 38.4534 1 39.1834 1 40.0334V60.1334C1 61.0934 1.47 61.9934 2.27 62.5334L25.91 77.7034C27.56 78.8334 29.61 79.2534 31.56 78.8734L77.57 69.8734C78.4 69.7134 79 68.9834 79 68.1334ZM21.43 49.0634L20.44 49.2434H20.45V50.5834C20.45 50.7334 20.54 50.8334 20.59 50.8734C20.64 50.9134 20.74 50.9834 20.9 50.9534L23.59 50.4534L21.43 49.0634ZM20.82 51.9634C20.5 51.9634 20.19 51.8534 19.94 51.6434C19.62 51.3734 19.44 50.9834 19.44 50.5734V47.7934L7.85 40.3634L4.7 41.0134C4.4 41.0634 4.18 41.3334 4.18 41.6334V59.8234C4.18 60.0134 4.26 60.1934 4.41 60.3134C4.56 60.4334 4.75 60.4734 4.94 60.4434L43 52.5534V50.6934L31.76 52.8934C31.22 53.0034 30.69 53.0534 30.15 53.0534C28.45 53.0534 26.77 52.5434 25.36 51.5834L24.82 51.2434L21.08 51.9434L21.0799 51.9434C20.9899 51.9534 20.9 51.9634 20.82 51.9634ZM56.42 51.0134L53.07 48.7234L44 50.5034V61.8834C44 62.0534 44.09 62.2134 44.22 62.3034L47.04 64.0934C47.27 64.2434 47.47 64.1534 47.55 64.1134C47.63 64.0734 47.81 63.9434 47.81 63.6734V51.6134C47.81 51.0434 48.13 50.5334 48.63 50.2734C49.13 50.0134 49.73 50.0634 50.19 50.3934L53.15 52.5434C53.8 53.0134 54.18 53.7634 54.18 54.5634V68.8434C54.18 69.0034 54.26 69.1634 54.4 69.2534L56.15 70.4534C56.31 70.5634 56.5 70.5734 56.67 70.4834C56.75 70.4434 56.94 70.3134 56.94 70.0434V52.0034C56.94 51.6134 56.75 51.2334 56.42 51.0134ZM74.9 46.7134L72.07 45.0134L65.43 46.3134V60.1934C65.77 60.3134 66.09 60.4534 66.39 60.6534L75.37 66.2434C75.4 66.1334 75.43 66.0234 75.43 65.9034V47.7134C75.43 47.3134 75.23 46.9434 74.9 46.7134ZM63.62 61.0134L61.51 61.4234V69.2134C61.51 69.3634 61.58 69.5034 61.7 69.6034C61.82 69.6934 61.97 69.7334 62.12 69.7034L74.44 67.0734C74.5 67.0667 74.5511 67.0423 74.6022 67.0179C74.6278 67.0056 74.6533 66.9934 74.68 66.9834L65.84 61.4734C65.18 61.0334 64.38 60.8634 63.62 61.0134ZM63.43 60.0334C63.76 59.9634 64.1 59.9634 64.43 59.9834V46.5134L58.89 47.5934L60.54 48.6934C61.15 49.1034 61.51 49.7834 61.51 50.5134V60.4134L63.43 60.0334ZM77.57 42.9234C78.4 42.7634 79 42.0334 79 41.1834V19.3334C79 18.7534 78.71 18.2034 78.23 17.8734L52.92 1.71341L52.91 1.70341C52.24 1.24341 51.43 1.00341 50.62 1.00341C50.36 1.00341 50.1 1.02341 49.84 1.08341L2.43 10.3534C1.6 10.5134 1 11.2434 1 12.0934V33.1934C1 34.1534 1.47 35.0534 2.27 35.5934L25.91 50.7534C27.56 51.8834 29.61 52.3034 31.56 51.9234L77.57 42.9234ZM66.56 13.4934L75.44 18.8134C76.07 19.2434 76.43 19.9234 76.41 20.6534V38.8634C76.41 39.9134 75.66 40.8234 74.63 41.0234L62.31 43.6434C62.21 43.6634 62.1 43.6734 62 43.6734C61.66 43.6734 61.33 43.5534 61.06 43.3334C60.7 43.0434 60.5 42.6134 60.5 42.1634V23.4634C60.5 23.0634 60.31 22.6834 59.98 22.4634L53.11 17.8934C52.59 17.5534 52.35 16.9634 52.47 16.3534C52.59 15.7434 53.04 15.2934 53.65 15.1734L64.46 13.0634C65.19 12.9234 65.95 13.0734 66.56 13.4934ZM53.46 16.5534C53.44 16.6234 53.41 16.8934 53.67 17.0634L60.54 21.6434C61.15 22.0534 61.51 22.7334 61.51 23.4634V33.4634L63.43 33.0834C63.76 33.0134 64.1 33.0134 64.43 33.0334V16.9134C64.43 16.6334 64.65 16.4134 64.93 16.4134C65.21 16.4134 65.43 16.6334 65.43 16.9134V33.2434C65.77 33.3634 66.09 33.5034 66.39 33.7034L75.35 39.2834C75.4 39.1434 75.43 39.0034 75.43 38.8534V20.6634C75.43 20.2634 75.23 19.8934 74.9 19.6634L66.02 14.3434C65.71 14.1334 65.35 14.0234 64.99 14.0234C64.88 14.0234 64.77 14.0334 64.66 14.0534L53.85 16.1634C53.55 16.2234 53.48 16.4734 53.46 16.5534ZM61.7 42.5534C61.82 42.6434 61.97 42.6834 62.12 42.6534L74.44 40.0334C74.4786 40.0257 74.5112 40.012 74.5471 39.997C74.5577 39.9925 74.5686 39.988 74.58 39.9834L65.84 34.5334C65.18 34.0934 64.38 33.9234 63.62 34.0734L61.51 34.4834V42.1634C61.51 42.3134 61.58 42.4534 61.7 42.5534ZM38.63 8.67338L20.56 12.2034C19.91 12.3334 19.44 12.9034 19.44 13.5634V23.6334C19.44 24.0434 19.62 24.4334 19.94 24.6934C20.19 24.9034 20.5 25.0134 20.82 25.0134C20.9 25.0134 20.99 25.0034 21.08 24.9934L39.06 21.6334C39.77 21.5034 40.28 20.8834 40.28 20.1634V10.0334C40.28 9.61338 40.1 9.23338 39.78 8.96338C39.46 8.69338 39.04 8.59338 38.63 8.67338ZM20.75 13.1834L36.44 10.1134V17.9734C36.44 18.1534 36.31 18.3134 36.13 18.3434L20.44 21.2734V13.5534C20.44 13.3834 20.57 13.2234 20.75 13.1834ZM39.28 20.1534C39.28 20.3934 39.11 20.6034 38.87 20.6434L20.89 24.0034C20.73 24.0334 20.63 23.9634 20.58 23.9234C20.53 23.8834 20.44 23.7834 20.44 23.6334V22.3034L36.32 19.3334C36.97 19.2034 37.44 18.6334 37.44 17.9734V9.92338L38.83 9.65338C38.86 9.64338 38.88 9.64338 38.91 9.64338C39.02 9.64338 39.11 9.69338 39.15 9.73338C39.2 9.77338 39.29 9.87338 39.29 10.0334V20.1534H39.28ZM44.76 14.8834L56.99 23.2434C57.59 23.6634 57.95 24.3434 57.95 25.0634V43.0934C57.95 43.6534 57.64 44.1634 57.15 44.4234C56.93 44.5334 56.69 44.5934 56.45 44.5934C56.15 44.5934 55.85 44.5034 55.6 44.3334L53.85 43.1334C53.45 42.8534 53.2 42.3934 53.2 41.8934V27.6134C53.2 27.1334 52.97 26.6834 52.58 26.4034L49.62 24.2534C49.47 24.1434 49.27 24.1234 49.1 24.2134C48.93 24.3034 48.83 24.4734 48.83 24.6634V36.7334C48.83 37.2834 48.54 37.7734 48.05 38.0434C47.56 38.3034 46.99 38.2934 46.52 37.9934L43.7 36.2034C43.26 35.9234 43 35.4534 43 34.9334V26.6334L5.15 34.4734C4.66 34.5734 4.17 34.4434 3.79 34.1334C3.41 33.8234 3.19 33.3634 3.19 32.8734V13.6934C3.19 12.9134 3.74 12.2334 4.51 12.0834L48.83 3.54343C49.71 3.37343 50.63 3.56343 51.36 4.06343L59.86 9.06343C60.4 9.38343 60.68 9.98343 60.58 10.6034C60.48 11.2134 60.02 11.6934 59.41 11.8234L44.76 14.8834ZM43.3448 14.4397L43.3459 14.4382C43.3471 14.4366 43.3484 14.435 43.35 14.4334C43.54 14.2134 43.81 14.0634 44.12 14.0034L59.2 10.8534C59.51 10.7834 59.58 10.5234 59.59 10.4434C59.6 10.3634 59.62 10.0934 59.35 9.93343L50.82 4.91343C50.41 4.62343 49.93 4.48343 49.46 4.48343C49.31 4.48343 49.17 4.49343 49.02 4.52343L4.69 13.0634C4.4 13.1134 4.18 13.3834 4.18 13.6834V32.8734C4.18 33.0634 4.26 33.2434 4.41 33.3634C4.56 33.4834 4.75 33.5334 4.94 33.4934L43 25.6034V15.3534C43 15.0234 43.12 14.7034 43.33 14.4534C43.3362 14.4534 43.3385 14.4496 43.3418 14.4443L43.3448 14.4397ZM56.68 43.5434C56.76 43.5034 56.95 43.3734 56.95 43.1034H56.94V25.0634C56.94 24.6734 56.75 24.2934 56.42 24.0734L44 15.5734V34.9334C44 35.1034 44.08 35.2634 44.22 35.3534L47.04 37.1434C47.27 37.2934 47.47 37.2034 47.55 37.1634C47.63 37.1234 47.81 36.9934 47.81 36.7234V24.6634C47.81 24.0934 48.12 23.5834 48.63 23.3234C48.84 23.2134 49.08 23.1634 49.31 23.1634C49.62 23.1634 49.93 23.2634 50.19 23.4534L53.15 25.6034C53.8 26.0734 54.18 26.8234 54.18 27.6234V41.9034C54.18 42.0634 54.27 42.2234 54.4 42.3134L56.16 43.5134C56.32 43.6234 56.51 43.6334 56.68 43.5434ZM37.04 41.1434C36.39 41.1434 35.86 41.3934 35.46 41.9034L35.43 41.2434H34.58V46.5234H35.48V42.7634C35.6 42.5134 35.78 42.3034 36 42.1434C36.22 41.9834 36.48 41.9134 36.77 41.9134C37.13 41.9134 37.4 42.0034 37.57 42.1834C37.74 42.3634 37.83 42.6434 37.83 43.0234V46.5234H38.73V43.0334C38.72 41.7734 38.16 41.1434 37.04 41.1434ZM41.96 41.1535C42.58 41.1535 43.07 41.3635 43.43 41.7835V39.0435H44.33V46.5435H43.5L43.46 45.9735C43.1 46.4135 42.59 46.6335 41.95 46.6335C41.33 46.6335 40.83 46.3835 40.45 45.8835C40.06 45.3835 39.87 44.7335 39.87 43.9235V43.8535C39.87 43.0335 40.06 42.3835 40.45 41.8935C40.84 41.4035 41.34 41.1535 41.96 41.1535ZM42.18 45.8535C42.75 45.8535 43.17 45.5935 43.43 45.0835H43.44V42.6535C43.16 42.1535 42.75 41.9035 42.19 41.9035C41.74 41.9035 41.4 42.0735 41.15 42.4135C40.9 42.7535 40.78 43.2635 40.78 43.9335C40.78 44.5335 40.9 45.0035 41.15 45.3435C41.4 45.6835 41.74 45.8535 42.18 45.8535ZM33.47 35.1334C33.47 33.9134 33.05 32.8934 32.22 32.0834C31.4 31.2834 30.19 30.8834 28.64 30.8834C27.85 30.8834 27.15 31.0134 26.56 31.2734C25.96 31.5434 25.46 31.9434 25.09 32.4534C24.72 32.9634 24.49 33.4934 24.39 34.0334C24.34 34.2934 24.31 34.9334 24.27 35.9534C24.26 36.2434 24.37 36.5234 24.57 36.7234C24.77 36.9334 25.05 37.0434 25.34 37.0434H27.4C27.99 37.0434 28.47 36.5634 28.47 35.9734V35.1734C28.47 34.4093 28.5756 34.2018 28.5893 34.1749L28.59 34.1734C28.62 34.1234 28.65 34.0834 28.78 34.0834C28.9157 34.0834 28.9532 34.1243 28.9739 34.1469L28.98 34.1534C29.01 34.2034 29.09 34.3534 29.09 34.7434C29.09 35.0434 28.98 35.6134 28.48 36.6534C28.05 37.5334 26.69 39.8634 24.42 43.5734C24.32 43.7434 24.26 43.9334 24.26 44.1334V45.4534C24.26 46.0434 24.74 46.5234 25.33 46.5234H32.09C32.68 46.5234 33.16 46.0434 33.16 45.4534V44.1434C33.16 43.5534 32.68 43.0734 32.09 43.0734H29.79L29.74 42.9634C31.43 40.4334 32.44 38.7934 32.82 37.9334C33.24 36.9634 33.47 36.0234 33.47 35.1334ZM31.89 37.5334C31.53 38.3234 30.52 39.9734 28.89 42.4134C28.67 42.7434 28.65 43.1634 28.84 43.5134C29.03 43.8634 29.39 44.0734 29.78 44.0734H32.08C32.12 44.0734 32.15 44.1034 32.15 44.1434L32.08 45.5234L25.25 45.4534L25.26 44.0934C27.58 40.3034 28.92 38.0134 29.37 37.0934C29.85 36.1034 30.08 35.3434 30.08 34.7534C30.08 34.2534 29.99 33.8734 29.79 33.5934C29.63 33.3634 29.32 33.0934 28.77 33.0934C28.33 33.0934 27.96 33.2934 27.74 33.6434C27.55 33.9434 27.46 34.4334 27.46 35.1834L27.39 36.0534L25.26 35.9834C25.3 34.6734 25.34 34.3034 25.36 34.2134C25.43 33.8234 25.61 33.4334 25.89 33.0434C26.16 32.6634 26.51 32.3834 26.96 32.1834C27.41 31.9834 27.98 31.8834 28.63 31.8834C29.92 31.8834 30.89 32.1934 31.52 32.8034C32.16 33.4234 32.46 34.1834 32.46 35.1334C32.47 35.8734 32.27 36.6834 31.89 37.5334ZM30.04 58.1034H31.32C31.91 58.1034 32.39 58.5834 32.39 59.1734V72.4134C32.39 73.0034 31.91 73.4834 31.32 73.4834H28.87C28.28 73.4834 27.8 73.0034 27.8 72.4134V65.2734C27.8 63.8234 27.75 63.4634 27.73 63.3834C27.72 63.3434 27.7 63.2734 27.56 63.2034C27.5631 63.2095 27.5464 63.2072 27.4918 63.1996C27.3684 63.1824 27.0512 63.1381 26.33 63.1034C25.77 63.0734 25.32 62.6034 25.32 62.0334V61.3434C25.32 60.8634 25.66 60.4434 26.13 60.3134C27.45 59.9734 28.49 59.3534 29.23 58.4834C29.44 58.2434 29.73 58.1034 30.04 58.1034ZM28.8 72.4134L31.32 72.4834L31.38 59.1734C31.38 59.1334 31.35 59.1034 31.31 59.1034H30.03C29.11 60.1634 27.89 60.8834 26.38 61.2834L26.32 62.0334C27.7103 62.1714 27.8853 62.2511 27.9954 62.3013L28 62.3034C28.48 62.5334 28.65 62.8934 28.71 63.1534C28.75 63.3334 28.8 63.7434 28.8 65.2734V72.4134ZM37.73 70.5734C37.45 70.4334 37.08 70.3134 36.63 70.2134C36.18 70.1134 35.87 70.0034 35.69 69.8934C35.52 69.7834 35.43 69.6134 35.43 69.4034C35.43 69.1734 35.52 68.9834 35.71 68.8434C35.9 68.7034 36.15 68.6334 36.48 68.6334C36.8 68.6334 37.06 68.7234 37.27 68.9034C37.48 69.0834 37.59 69.2934 37.59 69.5434H38.5C38.5 69.0634 38.31 68.6634 37.94 68.3534C37.57 68.0434 37.08 67.8934 36.48 67.8934C35.91 67.8934 35.44 68.0434 35.08 68.3434C34.71 68.6434 34.53 69.0134 34.53 69.4434C34.53 69.7034 34.59 69.9234 34.72 70.1134C34.85 70.3034 35.05 70.4634 35.32 70.6034C35.59 70.7434 35.95 70.8534 36.41 70.9534C36.87 71.0534 37.19 71.1634 37.37 71.3034C37.55 71.4434 37.65 71.6334 37.65 71.8734C37.65 72.1034 37.55 72.2934 37.34 72.4234C37.13 72.5634 36.86 72.6334 36.52 72.6334C36.15 72.6334 35.85 72.5434 35.62 72.3634C35.39 72.1834 35.27 71.9434 35.26 71.6434H34.36C34.36 71.9534 34.45 72.2434 34.64 72.5134C34.82 72.7834 35.08 72.9934 35.4 73.1434C35.73 73.2934 36.1 73.3634 36.52 73.3634C37.12 73.3634 37.61 73.2234 37.99 72.9334C38.37 72.6534 38.56 72.2734 38.56 71.8034C38.56 71.5234 38.49 71.2834 38.36 71.0834C38.22 70.8834 38.01 70.7134 37.73 70.5734ZM40.96 71.9534C40.96 72.1734 41 72.3234 41.09 72.4334C41.18 72.5434 41.33 72.5934 41.54 72.5934C41.65 72.5934 41.79 72.5734 41.97 72.5334V73.2634C41.74 73.3334 41.5 73.3634 41.28 73.3634C40.88 73.3634 40.58 73.2334 40.37 72.9934C40.16 72.7534 40.06 72.4034 40.06 71.9534V68.6734H39.1V67.9734H40.06V66.6934H40.96V67.9734H41.95V68.6734H40.96V71.9534Z" fill="#090909"/>
</svg>
