<svg width="140" height="141" viewBox="0 0 140 141" fill="none" xmlns="http://www.w3.org/2000/svg">
<path fill-rule="evenodd" clip-rule="evenodd" d="M140 33.65V72.07C140 74.13 138.58 75.92 136.59 76.42L138.03 77.34C139.27 78.18 140 79.57 140 81.06V119.49C140 121.64 138.47 123.5 136.36 123.91L55.4 139.74C54.49 139.92 53.57 140.01 52.65 140.01C49.74 140.01 46.86 139.13 44.44 137.48L2.83 109.04C1.06 107.82 0 105.82 0 103.67V68.3C0 66.15 1.53 64.29 3.64 63.88L5.59 63.5L2.83 61.62C1.06 60.4 0 58.4 0 56.25V20.88C0 18.74 1.53 16.88 3.64 16.47L87.06 0.159992C89.27 -0.270008 91.62 0.209992 93.48 1.47999L138.03 29.93C139.27 30.77 140 32.16 140 33.65ZM139 119.48V81.06C139 79.9 138.43 78.82 137.49 78.17L135.21 76.71L128.21 78.08L132.18 80.46C133.16 81.13 133.73 82.21 133.73 83.37V115.37C133.73 117.04 132.54 118.48 130.9 118.8L108.28 123.61C108.18 123.63 108.08 123.64 107.98 123.64C107.63 123.64 107.3 123.52 107.03 123.3C106.68 123.01 106.48 122.59 106.48 122.14V88.29C106.48 87.47 106.07 86.7 105.39 86.23L101.09 83.37L94.46 84.67L99.68 88.24C100.63 88.89 101.2 89.97 101.2 91.13V124.3C101.2 124.86 100.89 125.37 100.4 125.63C100.18 125.74 99.94 125.8 99.7 125.8C99.4 125.8 99.1 125.71 98.85 125.54L94.68 122.69C94 122.23 93.59 121.46 93.59 120.63V94.85C93.59 94.35 93.35 93.89 92.94 93.61L85.91 88.49C85.7 88.35 85.49 88.43 85.41 88.47C85.33 88.51 85.14 88.64 85.14 88.91V113.01C85.14 113.57 84.83 114.08 84.34 114.34C83.84 114.6 83.25 114.56 82.79 114.25L76.76 110.44C76.07 109.97 75.66 109.2 75.66 108.37V91.66L8.59 105.55C8.43 105.58 8.26 105.6 8.1 105.6C7.52 105.6 6.96 105.4 6.51 105.03C5.93 104.55 5.6 103.85 5.6 103.1V71.11C5.6 69.92 6.45 68.89 7.62 68.66L11.86 67.79L6.75 64.29L3.83 64.86C2.19 65.19 1 66.63 1 68.3V103.66C1 105.48 1.9 107.17 3.4 108.2L45 136.65C47.97 138.67 51.69 139.44 55.21 138.75L136.17 122.92C137.81 122.59 139 121.15 139 119.48ZM37.75 85.48L35.21 85.95V88.61C35.21 88.92 35.35 89.22 35.59 89.42C35.84 89.62 36.15 89.7 36.46 89.64L42.25 88.56L37.75 85.48ZM35.21 83.74V84.93L36.58 84.67L35.21 83.74ZM36.26 90.65C35.78 90.65 35.32 90.49 34.95 90.18C34.48 89.79 34.21 89.21 34.21 88.6V83.06L13.01 68.57L7.82 69.64C7.11 69.78 6.6 70.39 6.6 71.11V103.1C6.6 103.55 6.8 103.97 7.15 104.26C7.5 104.54 7.95 104.66 8.39 104.57L75.66 90.63V88.34L55.41 92.3C54.5 92.48 53.58 92.57 52.66 92.57C49.75 92.57 46.87 91.69 44.45 90.04L43.42 89.34L36.64 90.61C36.51 90.64 36.39 90.65 36.26 90.65ZM99.11 89.07L93.08 84.95L76.65 88.16V108.36C76.65 108.86 76.89 109.32 77.3 109.6L83.33 113.41C83.5 113.53 83.69 113.54 83.86 113.45C83.94 113.41 84.13 113.28 84.13 113.01V88.91C84.13 88.35 84.44 87.84 84.93 87.58C85.43 87.32 86.02 87.36 86.48 87.67L93.51 92.79C94.18 93.25 94.59 94.02 94.59 94.85V120.63C94.59 121.13 94.83 121.59 95.24 121.87L99.41 124.72C99.57 124.83 99.76 124.84 99.93 124.75C100.01 124.71 100.2 124.58 100.2 124.31V91.13C100.2 90.31 99.79 89.54 99.11 89.07ZM131.63 81.31L126.73 78.37L114.36 80.78V105.75C115.02 105.94 115.65 106.23 116.22 106.62L132.35 116.67C132.58 116.29 132.72 115.85 132.72 115.38V83.37C132.72 82.55 132.31 81.78 131.63 81.31ZM111.51 106.59L107.48 107.38H107.49V122.15C107.49 122.36 107.6 122.48 107.67 122.54C107.73 122.59 107.88 122.68 108.08 122.64L130.7 117.83C131.06 117.76 131.38 117.61 131.66 117.41L115.69 107.46C114.46 106.62 112.95 106.31 111.51 106.59ZM111.31 105.61C111.99 105.48 112.69 105.46 113.37 105.55H113.38V80.98L102.49 83.11L105.95 85.41C106.91 86.06 107.48 87.14 107.48 88.3V106.36L111.31 105.61ZM126.7 77.35L136.17 75.5C137.81 75.18 139 73.74 139.01 72.07V33.65C139.01 32.49 138.44 31.41 137.48 30.76L92.94 2.31999L92.93 2.30999C91.68 1.44999 90.18 0.999992 88.68 0.999992C88.2 0.999992 87.72 1.03999 87.25 1.13999L3.83 17.45C2.19 17.77 1 19.21 1 20.88V56.25C1 58.07 1.9 59.76 3.4 60.79L45 89.23C47.97 91.25 51.69 92.02 55.21 91.33L126.7 77.35ZM116.53 23.68L132.17 33.05C133.15 33.72 133.72 34.8 133.72 35.96V67.97C133.72 69.64 132.53 71.09 130.89 71.41L108.27 76.22C108.17 76.24 108.07 76.25 107.97 76.25C107.63 76.25 107.29 76.13 107.02 75.91C106.67 75.62 106.47 75.2 106.47 74.75V40.9C106.47 40.08 106.06 39.31 105.38 38.84L91.27 29.46C90.83 29.16 90.62 28.66 90.73 28.14C90.84 27.62 91.23 27.24 91.74 27.14L113.13 22.98C114.3 22.75 115.54 23 116.53 23.68ZM91.84 28.62L105.95 38C106.91 38.65 107.48 39.73 107.49 40.89V58.95L111.32 58.2C112 58.07 112.7 58.05 113.38 58.14V27.62C113.38 27.34 113.6 27.12 113.88 27.12C114.16 27.12 114.38 27.34 114.38 27.62V58.34C115.04 58.53 115.67 58.82 116.24 59.21L132.36 69.26C132.59 68.87 132.73 68.43 132.73 67.96V35.95C132.73 35.13 132.32 34.36 131.64 33.89L116 24.52C115.4 24.11 114.69 23.9 113.99 23.9C113.77 23.9 113.55 23.92 113.33 23.96L91.94 28.12C91.77 28.16 91.73 28.29 91.72 28.34C91.71 28.39 91.7 28.53 91.84 28.62ZM108.07 75.23L130.69 70.42C131.05 70.35 131.37 70.2 131.65 70L115.68 60.05C114.45 59.21 112.94 58.9 111.5 59.18L107.47 59.97V74.74C107.47 74.95 107.58 75.07 107.65 75.13C107.77 75.22 107.92 75.26 108.07 75.23ZM67.66 13.4799L35.86 19.6999C34.9 19.8899 34.2 20.7399 34.2 21.7199V41.1899C34.2 41.7999 34.47 42.3799 34.94 42.7699C35.31 43.0799 35.77 43.2399 36.25 43.2399C36.38 43.2399 36.5 43.2299 36.63 43.1999L68.43 37.2599C69.4 37.0799 70.11 36.2299 70.11 35.2399V15.4999C70.11 14.8799 69.84 14.3099 69.36 13.9199C68.89 13.5199 68.27 13.3699 67.66 13.4799ZM36.06 20.6799L64.12 15.1899V31.2399C64.12 31.7399 63.76 32.1799 63.27 32.2699L35.21 37.5099V21.7099C35.21 21.2099 35.56 20.7799 36.06 20.6799ZM69.11 35.2399C69.11 35.7499 68.75 36.1799 68.25 36.2799L36.45 42.2199C36.14 42.2799 35.83 42.1999 35.58 41.9999C35.34 41.7999 35.2 41.4999 35.2 41.1899V38.5399L63.45 33.2599C64.41 33.0699 65.11 32.2199 65.11 31.2499V14.9999L67.85 14.4599C67.92 14.4499 67.99 14.4399 68.05 14.4399C68.29 14.4399 68.53 14.5199 68.72 14.6799C68.96 14.8799 69.1 15.1799 69.1 15.4899V35.2399H69.11ZM77.43 25.62L99.67 40.83C100.62 41.48 101.2 42.56 101.19 43.72V76.89C101.19 77.45 100.88 77.96 100.39 78.22C100.17 78.33 99.93 78.39 99.69 78.39C99.39 78.39 99.09 78.3 98.84 78.13L94.67 75.28C93.99 74.82 93.58 74.05 93.58 73.22V47.44C93.58 46.94 93.34 46.48 92.93 46.2L85.9 41.08C85.69 40.94 85.48 41.02 85.4 41.06C85.32 41.1 85.13 41.23 85.13 41.5V65.6C85.13 66.16 84.82 66.67 84.33 66.93C83.83 67.19 83.24 67.15 82.78 66.84L76.75 63.03C76.06 62.56 75.65 61.79 75.65 60.96V44.25L8.58001 58.14C7.84001 58.29 7.09001 58.1 6.51001 57.62C5.93001 57.14 5.60001 56.44 5.60001 55.69V23.7C5.60001 22.51 6.45001 21.47 7.62001 21.24L85.61 6.20999C87.05 5.92999 88.56 6.23999 89.77 7.06999L106.98 17.21C107.44 17.52 107.65 18.03 107.54 18.54C107.44 19.05 107.05 19.43 106.54 19.53L77.51 25.6C77.4992 25.6054 77.4854 25.6079 77.4703 25.6106C77.4575 25.6129 77.4438 25.6154 77.43 25.62ZM76.15 25.3C76.15 25.29 76.16 25.28 76.17 25.27C76.46 24.95 76.86 24.71 77.32 24.62L106.35 18.55C106.52 18.51 106.56 18.38 106.57 18.33C106.59 18.28 106.6 18.14 106.46 18.05L89.24 7.90999C88.47 7.37999 87.57 7.10999 86.66 7.10999C86.38 7.10999 86.09 7.12999 85.81 7.18999L7.81001 22.23C7.11001 22.37 6.60001 22.98 6.60001 23.7V55.69C6.60001 56.14 6.80001 56.57 7.15001 56.85C7.50001 57.13 7.95001 57.25 8.39001 57.16L75.66 43.22V26.63C75.66 26.13 75.84 25.66 76.15 25.3ZM99.93 77.34C100.01 77.3 100.2 77.17 100.2 76.9H100.19V43.71C100.19 42.89 99.78 42.12 99.1 41.65L76.69 26.33C76.67 26.42 76.65 26.53 76.65 26.63V60.95C76.65 61.45 76.89 61.91 77.3 62.19L83.33 66C83.57 66.16 83.78 66.08 83.86 66.04C83.94 66 84.13 65.87 84.13 65.6V41.5C84.13 40.94 84.44 40.43 84.93 40.17C85.15 40.06 85.39 40 85.63 40C85.93 40 86.22 40.09 86.48 40.26L93.51 45.38C94.18 45.84 94.59 46.61 94.59 47.44V73.22C94.59 73.72 94.83 74.18 95.24 74.46L99.41 77.31C99.64 77.46 99.85 77.38 99.93 77.34ZM65.58 75.1801C64.86 75.1801 64.28 75.4601 63.84 76.0201L63.81 75.2901H62.87V81.1001H63.86V76.9601C64 76.6801 64.19 76.4601 64.43 76.2801C64.67 76.1101 64.96 76.0201 65.28 76.0201C65.68 76.0201 65.97 76.1201 66.16 76.3201C66.35 76.5201 66.44 76.8301 66.45 77.2501V81.1001H67.44V77.2601C67.42 75.8801 66.8 75.1801 65.58 75.1801ZM70.98 75.18C71.66 75.18 72.2 75.41 72.6 75.88V72.85H73.6V81.1H72.69L72.64 80.48C72.24 80.97 71.69 81.21 70.98 81.21C70.3 81.21 69.75 80.93 69.33 80.38C68.9 79.83 68.69 79.11 68.69 78.22V78.14C68.69 77.25 68.9 76.53 69.32 75.99C69.74 75.45 70.3 75.18 70.98 75.18ZM71.22 80.37C71.85 80.37 72.31 80.09 72.6 79.52V76.85C72.3 76.3 71.85 76.03 71.23 76.03C70.74 76.03 70.36 76.21 70.09 76.59C69.82 76.97 69.68 77.52 69.68 78.26C69.68 78.92 69.82 79.44 70.09 79.81C70.36 80.18 70.74 80.37 71.22 80.37ZM58.75 66.2199C59.5 64.5499 59.88 62.9299 59.88 61.4199C59.88 59.3799 59.18 57.6699 57.8 56.3299C56.42 54.9999 54.39 54.3199 51.76 54.3199C50.41 54.3199 49.24 54.5399 48.26 54.9699C47.27 55.4099 46.45 56.0699 45.82 56.9299C45.21 57.7799 44.81 58.6599 44.65 59.5499C44.57 59.9899 44.5 61.0999 44.45 62.8699C44.44 63.2799 44.59 63.6599 44.87 63.9599C45.16 64.2499 45.54 64.4199 45.95 64.4199H49.58C50.41 64.4199 51.08 63.7499 51.08 62.9199V61.5099C51.08 60.1799 51.25 59.7099 51.35 59.5399C51.49 59.3099 51.69 59.2099 52 59.2099C52.41 59.2099 52.57 59.3699 52.66 59.4999C52.83 59.7499 52.92 60.1799 52.92 60.7499C52.92 61.5599 52.54 62.7499 51.81 64.2699C51.05 65.8299 48.64 69.9299 44.65 76.4799C44.5 76.7199 44.43 76.99 44.43 77.2599V79.5899C44.43 79.9899 44.59 80.3699 44.87 80.6499C45.15 80.9299 45.53 81.0899 45.93 81.0899H57.82C58.65 81.0899 59.32 80.4199 59.32 79.5899V77.2999C59.32 76.4699 58.65 75.7999 57.82 75.7999H53.77C53.5 75.7999 53.38 75.6199 53.33 75.5399C53.24 75.3699 53.25 75.1799 53.35 75.0199C56.32 70.5899 58.09 67.7099 58.75 66.2199ZM52.46 76.0099C52.72 76.4999 53.23 76.7999 53.78 76.7999H57.83C58.11 76.7999 58.33 77.02 58.33 77.2999V79.6099C58.33 79.8899 58.11 80.1099 57.83 80.1099H45.93C45.8 80.1099 45.67 80.0599 45.58 79.9599C45.49 79.8699 45.43 79.7399 45.43 79.6099V77.2799C45.43 77.1899 45.46 77.0999 45.51 77.0099C49.58 70.3499 51.94 66.3299 52.72 64.7199C53.54 63.0399 53.93 61.7399 53.93 60.7599C53.93 59.9599 53.79 59.3599 53.49 58.9399C53.26 58.6099 52.82 58.2199 52.01 58.2199C51.36 58.2199 50.84 58.4999 50.51 59.0199C50.22 59.4899 50.08 60.2799 50.08 61.5199V62.9299C50.08 63.2099 49.86 63.4299 49.58 63.4299H45.95C45.81 63.4299 45.68 63.3799 45.59 63.2799C45.5 63.1799 45.45 63.0499 45.45 62.9199C45.5 61.2499 45.57 60.1199 45.63 59.7499C45.76 59.0099 46.09 58.2699 46.62 57.5399C47.14 56.8199 47.82 56.2799 48.65 55.9099C49.5 55.5299 50.54 55.3399 51.74 55.3399C54.1 55.3399 55.9 55.9199 57.09 57.0699C58.29 58.2299 58.87 59.6599 58.87 61.4399C58.87 62.8099 58.52 64.2899 57.83 65.8299C57.19 67.2499 55.41 70.16 52.52 74.4799C52.23 74.92 52.2 75.52 52.46 76.0099ZM54.24 102.23H56.49C57.32 102.23 57.99 102.9 57.98 103.73V127.03C57.98 127.86 57.31 128.53 56.48 128.53H52.17C51.34 128.53 50.67 127.86 50.67 127.03V114.47C50.67 111.96 50.59 111.25 50.54 111.05C50.51 110.9 50.41 110.67 50.04 110.49C50.0379 110.49 50.0325 110.489 50.0223 110.487C49.9341 110.467 49.4877 110.37 47.74 110.28C46.95 110.24 46.32 109.58 46.32 108.78V107.57C46.32 106.89 46.79 106.3 47.46 106.12C49.85 105.49 51.75 104.36 53.1 102.77C53.39 102.43 53.81 102.23 54.24 102.23ZM56.49 127.52C56.77 127.52 56.99 127.3 56.99 127.02V103.72C56.99 103.44 56.77 103.22 56.49 103.22H54.24C54.1 103.22 53.96 103.29 53.86 103.41C52.37 105.16 50.3 106.39 47.71 107.08C47.48 107.14 47.32 107.33 47.32 107.56V108.77C47.32 109.04 47.53 109.26 47.8 109.27C50.0549 109.379 50.3536 109.517 50.4856 109.578L50.49 109.58C51.04 109.84 51.4 110.27 51.53 110.81C51.59 111.09 51.68 111.77 51.68 114.46V127.02C51.68 127.3 51.9 127.52 52.18 127.52H56.49ZM65.23 125.56C64.92 125.41 64.52 125.27 64.02 125.16C63.52 125.05 63.18 124.93 62.99 124.81C62.8 124.69 62.71 124.51 62.71 124.27C62.71 124.02 62.81 123.81 63.02 123.65C63.22 123.49 63.51 123.41 63.87 123.41C64.22 123.41 64.51 123.51 64.74 123.7C64.97 123.9 65.09 124.13 65.09 124.4H66.09C66.09 123.87 65.88 123.44 65.47 123.09C65.06 122.75 64.53 122.58 63.87 122.58C63.24 122.58 62.73 122.74 62.33 123.07C61.93 123.4 61.73 123.8 61.73 124.28C61.73 124.57 61.8 124.81 61.94 125.02C62.08 125.23 62.3 125.41 62.6 125.56C62.9 125.71 63.3 125.84 63.8 125.95C64.3 126.06 64.66 126.19 64.86 126.33C65.06 126.48 65.16 126.69 65.16 126.95C65.16 127.2 65.05 127.41 64.82 127.56C64.59 127.71 64.29 127.79 63.91 127.79C63.5 127.79 63.17 127.69 62.92 127.5C62.67 127.3 62.54 127.04 62.52 126.71H61.53C61.53 127.05 61.63 127.37 61.83 127.67C62.03 127.97 62.31 128.2 62.67 128.36C63.03 128.52 63.44 128.61 63.91 128.61C64.57 128.61 65.11 128.45 65.53 128.14C65.95 127.83 66.15 127.41 66.15 126.89C66.15 126.58 66.08 126.31 65.93 126.1C65.77 125.9 65.54 125.71 65.23 125.56ZM68.78 127.09C68.78 127.32 68.83 127.49 68.93 127.61C69.03 127.72 69.19 127.78 69.42 127.77C69.53 127.77 69.69 127.75 69.89 127.71V128.51C69.63 128.58 69.38 128.62 69.13 128.62C68.69 128.62 68.35 128.49 68.13 128.22C67.9 127.96 67.79 127.57 67.79 127.08V123.48H66.73V122.71H67.79V121.3H68.78V122.71H69.87V123.48H68.78V127.09Z" fill="black"/>
</svg>
