<svg width="140" height="140" viewBox="0 0 140 140" fill="none" xmlns="http://www.w3.org/2000/svg">
<path fill-rule="evenodd" clip-rule="evenodd" d="M113.764 95.4032H120.763C122.822 95.4032 124.492 93.7233 124.492 91.6634V61.1256C124.492 59.4257 123.112 58.0358 121.403 58.0358H119.143V8.10942H122.992C124.372 8.10942 125.492 6.9895 125.492 5.6096V2.49982C125.492 1.11992 124.372 0 122.992 0H17.0076C15.6278 0 14.5079 1.11992 14.5079 2.49982V5.6096C14.5079 6.9895 15.6278 8.10942 17.0076 8.10942H20.857V58.0358H18.5974C16.8976 58.0358 15.5078 59.4257 15.5078 61.1256V91.6634C15.5078 93.7233 17.1876 95.4032 19.2373 95.4032H26.2363C26.3662 96.3131 26.6162 97.213 27.0062 98.093C28.6059 101.673 32.0354 103.903 35.9549 103.903H43.9137V133.3C43.9137 136.99 46.9133 140 50.6128 140H89.3872C93.0767 140 96.0863 137 96.0863 133.3V103.903H104.045C107.965 103.903 111.394 101.673 112.994 98.093C113.384 97.213 113.644 96.3031 113.764 95.4032ZM123.492 61.1256V91.6634C123.492 93.1733 122.263 94.4032 120.763 94.4032H113.834C113.924 91.9334 113.074 89.4936 111.334 87.5537L107.285 83.0441H112.964V87.9437C112.964 88.2237 113.184 88.4437 113.464 88.4437C113.744 88.4437 113.964 88.2237 113.964 87.9437V61.1256C113.964 59.9757 114.904 59.0358 116.053 59.0358H121.423C122.563 59.0358 123.492 59.9757 123.492 61.1256ZM15.5078 5.6096V2.49982C15.5078 1.66988 16.1777 0.999928 17.0076 0.999928H122.992C123.822 0.999928 124.492 1.66988 124.492 2.49982V5.6096C124.492 6.43954 123.822 7.10949 122.992 7.10949H17.0076C16.1777 7.10949 15.5078 6.43954 15.5078 5.6096ZM21.8469 8.10942H118.153V58.0358H116.043C114.344 58.0358 112.954 59.4257 112.954 61.1256V82.0441H106.385L100.986 76.0346H105.275C107.335 76.0346 109.014 74.3547 109.014 72.3048V45.6667H110.844C111.124 45.6667 111.344 45.4467 111.344 45.1668V16.5288C111.344 15.1489 110.144 14.029 108.664 14.029H103.855C102.375 14.029 101.176 15.1489 101.176 16.5288V24.2783C100.716 23.9283 100.136 23.7083 99.4958 23.7083H94.6765C93.1967 23.7083 91.9969 24.8282 91.9969 26.2081V32.6577C91.5769 32.3377 91.067 32.1477 90.4971 32.1477H85.3278C83.948 32.1477 82.8282 33.2676 82.8282 34.6475V45.1668C82.8282 45.4467 83.0482 45.6667 83.3281 45.6667H92.4968H97.4661V62.6655H89.3173C85.5978 58.2758 84.068 57.3959 80.2685 57.2159L78.8887 38.5072C78.7488 36.5574 77.099 35.0175 75.1393 35.0175H64.8607C62.901 35.0175 61.2513 36.5474 61.1113 38.5072L59.7315 57.2159C55.932 57.3859 54.4022 58.2758 50.6828 62.6655H42.5339V41.757C42.5339 40.0571 41.1441 38.6672 39.4444 38.6672H34.0751C32.3754 38.6672 30.9856 40.0571 30.9856 41.757V72.2948C30.9856 74.3547 32.6653 76.0246 34.7151 76.0246H39.0044L33.6052 82.0341H27.0361V61.1256C27.0361 59.4257 25.6463 58.0358 23.9466 58.0358H21.8369V8.10942H21.8469ZM83.818 44.6668V34.6475C83.818 33.8176 84.4879 33.1476 85.3178 33.1476H90.4871C91.317 33.1476 91.9869 33.8176 91.9869 34.6475V44.6668H83.818ZM92.9867 34.6475V26.2081C92.9867 25.3782 93.7366 24.7082 94.6665 24.7082H99.4858C100.416 24.7082 101.166 25.3782 101.166 26.2081V38.6672H100.556C98.8559 38.6672 97.4661 40.0571 97.4661 41.757V44.6668H92.9967V34.6475H92.9867ZM102.165 26.2081V16.5288C102.165 15.6989 102.915 15.0289 103.845 15.0289H108.655C109.584 15.0289 110.334 15.6989 110.334 16.5288V44.6768H109.004V41.767C109.004 40.0671 107.625 38.6772 105.915 38.6772H102.165V26.2081ZM97.966 69.0751C98.246 69.0751 98.466 68.8551 98.466 68.5751V41.757C98.466 40.6071 99.4058 39.6672 100.556 39.6672H105.925C107.075 39.6672 108.015 40.6071 108.015 41.757V72.2948C108.015 73.8047 106.785 75.0246 105.275 75.0246H100.086C100.086 75.0246 90.897 64.5754 90.1471 63.6654H97.4661V68.5651C97.4661 68.8551 97.6861 69.0751 97.966 69.0751ZM60.7413 57.1859L62.1111 38.5972C62.2211 37.1673 63.421 36.0374 64.8607 36.0374H75.1293C76.5691 36.0374 77.7789 37.1573 77.8789 38.5972L79.2487 57.1859H77.399H62.6011H60.7413ZM39.9143 75.0346H34.7251C33.2153 75.0346 31.9954 73.8047 31.9954 72.3048V41.757C31.9954 40.6071 32.9353 39.6672 34.0851 39.6672H39.4544C40.6042 39.6672 41.5441 40.6071 41.5441 41.757V68.5751C41.5441 68.8551 41.764 69.0751 42.044 69.0751C42.324 69.0751 42.5439 68.8551 42.5439 68.5751V63.6754H49.8629C49.103 64.5754 39.9143 75.0346 39.9143 75.0346ZM19.2373 94.4032C17.7275 94.4032 16.5077 93.1733 16.5077 91.6634V61.1256C16.5077 59.9757 17.4475 59.0358 18.5974 59.0358H23.9666C25.1164 59.0358 26.0563 59.9757 26.0563 61.1256V87.9437C26.0563 88.2237 26.2763 88.4437 26.5562 88.4437C26.8362 88.4437 27.0561 88.2237 27.0561 87.9437V83.0441H32.7353L28.6859 87.5537C26.9462 89.4936 26.0963 91.9334 26.1863 94.4032H19.2373ZM95.0864 133.29C95.0864 136.43 92.5268 138.99 89.3872 138.99H50.6128C47.4732 138.99 44.9136 136.43 44.9136 133.29V103.893H53.9123V130.291C53.9123 133.98 56.9119 136.99 60.6114 136.99H79.3887C83.0781 136.99 86.0877 133.99 86.0877 130.291V103.893H95.0864V133.29ZM85.0879 103.893V130.291C85.0879 133.43 82.5282 135.99 79.3887 135.99H60.6114C57.4718 135.99 54.9122 133.43 54.9122 130.291V103.893H85.0879ZM104.045 102.893H35.9549C32.4354 102.893 29.3558 100.893 27.916 97.673C26.4762 94.4532 27.0561 90.8335 29.4058 88.2137C29.4058 88.2137 50.3628 64.5954 51.2627 63.5255C51.2665 63.5216 51.2689 63.5178 51.2709 63.5146C51.2741 63.5093 51.2765 63.5055 51.2827 63.5055C55.7221 58.1958 56.7319 58.1758 62.5911 58.1758H77.389C83.2581 58.1758 84.258 58.1958 88.6973 63.5055C88.6994 63.5075 88.701 63.5095 88.7024 63.5115L88.7046 63.5152L88.7074 63.5205C88.7098 63.5255 88.7123 63.5305 88.7173 63.5355C89.6172 64.6154 110.574 88.2237 110.574 88.2237C112.924 90.8435 113.504 94.4732 112.064 97.683C110.644 100.903 107.575 102.893 104.045 102.893ZM107.265 94.9832C107.015 94.8732 106.715 94.9832 106.605 95.2332C106.385 95.7332 105.685 96.8932 104.055 96.8932H35.9549C34.3751 96.8932 33.6752 95.8532 33.3952 95.2332C33.2852 94.9832 32.9853 94.8632 32.7353 94.9832C32.4854 95.0932 32.3654 95.3932 32.4854 95.6432C32.7853 96.3232 33.7352 97.8932 35.9549 97.8932H104.055C106.285 97.8932 107.225 96.3232 107.525 95.6432C107.625 95.3932 107.515 95.1032 107.265 94.9832ZM11.5484 101.413H20.3771C24.9364 101.413 28.6459 105.113 28.6359 109.662V111.672C28.6359 113.382 27.2461 114.762 25.5464 114.762H17.3775V125.301C17.3775 126.681 16.2577 127.801 14.8779 127.801H14.8179V131.271L24.2965 136.04C24.7465 135.48 25.4264 135.11 26.1963 135.11C27.5361 135.11 28.6359 136.2 28.6359 137.55C28.6359 138.9 27.5361 139.99 26.1963 139.99C24.8565 139.99 23.7566 138.9 23.7566 137.55C23.7566 137.34 23.7966 137.13 23.8466 136.93L14.318 132.141L4.78932 136.93C4.83931 137.13 4.8793 137.33 4.8793 137.55C4.8793 138.9 3.77946 139.99 2.43965 139.99C1.09984 139.99 0 138.9 0 137.55C0 136.2 1.08984 135.11 2.43965 135.11C3.20954 135.11 3.88944 135.48 4.33938 136.04L13.818 131.271V127.801H13.758C12.3782 127.801 11.2584 126.681 11.2584 125.301V114.762H3.73947C1.68976 114.762 0.00999857 113.092 0.00999857 111.032V80.4943C0.00999857 78.7944 1.3998 77.4045 3.09956 77.4045H8.45879C10.1585 77.4045 11.5484 78.7944 11.5484 80.4943V101.413ZM1.00986 137.55C1.00986 138.34 1.65976 138.99 2.44965 138.99C3.24954 138.99 3.88944 138.34 3.88944 137.55C3.88944 136.76 3.23954 136.11 2.44965 136.11C1.65976 136.11 1.00986 136.76 1.00986 137.55ZM27.6461 137.55C27.6461 136.76 26.9961 136.11 26.2063 136.11C25.4064 136.11 24.7565 136.75 24.7665 137.55C24.7665 138.34 25.4164 138.99 26.2063 138.99C26.9961 138.99 27.6461 138.34 27.6461 137.55ZM14.8879 126.801C15.7178 126.801 16.3877 126.131 16.3877 125.301V114.762H12.2582V125.301C12.2582 126.131 12.9282 126.801 13.758 126.801H14.8879ZM25.5563 113.772C26.7062 113.772 27.6461 112.832 27.6461 111.682V109.672C27.6461 105.672 24.3965 102.413 20.3871 102.413H11.5583V107.312C11.5583 107.592 11.3384 107.812 11.0584 107.812C10.7785 107.812 10.5585 107.592 10.5585 107.312V80.4943C10.5585 79.3444 9.61863 78.4044 8.46879 78.4044H3.09956C1.94972 78.4044 1.00986 79.3444 1.00986 80.4943V111.042C1.00986 112.542 2.22968 113.772 3.73947 113.772H25.5563ZM126.242 127.801C127.622 127.801 128.742 126.681 128.742 125.301V114.762H136.261C138.32 114.762 140 113.082 140 111.032V80.4943C140 78.7944 138.62 77.4045 136.91 77.4045H131.541C129.841 77.4045 128.452 78.7944 128.452 80.4943V101.413H119.623C115.064 101.413 111.364 105.123 111.364 109.672V111.682C111.364 113.382 112.744 114.772 114.454 114.772H122.622V125.311C122.622 126.691 123.742 127.811 125.122 127.811H125.182V131.281L115.703 136.05C115.254 135.49 114.574 135.12 113.804 135.12C112.454 135.12 111.364 136.21 111.364 137.56C111.364 138.91 112.454 140 113.804 140C115.154 140 116.243 138.91 116.243 137.56C116.243 137.34 116.203 137.14 116.153 136.94L125.682 132.151L135.211 136.94C135.161 137.14 135.121 137.35 135.121 137.56C135.121 138.91 136.211 140 137.56 140C138.91 140 140 138.91 140 137.56C140 136.21 138.91 135.12 137.56 135.12C136.79 135.12 136.111 135.49 135.661 136.05L126.182 131.281V127.811H126.242V127.801ZM113.794 138.99C113.004 138.99 112.354 138.34 112.354 137.55C112.354 136.76 113.004 136.11 113.794 136.11C114.584 136.11 115.234 136.76 115.234 137.55C115.244 138.34 114.594 138.99 113.794 138.99ZM137.55 136.11C138.34 136.11 138.99 136.76 138.99 137.55C138.99 138.34 138.34 138.99 137.55 138.99C136.76 138.99 136.111 138.34 136.111 137.55C136.111 136.75 136.75 136.11 137.55 136.11ZM112.354 111.682V109.672C112.354 105.662 115.613 102.413 119.613 102.413H128.442V107.312C128.442 107.592 128.662 107.812 128.942 107.812C129.222 107.812 129.442 107.592 129.442 107.312V80.4943C129.442 79.3444 130.381 78.4044 131.531 78.4044H136.9C138.05 78.4044 138.99 79.3444 138.99 80.4943V111.032C138.99 112.542 137.76 113.762 136.251 113.762H114.444C113.294 113.772 112.354 112.832 112.354 111.682ZM123.612 125.301V114.762H127.742V125.301C127.742 126.131 127.072 126.801 126.242 126.801H125.112C124.282 126.801 123.612 126.131 123.612 125.301ZM74.6094 93.2134H65.3907C64.6708 93.2134 63.9809 92.9034 63.5109 92.3634C63.031 91.8235 62.821 91.1035 62.911 90.3936L66.3805 63.8455C66.5405 62.6056 67.6104 61.6656 68.8602 61.6656H71.1299C72.3797 61.6656 73.4495 62.6056 73.6095 63.8455L77.089 90.3936C77.179 91.1035 76.969 91.8235 76.4891 92.3634C76.0092 92.9034 75.3293 93.2134 74.6094 93.2134ZM67.3804 63.9755L63.9009 90.5236C63.8509 90.9435 63.9809 91.3735 64.2708 91.7035C64.5608 92.0235 64.9707 92.2134 65.4007 92.2134H74.6194C75.0493 92.2134 75.4692 92.0235 75.7492 91.7035C76.0392 91.3835 76.1691 90.9535 76.1092 90.5236L72.6296 63.9755C72.5297 63.2255 71.8898 62.6656 71.1399 62.6656H68.8702C68.1203 62.6656 67.4804 63.2355 67.3804 63.9755ZM5.77927 83.4041C5.49927 83.4041 5.27927 83.624 5.27927 83.904V107.312C5.27927 107.592 5.49927 107.812 5.77927 107.812C6.05927 107.812 6.27927 107.592 6.27927 107.312V83.904C6.27927 83.634 6.05927 83.4041 5.77927 83.4041ZM20.7771 64.5354C20.7771 64.2554 20.9971 64.0355 21.2771 64.0355C21.5471 64.0355 21.7771 64.2654 21.7771 64.5354V87.9437C21.7771 88.2237 21.5571 88.4437 21.2771 88.4437C20.9971 88.4437 20.7771 88.2237 20.7771 87.9437V64.5354ZM36.7648 44.6668C36.4848 44.6668 36.2648 44.8868 36.2648 45.1668V68.5751C36.2648 68.8551 36.4848 69.0751 36.7648 69.0751C37.0448 69.0751 37.2648 68.8551 37.2648 68.5751V45.1668C37.2648 44.8968 37.0448 44.6668 36.7648 44.6668ZM134.721 107.312C134.721 107.592 134.501 107.812 134.221 107.812C133.941 107.812 133.721 107.592 133.721 107.312V83.904C133.721 83.624 133.941 83.4041 134.221 83.4041C134.501 83.4041 134.721 83.624 134.721 83.904V107.312ZM118.223 64.5354V87.9437C118.223 88.2237 118.443 88.4437 118.723 88.4437C119.003 88.4437 119.223 88.2237 119.223 87.9437V64.5354C119.223 64.2554 119.003 64.0355 118.723 64.0355C118.443 64.0355 118.223 64.2654 118.223 64.5354ZM103.735 68.5751C103.735 68.8551 103.515 69.0751 103.235 69.0751C102.955 69.0751 102.735 68.8551 102.735 68.5751V45.1668C102.735 44.8868 102.955 44.6668 103.235 44.6668C103.515 44.6668 103.735 44.8868 103.735 45.1668V68.5751ZM42.6239 37.5773H42.8239C43.2738 37.5673 43.7038 37.3673 43.9937 37.0273C44.2937 36.6874 44.4337 36.2374 44.3737 35.7874L43.3038 26.9881C43.2838 26.8081 43.3438 26.6281 43.4738 26.4981C43.6038 26.3681 43.7737 26.3081 43.9637 26.3281L52.7625 27.398C53.2124 27.458 53.6623 27.318 54.0023 27.018C54.3422 26.7181 54.5422 26.2881 54.5522 25.8381C54.6122 21.9684 52.8525 18.3987 49.7229 16.0688C45.4935 12.9091 39.4144 13.009 35.275 16.2988C32.5553 18.4587 30.9556 21.5384 30.7556 24.9782C30.5656 28.368 31.8255 31.6877 34.2251 34.0875C36.4648 36.3374 39.4444 37.5773 42.6239 37.5773ZM31.7455 25.0482C31.9254 21.8984 33.3952 19.0786 35.8849 17.0988C37.8246 15.5489 40.2342 14.7789 42.6439 14.7789C44.9336 14.7789 47.2233 15.4789 49.103 16.8888C51.9726 19.0286 53.5823 22.2884 53.5324 25.8381C53.5324 26.0081 53.4524 26.1681 53.3224 26.2781C53.1924 26.3881 53.0324 26.4381 52.8624 26.4181L44.0637 25.3482C43.5738 25.2882 43.0938 25.4582 42.7539 25.7981C42.4039 26.1481 42.244 26.6281 42.304 27.108L43.3738 35.9074C43.3938 36.0774 43.3438 36.2374 43.2338 36.3674C43.1238 36.4974 42.9639 36.5674 42.7939 36.5674C39.8043 36.6074 37.0147 35.4874 34.915 33.3776C32.7253 31.1877 31.5755 28.148 31.7455 25.0482ZM45.3935 30.1779C45.3336 29.6979 45.4935 29.2179 45.8435 28.8679C46.1834 28.5179 46.6634 28.3579 47.1533 28.4079L55.952 29.4779C56.402 29.5379 56.8019 29.7779 57.0619 30.1479C57.3218 30.5179 57.4118 30.9779 57.3118 31.4179C56.8119 33.5979 55.7121 35.5779 54.1323 37.1579C52.5625 38.7379 50.5728 39.8379 48.3931 40.3379C48.2831 40.3679 48.1632 40.3779 48.0432 40.3779C47.7232 40.3779 47.4033 40.2779 47.1333 40.0879C46.7633 39.8279 46.5134 39.4279 46.4634 38.9779L45.3935 30.1779ZM56.332 31.1979C56.372 31.0279 56.342 30.8679 56.242 30.7279C56.142 30.5879 56.002 30.5079 55.8221 30.4779L47.0233 29.4079H46.9533C46.8033 29.4079 46.6534 29.4679 46.5434 29.5779C46.4134 29.7079 46.3534 29.8879 46.3734 30.0679L47.4432 38.8679C47.4632 39.0279 47.5532 39.1779 47.6932 39.2779C47.8332 39.3679 48.0032 39.4079 48.1631 39.3679C50.1629 38.9079 51.9726 37.9079 53.4224 36.4579C54.8722 35.0079 55.8721 33.1979 56.332 31.1979Z" fill="#090909"/>
</svg>
