<svg width="81" height="80" viewBox="0 0 81 80" fill="none" xmlns="http://www.w3.org/2000/svg">
<path fill-rule="evenodd" clip-rule="evenodd" d="M65.05 54.66H68.85C70.14 54.66 71.19 53.61 71.19 52.32V34.96C71.19 33.87 70.31 32.99 69.22 32.99H68.15V5.04H69.26C70.64 5.04 71.76 3.92 71.76 2.5C71.76 1.12 70.64 0 69.26 0H10.74C9.35999 0 8.23999 1.12 8.23999 2.54C8.23999 3.92 9.35999 5.04 10.74 5.04H11.85V32.99H10.78C9.68999 32.99 8.80999 33.87 8.80999 34.96V52.32C8.80999 53.61 9.85999 54.66 11.15 54.66H14.95C15.03 55.13 15.16 55.6 15.37 56.06C16.31 58.18 18.34 59.49 20.65 59.49H24.96V75.98C24.96 78.2 26.76 80 28.98 80H51.02C53.24 80 55.04 78.2 55.04 75.98V59.49H59.35C61.67 59.49 63.69 58.18 64.63 56.06C64.84 55.6 64.97 55.13 65.05 54.66ZM70.19 34.96V52.32C70.19 53.06 69.59 53.66 68.85 53.66H65.14C65.13 52.28 64.63 50.93 63.65 49.84L61.67 47.64H64.2V50.21C64.2 50.49 64.42 50.71 64.7 50.71C64.98 50.71 65.2 50.49 65.2 50.21V34.96C65.2 34.42 65.64 33.99 66.17 33.99H69.22C69.76 33.99 70.19 34.42 70.19 34.96ZM9.23999 2.5C9.23999 1.67 9.90999 1 10.74 1H69.26C70.09 1 70.76 1.67 70.76 2.54C70.76 3.37 70.09 4.04 69.26 4.04H10.74C9.90999 4.04 9.23999 3.37 9.23999 2.5ZM12.85 5.04H67.16V32.99H66.18C65.09 32.99 64.21 33.87 64.21 34.96V46.63H60.79L58.11 43.64H60.06C61.35 43.64 62.4 42.59 62.4 41.3V26.39H63.23C63.51 26.39 63.73 26.17 63.73 25.89V9.61C63.73 8.71 62.95 7.97 61.99 7.97H59.25C58.29 7.97 57.51 8.7 57.51 9.61V13.64C57.29 13.54 57.04 13.48 56.77 13.48H54.03C53.07 13.48 52.29 14.21 52.29 15.12V18.79C51.87 18.47 51.36 18.28 50.79 18.28H49.58C48.2 18.28 47.08 19.4 47.08 20.78V25.9C47.08 26.18 47.3 26.4 47.58 26.4H52.79H55.4V35.63H51.08C49.03 33.23 48.1 32.67 46.04 32.55L45.27 22.1C45.18 20.88 44.15 19.92 42.92 19.92H37.08C35.85 19.92 34.82 20.88 34.73 22.1L33.96 32.55C31.9 32.68 30.97 33.23 28.92 35.63H24.6V23.95C24.6 22.86 23.72 21.98 22.63 21.98H19.58C18.49 21.98 17.61 22.86 17.61 23.95V41.31C17.61 42.6 18.66 43.65 19.95 43.65H21.9L19.22 46.64H15.8V34.96C15.8 33.87 14.92 32.99 13.83 32.99H12.85V5.04ZM48.07 25.39V20.77C48.07 19.94 48.74 19.27 49.57 19.27H50.78C51.61 19.27 52.28 19.94 52.28 20.77V25.39H48.07ZM53.28 15.11C53.28 14.76 53.61 14.47 54.02 14.47H56.76C57.17 14.47 57.5 14.76 57.5 15.11V21.98H57.37C56.28 21.98 55.4 22.86 55.4 23.95V25.39H53.29V15.11H53.28ZM58.5 9.61C58.5 9.26 58.83 8.97 59.24 8.97H61.98C62.39 8.97 62.72 9.26 62.72 9.61V25.39H62.39V23.95C62.39 22.86 61.51 21.98 60.42 21.98H58.5V9.61ZM55.89 39.69C56.17 39.69 56.39 39.47 56.39 39.19V23.95C56.39 23.41 56.83 22.98 57.36 22.98H60.41C60.95 22.98 61.38 23.42 61.38 23.95V41.31C61.38 42.05 60.78 42.65 60.04 42.65H57.2C57.2 42.65 52.27 37.06 51.91 36.63H55.4V39.2C55.39 39.47 55.62 39.69 55.89 39.69ZM34.97 32.5L35.73 22.17C35.78 21.47 36.38 20.92 37.08 20.92H42.92C43.63 20.92 44.22 21.47 44.27 22.17L45.03 32.5H44.21H35.8H34.97ZM22.8 42.65H19.95C19.21 42.65 18.61 42.05 18.61 41.31V23.95C18.61 23.41 19.05 22.98 19.58 22.98H22.63C23.17 22.98 23.6 23.42 23.6 23.95V39.19C23.6 39.47 23.82 39.69 24.1 39.69C24.38 39.69 24.6 39.47 24.6 39.19V36.62H28.09C27.75 37.05 22.8 42.65 22.8 42.65ZM11.15 53.66C10.41 53.66 9.80999 53.06 9.80999 52.32V34.96C9.80999 34.42 10.25 33.99 10.78 33.99H13.83C14.37 33.99 14.8 34.43 14.8 34.96V50.2C14.8 50.48 15.02 50.7 15.3 50.7C15.58 50.7 15.8 50.48 15.8 50.2V47.63H18.33L16.35 49.83C15.37 50.92 14.87 52.27 14.86 53.65H11.15V53.66ZM54.04 75.98C54.04 77.65 52.68 79 51.02 79H28.98C27.31 79 25.96 77.64 25.96 75.98V59.49H30.64V73.24C30.64 75.46 32.44 77.26 34.66 77.26H45.33C47.55 77.26 49.35 75.46 49.35 73.24V59.49H54.03V75.98H54.04ZM48.36 59.49V73.24C48.36 74.91 47 76.26 45.34 76.26H34.66C32.99 76.26 31.64 74.9 31.64 73.24V59.49H48.36ZM59.35 58.49H20.65C18.73 58.49 17.06 57.4 16.28 55.65C15.5 53.9 15.81 51.93 17.09 50.5C17.09 50.5 29 37.08 29.51 36.47C31.99 33.51 32.55 33.5 35.79 33.5H44.2C47.44 33.5 48 33.51 50.48 36.47V36.48C51 37.09 62.91 50.5 62.91 50.5C64.19 51.92 64.5 53.9 63.72 55.65C62.94 57.4 61.27 58.49 59.35 58.49ZM61.27 54.01C61.02 53.9 60.72 54.01 60.61 54.26C60.48 54.56 60.13 55.07 59.36 55.07H20.65C19.87 55.07 19.53 54.56 19.39 54.26C19.28 54.01 18.98 53.89 18.73 54.01C18.48 54.12 18.36 54.42 18.48 54.67C18.63 55 19.22 56.08 20.65 56.08H59.36C60.79 56.08 61.38 55 61.53 54.67C61.63 54.42 61.52 54.12 61.27 54.01ZM6.99 57.64H11.79C14.5 57.64 16.71 59.84 16.7 62.56V63.7C16.7 64.79 15.82 65.67 14.73 65.67H10.3V71.12C10.3 72.02 9.68 72.78 8.84 73V74.7L13.96 77.27C14.26 76.98 14.66 76.8 15.1 76.8C15.98 76.8 16.7 77.52 16.7 78.4C16.7 79.28 15.98 80 15.1 80C14.22 80 13.5 79.28 13.5 78.4C13.5 78.3281 13.5081 78.2642 13.517 78.194L13.52 78.17L8.35 75.57L3.18 78.17C3.19 78.24 3.2 78.32 3.2 78.4C3.2 79.28 2.48 80 1.6 80C0.72 80 0 79.27 0 78.39C0 77.51 0.72 76.79 1.6 76.79C2.05 76.79 2.45 76.97 2.74 77.26L7.86 74.69V73C7.02 72.78 6.4 72.03 6.4 71.12V65.67H2.34C1.05 65.67 0 64.62 0 63.33V45.97C0 44.88 0.88 44 1.97 44H5.02C6.11 44 6.99 44.88 6.99 45.97V57.64ZM1 78.4C1 78.73 1.27 79 1.6 79C1.94 79 2.21 78.73 2.2 78.4C2.2 78.07 1.93 77.8 1.6 77.8C1.27 77.8 1 78.07 1 78.4ZM15.7 78.39C15.7 78.06 15.43 77.79 15.1 77.79C14.77 77.79 14.5 78.06 14.5 78.39C14.5 78.72 14.77 78.99 15.1 78.99C15.43 78.99 15.7 78.72 15.7 78.39ZM8.35 72.08C8.88 72.08 9.31 71.65 9.31 71.12H9.32V65.67H7.4V71.12C7.4 71.64 7.82 72.08 8.35 72.08ZM14.74 64.66C15.27 64.66 15.71 64.23 15.71 63.69H15.7V62.55C15.7 60.39 13.95 58.64 11.79 58.64H6.99V61.21C6.99 61.49 6.77 61.71 6.49 61.71C6.21 61.71 5.99 61.49 5.99 61.21V45.97C5.99 45.44 5.56 45 5.02 45H1.97C1.44 45 1 45.43 1 45.97V63.33C1 64.06 1.6 64.66 2.34 64.66H14.74ZM73.6 71.12V65.67H77.66C78.95 65.67 80 64.62 80 63.33V45.97C80 44.88 79.12 44 78.03 44H74.98C73.89 44 73.01 44.88 73.01 45.97V57.64H68.21C65.5 57.64 63.3 59.84 63.3 62.55V63.69C63.3 64.78 64.18 65.66 65.27 65.66H69.7V71.11C69.7 72.02 70.32 72.77 71.16 72.99V74.68L66.04 77.25C65.75 76.96 65.35 76.78 64.91 76.78C64.03 76.78 63.31 77.5 63.31 78.38C63.31 79.26 64.03 79.98 64.91 79.98C65.79 79.98 66.51 79.26 66.51 78.38C66.51 78.3 66.5 78.22 66.49 78.15L71.66 75.55L76.83 78.15L76.8269 78.1742C76.8181 78.2444 76.81 78.3082 76.81 78.38C76.81 79.26 77.53 79.98 78.41 79.98C79.29 79.98 80.01 79.26 80.01 78.38C80.01 77.5 79.29 76.78 78.41 76.78C77.97 76.78 77.57 76.96 77.28 77.25L72.16 74.68V73C72.98 72.78 73.6 72.02 73.6 71.12ZM64.9 79C64.57 79 64.3 78.73 64.3 78.4C64.3 78.07 64.57 77.8 64.9 77.8C65.23 77.8 65.5 78.07 65.5 78.4C65.5 78.73 65.23 79 64.9 79ZM78.4 77.79C78.73 77.79 79 78.06 79 78.39C79 78.72 78.73 78.99 78.4 78.99C78.07 78.99 77.8 78.72 77.8 78.39C77.79 78.06 78.06 77.79 78.4 77.79ZM64.29 63.69V62.55C64.29 60.39 66.04 58.64 68.2 58.64H73V61.21C73 61.49 73.22 61.71 73.5 61.71C73.78 61.71 74 61.49 74 61.21V45.97C74 45.43 74.44 45 74.97 45H78.02C78.56 45 78.99 45.44 78.99 45.97V63.33C78.99 64.07 78.39 64.67 77.65 64.67H65.25C64.73 64.66 64.29 64.23 64.29 63.69ZM70.69 71.12V65.67H72.6V71.12C72.6 71.65 72.17 72.08 71.64 72.08C71.11 72.08 70.69 71.64 70.69 71.12ZM42.62 52.41H37.38C36.91 52.41 36.46 52.21 36.14 51.85C35.83 51.5 35.69 51.0301 35.75 50.5601L37.73 36.4701C37.83 35.66 38.53 35.05 39.35 35.05H40.64C41.46 35.05 42.15 35.66 42.26 36.4701L44.24 50.55C44.3 51.03 44.16 51.5 43.85 51.85C43.54 52.21 43.09 52.41 42.62 52.41ZM39.35 36.05C39.03 36.05 38.76 36.28 38.72 36.6L36.75 50.7001C36.72 50.8801 36.78 51.0601 36.9 51.2001C37.02 51.34 37.19 51.42 37.38 51.42H42.62C42.81 51.42 42.98 51.34 43.1 51.2001C43.22 51.0601 43.27 50.8801 43.25 50.7001L41.27 36.6101C41.23 36.2901 40.96 36.05 40.64 36.05H39.35ZM3.5 47.41C3.22 47.41 3 47.63 3 47.91V61.21C3 61.49 3.22 61.71 3.5 61.71C3.78 61.71 4 61.49 4 61.21V47.91C4 47.63 3.77 47.41 3.5 47.41ZM11.8 36.9C11.8 36.62 12.02 36.4 12.3 36.4C12.58 36.4 12.8 36.62 12.8 36.9V50.2C12.8 50.48 12.58 50.7 12.3 50.7C12.02 50.7 11.8 50.48 11.8 50.2V36.9ZM21.11 25.39C20.83 25.39 20.61 25.61 20.61 25.89V39.19C20.61 39.47 20.83 39.69 21.11 39.69C21.39 39.69 21.61 39.47 21.61 39.19V25.89C21.61 25.61 21.39 25.39 21.11 25.39ZM77 61.21C77 61.49 76.78 61.71 76.5 61.71C76.23 61.71 76 61.49 76 61.21V47.91C76 47.63 76.22 47.41 76.5 47.41C76.78 47.41 77 47.63 77 47.91V61.21ZM67.2 36.9V50.2C67.2 50.48 67.42 50.7 67.7 50.7C67.98 50.7 68.2 50.48 68.2 50.2V36.9C68.2 36.62 67.98 36.4 67.7 36.4C67.42 36.4 67.2 36.62 67.2 36.9ZM59.39 39.19C59.39 39.47 59.17 39.69 58.89 39.69C58.61 39.69 58.39 39.47 58.39 39.19V25.89C58.39 25.61 58.61 25.39 58.89 25.39C59.17 25.39 59.39 25.61 59.39 25.89V39.19ZM24.44 21.79H24.56C24.88 21.79 25.18 21.64 25.39 21.41C25.6 21.17 25.7 20.85 25.66 20.54L25.05 15.54C25.0421 15.5003 25.0594 15.4732 25.0719 15.4537C25.0751 15.4487 25.078 15.4441 25.08 15.44C25.1 15.42 25.13 15.4 25.18 15.41L30.18 16.02C30.5 16.06 30.81 15.96 31.05 15.75C31.29 15.54 31.43 15.24 31.43 14.92C31.47 12.65 30.43 10.56 28.6 9.19004C26.12 7.34004 22.55 7.40004 20.13 9.33004C18.56 10.58 17.59 12.43 17.48 14.42C17.37 16.41 18.11 18.35 19.52 19.76C20.83 21.07 22.57 21.79 24.44 21.79ZM18.47 14.46C18.57 12.73 19.38 11.18 20.74 10.1C21.81 9.25005 23.13 8.83004 24.45 8.83004C25.71 8.83004 26.96 9.21004 27.99 9.99004C29.56 11.16 30.45 12.95 30.42 14.9L30.28 15.02L25.28 14.41C24.94 14.37 24.6 14.48 24.35 14.73C24.11 14.97 23.99 15.31 24.03 15.66L24.64 20.66L25.14 20.6L24.53 20.8C22.93 20.82 21.36 20.21 20.21 19.05C19.01 17.83 18.38 16.17 18.47 14.46ZM26.68 17.04C26.89 16.83 27.18 16.74 27.47 16.77L31.15 17.22C31.42 17.25 31.66 17.4 31.82 17.62C31.98 17.84 32.03 18.12 31.97 18.38C31.75 19.34 31.26 20.22 30.56 20.92C29.86 21.62 28.98 22.11 28.02 22.33C27.95 22.34 27.88 22.35 27.81 22.35C27.61 22.35 27.42 22.29 27.26 22.18C27.04 22.02 26.89 21.78 26.86 21.51L26.41 17.83C26.37 17.54 26.47 17.25 26.68 17.04ZM27.85 21.39C28.58 21.18 29.29 20.79 29.86 20.22C30.41 19.66 30.8 18.97 30.98 18.2L27.35 17.76L27.85 21.39Z" fill="#090909"/>
</svg>
