<svg width="16" height="16" viewBox="0 0 16 16" fill="none" xmlns="http://www.w3.org/2000/svg">
<path fill-rule="evenodd" clip-rule="evenodd" d="M12.5 2H15.5C15.78 2 16 2.22 16 2.5V15.5C16 15.78 15.78 16 15.5 16H0.5C0.22 16 0 15.78 0 15.5V2.5C0 2.22 0.22 2 0.5 2H3.5V0.5C3.5 0.22 3.72 0 4 0C4.28 0 4.5 0.22 4.5 0.5V2H7.5V0.5C7.5 0.22 7.72 0 8 0C8.28 0 8.5 0.22 8.5 0.5V2H11.5V0.5C11.5 0.22 11.72 0 12 0C12.28 0 12.5 0.22 12.5 0.5V2ZM1 3V15H15V3H12.5V3.5C12.5 3.78 12.28 4 12 4C11.72 4 11.5 3.78 11.5 3.5V3H8.5V3.5C8.5 3.78 8.28 4 8 4C7.72 4 7.5 3.78 7.5 3.5V3H4.5V3.5C4.5 3.78 4.28 4 4 4C3.72 4 3.5 3.78 3.5 3.5V3H1ZM3 6.5C3 6.22 3.22 6 3.5 6H4.5C4.78 6 5 6.22 5 6.5C5 6.78 4.78 7 4.5 7H3.5C3.22 7 3 6.78 3 6.5ZM3.5 9C3.22 9 3 9.22 3 9.5C3 9.78 3.22 10 3.5 10H4.5C4.78 10 5 9.78 5 9.5C5 9.22 4.78 9 4.5 9H3.5ZM3 12.5C3 12.22 3.22 12 3.5 12H4.5C4.78 12 5 12.22 5 12.5C5 12.78 4.78 13 4.5 13H3.5C3.22 13 3 12.78 3 12.5ZM7.5 9C7.22 9 7 9.22 7 9.5C7 9.78 7.22 10 7.5 10H8.5C8.78 10 9 9.78 9 9.5C9 9.22 8.78 9 8.5 9H7.5ZM11 9.5C11 9.22 11.22 9 11.5 9H12.5C12.78 9 13 9.22 13 9.5C13 9.78 12.78 10 12.5 10H11.5C11.22 10 11 9.78 11 9.5ZM11.5 12C11.22 12 11 12.22 11 12.5C11 12.78 11.22 13 11.5 13H12.5C12.78 13 13 12.78 13 12.5C13 12.22 12.78 12 12.5 12H11.5ZM7 12.5C7 12.22 7.22 12 7.5 12H8.5C8.78 12 9 12.22 9 12.5C9 12.78 8.78 13 8.5 13H7.5C7.22 13 7 12.78 7 12.5ZM7.5 6C7.22 6 7 6.22 7 6.5C7 6.78 7.22 7 7.5 7H8.5C8.78 7 9 6.78 9 6.5C9 6.22 8.78 6 8.5 6H7.5ZM11.5 6H12.5C12.78 6 13 6.22 13 6.5C13 6.78 12.78 7 12.5 7H11.5C11.22 7 11 6.78 11 6.5C11 6.22 11.22 6 11.5 6Z" fill="#090909"/>
</svg>
