<svg width="20" height="18" viewBox="0 0 20 18" fill="none" xmlns="http://www.w3.org/2000/svg">
<path fill-rule="evenodd" clip-rule="evenodd" d="M16 1.5V5.5C18.35 6.48 20 8.8 20 11.5C20 15.08 17.08 18 13.5 18C11.2 18 9.19 16.8 8.03 15H0.5C0.22 15 0 14.78 0 14.5V1.5C0 1.22 0.22 1 0.5 1H3.5V0.5C3.5 0.22 3.72 0 4 0C4.28 0 4.5 0.22 4.5 0.5V1H7.5V0.5C7.5 0.22 7.72 0 8 0C8.28 0 8.5 0.22 8.5 0.5V1H11.5V0.5C11.5 0.22 11.72 0 12 0C12.28 0 12.5 0.22 12.5 0.5V1H15.5C15.78 1 16 1.22 16 1.5ZM1 2V14H7.5C7.18 13.23 7 12.39 7 11.5C7 10.61 7.18 9.77 7.5 9C7.22 9 7 8.78 7 8.5C7 8.22 7.22 8 7.5 8H8.03C8.74 6.89 9.77 6.01 11 5.5C11 5.22 11.22 5 11.5 5H12.5C12.58 5 12.65 5.02 12.71 5.05C12.97 5.02 13.23 5 13.5 5C14.02 5 14.52 5.07 15 5.18V2H12.5V2.5C12.5 2.78 12.28 3 12 3C11.72 3 11.5 2.78 11.5 2.5V2H8.5V2.5C8.5 2.78 8.28 3 8 3C7.72 3 7.5 2.78 7.5 2.5V2H4.5V2.5C4.5 2.78 4.28 3 4 3C3.72 3 3.5 2.78 3.5 2.5V2H1ZM14 16.5V16.97C16.63 16.74 18.74 14.63 18.97 12H18.5C18.22 12 18 11.78 18 11.5C18 11.22 18.22 11 18.5 11H18.97C18.74 8.37 16.63 6.27 14 6.03V6.5C14 6.78 13.78 7 13.5 7C13.22 7 13 6.78 13 6.5V6.03C10.37 6.26 8.26 8.37 8.03 11H8.5C8.78 11 9 11.22 9 11.5C9 11.78 8.78 12 8.5 12H8.03C8.26 14.63 10.37 16.73 13 16.97V16.5C13 16.22 13.22 16 13.5 16C13.78 16 14 16.22 14 16.5ZM3 5.5C3 5.22 3.22 5 3.5 5H4.5C4.78 5 5 5.22 5 5.5C5 5.78 4.78 6 4.5 6H3.5C3.22 6 3 5.78 3 5.5ZM3 8.5C3 8.22 3.22 8 3.5 8H4.5C4.78 8 5 8.22 5 8.5C5 8.78 4.78 9 4.5 9H3.5C3.22 9 3 8.78 3 8.5ZM5 11.5C5 11.22 4.78 11 4.5 11H3.5C3.22 11 3 11.22 3 11.5C3 11.78 3.22 12 3.5 12H4.5C4.78 12 5 11.78 5 11.5ZM9 5.5C9 5.78 8.78 6 8.5 6H7.5C7.22 6 7 5.78 7 5.5C7 5.22 7.22 5 7.5 5H8.5C8.78 5 9 5.22 9 5.5ZM14 10.65V8.5C14 8.22 13.78 8 13.5 8C13.22 8 13 8.22 13 8.5V10.65C12.86 10.74 12.74 10.85 12.65 11H11.5C11.22 11 11 11.22 11 11.5C11 11.78 11.22 12 11.5 12H12.65C12.82 12.29 13.13 12.5 13.5 12.5C14.05 12.5 14.5 12.05 14.5 11.5C14.5 11.13 14.29 10.83 14 10.65Z" fill="#151724"/>
</svg>
