<svg width="14" height="14" viewBox="0 0 14 14" fill="none" xmlns="http://www.w3.org/2000/svg">
<path fill-rule="evenodd" clip-rule="evenodd" d="M7 0C10.86 0 14 3.14 14 7C14 10.86 10.86 14 7 14C3.14 14 0 10.86 0 7C0 3.14 3.14 0 7 0ZM7.5 12.49V12.97C10.41 12.73 12.73 10.41 12.97 7.5H12.5C12.22 7.5 12 7.28 12 7C12 6.73 12.22 6.5 12.49 6.51H12.97C12.73 3.6 10.41 1.27 7.5 1.03V1.5C7.5 1.78 7.28 2 7 2C6.73 2 6.5 1.78 6.5 1.51V1.03C3.59 1.27 1.27 3.59 1.03 6.5H1.5C1.78 6.5 2 6.72 2 7C2 7.28 1.78 7.5 1.51 7.5H1.03C1.27 10.41 3.59 12.73 6.5 12.97V12.5C6.5 12.22 6.72 12 7 12C7.27 12 7.5 12.22 7.5 12.49ZM7.5 3.5V6.15C7.8 6.33 8 6.63 8 7C8 7.55 7.55 8 7 8C6.64 8 6.33 7.79 6.16 7.5H4.5C4.22 7.5 4 7.28 4 7C4 6.72 4.22 6.5 4.5 6.5H6.16C6.24 6.36 6.36 6.24 6.5 6.16V3.5C6.5 3.22 6.72 3 7 3C7.28 3 7.5 3.22 7.5 3.5Z" fill="#090909"/>
</svg>
