<svg width="16" height="16" viewBox="0 0 16 16" fill="none" xmlns="http://www.w3.org/2000/svg">
<path fill-rule="evenodd" clip-rule="evenodd" d="M12.5 2H15.5C15.78 2 16 2.22 16 2.5V15.5C16 15.78 15.78 16 15.5 16H0.5C0.22 16 0 15.78 0 15.5V2.5C0 2.22 0.22 2 0.5 2H3.5V0.5C3.5 0.22 3.72 0 4 0C4.28 0 4.5 0.22 4.5 0.5V2H7.5V0.5C7.5 0.22 7.72 0 8 0C8.28 0 8.5 0.22 8.5 0.5V2H11.5V0.5C11.5 0.22 11.72 0 12 0C12.28 0 12.5 0.22 12.5 0.5V2ZM1 3V15H15V3H12.5V3.5C12.5 3.78 12.28 4 12 4C11.72 4 11.5 3.78 11.5 3.5V3H8.5V3.5C8.5 3.78 8.28 4 8 4C7.72 4 7.5 3.78 7.5 3.5V3H4.5V3.5C4.5 3.78 4.28 4 4 4C3.72 4 3.5 3.78 3.5 3.5V3H1ZM7 8C7 9.10457 6.10457 10 5 10C3.89543 10 3 9.10457 3 8C3 6.89543 3.89543 6 5 6C6.10457 6 7 6.89543 7 8Z" fill="#090909"/>
</svg>
