<svg width="14" height="16" viewBox="0 0 14 16" fill="none" xmlns="http://www.w3.org/2000/svg">
<path fill-rule="evenodd" clip-rule="evenodd" d="M13.85 4.15L9.85 0.15C9.76 0.05 9.63 0 9.5 0H3.5C3.22 0 3 0.22 3 0.5V2H0.5C0.22 2 0 2.22 0 2.5V15.5C0 15.78 0.22 16 0.5 16H10.5C10.78 16 11 15.78 11 15.5V14H13.5C13.78 14 14 13.78 14 13.5V4.5C14 4.37 13.95 4.24 13.85 4.15ZM10 1.71L12.29 4H10V1.71ZM1 15V3H3V13.5C3 13.78 3.22 14 3.5 14H10V15H1ZM4 13V1H9V4.5C9 4.78 9.22 5 9.5 5H13V13H4ZM11.5 8H5.5C5.22 8 5 8.22 5 8.5C5 8.78 5.22 9 5.5 9H11.5C11.78 9 12 8.78 12 8.5C12 8.22 11.78 8 11.5 8ZM7.5 7H5.5C5.22 7 5 6.78 5 6.5C5 6.22 5.22 6 5.5 6H7.5C7.78 6 8 6.22 8 6.5C8 6.78 7.78 7 7.5 7ZM5.5 5H7.5C7.78 5 8 4.78 8 4.5C8 4.22 7.78 4 7.5 4H5.5C5.22 4 5 4.22 5 4.5C5 4.78 5.22 5 5.5 5ZM5.5 10H11.5C11.78 10 12 10.22 12 10.5C12 10.78 11.78 11 11.5 11H5.5C5.22 11 5 10.78 5 10.5C5 10.22 5.22 10 5.5 10Z" fill="#090909"/>
</svg>
