<svg width="21" height="20" viewBox="0 0 21 20" fill="none" xmlns="http://www.w3.org/2000/svg">
<path fill-rule="evenodd" clip-rule="evenodd" d="M1.5 3C0.67 3 0 2.33 0 1.5C0 0.67 0.67 0 1.5 0C2.33 0 3 0.67 3 1.5C3 2.33 2.33 3 1.5 3ZM1.5 1C1.22 1 1 1.22 1 1.5C1 1.78 1.22 2 1.5 2C1.78 2 2 1.78 2 1.5C2 1.22 1.78 1 1.5 1ZM15.5 2H4.5C4.22 2 4 1.78 4 1.5C4 1.22 4.22 1 4.5 1H15.5C15.78 1 16 1.22 16 1.5C16 1.78 15.78 2 15.5 2ZM4.5 7H15.5C15.78 7 16 6.78 16 6.5C16 6.22 15.78 6 15.5 6H4.5C4.22 6 4 6.22 4 6.5C4 6.78 4.22 7 4.5 7ZM1.5 8C0.67 8 0 7.33 0 6.5C0 5.67 0.67 5 1.5 5C2.33 5 3 5.67 3 6.5C3 7.33 2.33 8 1.5 8ZM1.5 6C1.22 6 1 6.22 1 6.5C1 6.78 1.22 7 1.5 7C1.78 7 2 6.78 2 6.5C2 6.22 1.78 6 1.5 6ZM4.5 12H7.45C7.72 12 7.95 11.78 7.95 11.5C7.95 11.22 7.73 11 7.45 11H4.5C4.22 11 4 11.22 4 11.5C4 11.78 4.22 12 4.5 12ZM1.5 13C0.67 13 0 12.33 0 11.5C0 10.67 0.67 10 1.5 10C2.33 10 3 10.67 3 11.5C3 12.33 2.33 13 1.5 13ZM1.5 11C1.22 11 1 11.22 1 11.5C1 11.78 1.22 12 1.5 12C1.78 12 2 11.78 2 11.5C2 11.22 1.78 11 1.5 11ZM7.04 15.7C8.21 18.31 10.74 20 13.5 20C16.26 20 18.79 18.31 19.96 15.7C20.02 15.57 20.02 15.42 19.96 15.29C18.79 12.68 16.26 10.99 13.5 10.99C10.74 10.99 8.2 12.68 7.04 15.29C6.98 15.42 6.98 15.57 7.04 15.7ZM13.5 19C11.21 19 9.09 17.63 8.05 15.5C9.09 13.37 11.21 12 13.5 12C15.79 12 17.91 13.37 18.95 15.5C17.91 17.63 15.79 19 13.5 19ZM13.5 18C12.12 18 11 16.88 11 15.5C11 15.22 11.22 15 11.5 15C11.78 15 12 15.22 12 15.5C12 16.33 12.67 17 13.5 17C14.33 17 15 16.33 15 15.5C15 14.67 14.33 14 13.5 14C13.22 14 13 13.78 13 13.5C13 13.22 13.22 13 13.5 13C14.88 13 16 14.12 16 15.5C16 16.88 14.88 18 13.5 18ZM14 15.5C14 15.7761 13.7761 16 13.5 16C13.2239 16 13 15.7761 13 15.5C13 15.2239 13.2239 15 13.5 15C13.7761 15 14 15.2239 14 15.5Z" fill="#090909"/>
</svg>
