<svg width="44" height="44" viewBox="0 0 44 44" fill="none" xmlns="http://www.w3.org/2000/svg">
<path d="M41.35 2.79H39.7V2C39.7 0.9 38.8 0 37.7 0H37.47C36.37 0 35.47 0.9 35.47 2V2.79H29.3V2C29.3 0.9 28.4 0 27.3 0H27.07C25.97 0 25.07 0.9 25.07 2V2.79H18.9V2C18.9 0.9 18 0 16.9 0H16.68C15.58 0 14.68 0.9 14.68 2V2.79H8.52V2C8.52 0.9 7.62 0 6.52 0H6.3C5.2 0 4.3 0.9 4.3 2V2.79H2.65C1.19 2.79 0 3.97 0 5.44V41.35C0 42.81 1.19 44 2.65 44H41.35C42.81 44 44 42.81 44 41.35V5.44C44 3.97 42.81 2.79 41.35 2.79ZM36.47 2C36.47 1.45 36.92 1 37.47 1H37.7C38.25 1 38.7 1.45 38.7 2V6.52C38.7 7.07 38.25 7.52 37.7 7.52H37.47C36.92 7.52 36.47 7.07 36.47 6.52V2ZM26.08 2C26.08 1.45 26.53 1 27.08 1H27.31C27.86 1 28.31 1.45 28.31 2V6.52C28.31 7.07 27.86 7.52 27.31 7.52H27.08C26.53 7.52 26.08 7.07 26.08 6.52V2ZM15.69 2C15.69 1.45 16.14 1 16.69 1H16.91C17.46 1 17.91 1.45 17.91 2V6.52C17.91 7.07 17.46 7.52 16.91 7.52H16.69C16.14 7.52 15.69 7.07 15.69 6.52V2ZM5.3 2C5.3 1.45 5.75 1 6.3 1H6.53C7.08 1 7.53 1.45 7.53 2V6.52C7.53 7.07 7.08 7.52 6.53 7.52H6.3C5.75 7.52 5.3 7.07 5.3 6.52V2ZM41.35 43H2.65C1.74 43 1 42.26 1 41.35V11.21H14.51C14.79 11.21 15.01 10.99 15.01 10.71C15.01 10.43 14.79 10.21 14.51 10.21H1V5.44C1 4.53 1.74 3.79 2.65 3.79H4.3V6.53C4.3 7.63 5.2 8.53 6.3 8.53H6.53C7.63 8.53 8.53 7.63 8.53 6.53V3.79H14.7V6.53C14.7 7.63 15.6 8.53 16.7 8.53H16.92C18.02 8.53 18.92 7.63 18.92 6.53V3.79H25.09V6.53C25.09 7.63 25.99 8.53 27.09 8.53H27.32C28.42 8.53 29.32 7.63 29.32 6.53V3.79H35.49V6.53C35.49 7.63 36.39 8.53 37.49 8.53H37.72C38.82 8.53 39.72 7.63 39.72 6.53V3.79H41.37C42.28 3.79 43.02 4.53 43.02 5.44V10.22H29.49C29.21 10.22 28.99 10.44 28.99 10.72C28.99 11 29.21 11.22 29.49 11.22H43V41.36C43 42.26 42.26 43 41.35 43Z" fill="#151724"/>
<path d="M17.34 11.21H18.41C18.69 11.21 18.91 10.99 18.91 10.71C18.91 10.43 18.69 10.21 18.41 10.21H17.34C17.06 10.21 16.84 10.43 16.84 10.71C16.84 10.99 17.07 11.21 17.34 11.21Z" fill="#151724"/>
<path d="M25.58 11.21H26.66C26.94 11.21 27.16 10.99 27.16 10.71C27.16 10.43 26.94 10.21 26.66 10.21H25.58C25.3 10.21 25.08 10.43 25.08 10.71C25.08 10.99 25.31 11.21 25.58 11.21Z" fill="#151724"/>
<path d="M23.04 10.71C23.04 10.43 22.82 10.21 22.54 10.21H21.46C21.18 10.21 20.96 10.43 20.96 10.71C20.96 10.99 21.18 11.21 21.46 11.21H22.54C22.81 11.21 23.04 10.99 23.04 10.71Z" fill="#151724"/>
<path d="M39.74 13.71H34.36C33.49 13.71 32.78 14.42 32.78 15.29V20.67C32.78 21.54 33.49 22.24 34.35 22.25H39.73C40.6 22.25 41.3 21.54 41.3 20.67V15.29C41.31 14.41 40.61 13.71 39.74 13.71ZM40.31 20.66C40.31 20.98 40.05 21.24 39.74 21.24H34.36C34.04 21.24 33.79 20.98 33.79 20.66V15.28C33.79 14.96 34.05 14.7 34.37 14.7H39.75C40.07 14.7 40.32 14.96 40.32 15.28V20.66H40.31Z" fill="#151724"/>
<path d="M9.63999 13.71H4.25999C3.38999 13.71 2.67999 14.42 2.67999 15.29V20.67C2.67999 21.54 3.38999 22.24 4.24999 22.25H9.62999C10.5 22.25 11.2 21.54 11.2 20.67V15.29C11.21 14.41 10.51 13.71 9.63999 13.71ZM10.21 20.66C10.21 20.98 9.94999 21.24 9.63999 21.24H4.25999C3.93999 21.24 3.68999 20.98 3.68999 20.66V15.28C3.68999 14.96 3.94999 14.7 4.26999 14.7H9.64999C9.96999 14.7 10.22 14.96 10.22 15.28V20.66H10.21Z" fill="#151724"/>
<path d="M19.67 13.71H14.3C13.43 13.71 12.72 14.42 12.72 15.29V20.67C12.72 21.54 13.43 22.24 14.29 22.25H19.67C20.54 22.25 21.24 21.54 21.24 20.67V15.29C21.25 14.41 20.54 13.71 19.67 13.71ZM20.25 20.66C20.25 20.98 19.99 21.24 19.68 21.24H14.3C13.98 21.24 13.73 20.98 13.73 20.66V15.28C13.73 14.96 13.99 14.7 14.31 14.7H19.69C20.01 14.7 20.26 14.96 20.26 15.28V20.66H20.25Z" fill="#151724"/>
<path d="M29.71 13.71H24.33C23.46 13.71 22.75 14.42 22.75 15.29V20.67C22.75 21.54 23.46 22.24 24.32 22.25H29.7C30.57 22.25 31.27 21.54 31.27 20.67V15.29C31.28 14.41 30.57 13.71 29.71 13.71ZM30.28 20.66C30.28 20.98 30.02 21.24 29.71 21.24H24.33C24.01 21.24 23.76 20.98 23.76 20.66V15.28C23.76 14.96 24.02 14.7 24.34 14.7H29.72C30.04 14.7 30.29 14.96 30.29 15.28V20.66H30.28Z" fill="#151724"/>
<path d="M9.64 31.91H4.26C3.39 31.91 2.69 31.2 2.69 30.33V24.95C2.69 24.08 3.4 23.37 4.27 23.37H9.65C10.52 23.37 11.22 24.08 11.22 24.95V30.33C11.21 31.2 10.51 31.91 9.64 31.91ZM4.26 24.38C3.94 24.38 3.68 24.64 3.68 24.96V30.34C3.68 30.66 3.94 30.92 4.25 30.92H9.63C9.95 30.92 10.2 30.66 10.2 30.34V24.96C10.2 24.64 9.94 24.38 9.63 24.38H4.26Z" fill="#151724"/>
<path d="M19.67 31.91H14.29C13.42 31.91 12.72 31.2 12.72 30.33V24.95C12.72 24.08 13.43 23.37 14.3 23.37H19.68C20.55 23.37 21.25 24.08 21.25 24.95V30.33C21.25 31.2 20.54 31.91 19.67 31.91ZM14.3 24.38C13.98 24.38 13.72 24.64 13.72 24.96V30.34C13.72 30.66 13.98 30.92 14.29 30.92H19.67C19.99 30.92 20.24 30.66 20.24 30.34V24.96C20.24 24.64 19.98 24.38 19.67 24.38H14.3Z" fill="#151724"/>
<path d="M9.64 41.58H4.26C3.39 41.58 2.69 40.87 2.69 40V34.62C2.69 33.75 3.4 33.05 4.27 33.05H9.65C10.52 33.05 11.22 33.76 11.22 34.62V40C11.21 40.87 10.51 41.58 9.64 41.58ZM4.26 34.06C3.94 34.06 3.68 34.32 3.68 34.63V40.01C3.68 40.33 3.94 40.59 4.25 40.59H9.63C9.95 40.59 10.2 40.33 10.2 40.01V34.63C10.2 34.31 9.94 34.06 9.63 34.06H4.26Z" fill="#151724"/>
<path d="M19.67 41.58H14.29C13.42 41.58 12.72 40.87 12.72 40V34.62C12.72 33.75 13.43 33.05 14.3 33.05H19.68C20.55 33.05 21.25 33.76 21.25 34.62V40C21.25 40.87 20.54 41.58 19.67 41.58ZM14.3 34.06C13.98 34.06 13.72 34.32 13.72 34.63V40.01C13.72 40.33 13.98 40.59 14.29 40.59H19.67C19.99 40.59 20.24 40.33 20.24 40.01V34.63C20.24 34.31 19.98 34.06 19.67 34.06H14.3Z" fill="#151724"/>
<path d="M24.33 41.08C23.74 41.08 23.26 40.6 23.26 40.01V24.96C23.26 24.37 23.74 23.89 24.33 23.89C24.33 23.89 39.06 23.89 39.74 23.89C40.33 23.89 40.81 24.37 40.81 24.97V40.02C40.81 40.61 40.33 41.09 39.74 41.09C39.06 41.08 25.01 41.08 24.33 41.08Z" fill="white"/>
<path d="M33.66 26.96C33.69 24.85 30.37 24.84 30.4 26.96L31.21 34.35C31.19 35.41 32.86 35.41 32.84 34.35C32.85 34.35 33.66 26.96 33.66 26.96Z" fill="#FF7000"/>
<path d="M32.03 39.59C32.9302 39.59 33.66 38.8602 33.66 37.96C33.66 37.0598 32.9302 36.33 32.03 36.33C31.1298 36.33 30.4 37.0598 30.4 37.96C30.4 38.8602 31.1298 39.59 32.03 39.59Z" fill="#FF7000"/>
</svg>
