<svg width="16" height="14" viewBox="0 0 16 14" fill="none" xmlns="http://www.w3.org/2000/svg">
<path fill-rule="evenodd" clip-rule="evenodd" d="M6.81 14H9.19C9.42 14 9.62 13.85 9.67 13.62L10.01 12.29C10.54 12.08 11.03 11.81 11.48 11.46L12.97 11.9C13.19 11.96 13.42 11.87 13.54 11.68L14.92 9.45C15.04 9.25 15.01 8.99 14.84 8.83L13.65 7.67C13.69 7.44 13.7 7.21 13.7 7C13.7 6.79 13.69 6.57 13.66 6.34L14.85 5.18C15.02 5.02 15.05 4.76 14.93 4.56L13.55 2.33C13.43 2.13 13.2 2.05 12.98 2.11L11.49 2.55C11.04 2.2 10.55 1.93 10.02 1.72L9.68 0.38C9.63 0.15 9.43 0 9.2 0H6.81C6.58 0 6.38 0.15 6.32 0.38L5.98 1.71C5.45 1.92 4.96 2.19 4.51 2.54L3.02 2.1C2.8 2.03 2.57 2.12 2.45 2.31L1.07 4.54C0.949998 4.74 0.979998 5 1.15 5.16L2.35 6.33C2.32 6.56 2.3 6.79 2.3 7C2.3 7.21 2.31 7.44 2.34 7.67L1.15 8.83C0.979998 9 0.949998 9.25 1.07 9.45L2.45 11.68C2.57 11.88 2.8 11.96 3.02 11.9L4.52 11.45C4.97 11.8 5.46 12.07 5.99 12.28L6.33 13.62C6.38 13.85 6.58 14 6.81 14ZM8.8 13H7.19L6.88 11.78C6.84 11.62 6.72 11.48 6.56 11.43C5.96 11.23 5.42 10.92 4.95 10.52C4.82 10.41 4.64 10.37 4.48 10.42L3.1 10.83L2.14 9.27L3.22 8.21C3.34 8.09 3.4 7.93 3.37 7.77C3.32 7.49 3.3 7.24 3.3 7C3.3 6.76 3.32 6.51 3.37 6.23C3.4 6.07 3.34 5.9 3.23 5.79L2.14 4.73L3.1 3.16L4.47 3.57C4.64 3.62 4.81 3.58 4.94 3.47C5.41 3.07 5.96 2.76 6.55 2.56C6.72 2.51 6.84 2.37 6.88 2.21L7.19 1H8.8L9.12 2.22C9.16 2.38 9.28 2.51 9.44 2.57C10.04 2.77 10.58 3.08 11.05 3.48C11.18 3.59 11.36 3.63 11.52 3.58L12.9 3.17L13.86 4.73L12.77 5.79C12.66 5.9 12.6 6.07 12.63 6.23C12.68 6.51 12.7 6.76 12.7 7C12.7 7.24 12.68 7.49 12.63 7.78C12.6 7.94 12.65 8.11 12.77 8.22L13.86 9.28L12.9 10.84L11.52 10.43C11.36 10.38 11.18 10.42 11.05 10.53C10.58 10.93 10.03 11.24 9.44 11.44C9.27 11.49 9.15 11.63 9.11 11.79L8.8 13ZM5 7C5 8.65 6.35 10 8 10C9.65 10 11 8.65 11 7C11 5.35 9.65 4 8 4C6.35 4 5 5.35 5 7ZM6 7C6 5.9 6.9 5 8 5C9.1 5 10 5.9 10 7C10 8.1 9.1 9 8 9C6.9 9 6 8.1 6 7Z" fill="#090909"/>
</svg>
