<svg width="25" height="24" viewBox="0 0 25 24" fill="none" xmlns="http://www.w3.org/2000/svg">
<path d="M4.66667 11.2502V6.75013C4.66667 6.33575 4.29375 6.00012 3.83333 6.00012C3.37292 6.00012 3 6.33575 3 6.75013V11.2502C3 11.6646 3.37292 12.0002 3.83333 12.0002C4.29375 12.0002 4.66667 11.6646 4.66667 11.2502ZM21.0464 13.4548C20.7135 12.9565 20.2266 12.5796 19.6667 12.3288V3.00006C19.6667 1.343 18.1745 0 16.3333 0H9.66667C7.82552 0 6.33333 1.343 6.33333 3.00006V12.3288C5.77344 12.5796 5.28646 12.9565 4.95365 13.4548L4.19479 14.5911C3.19323 16.0906 4.39323 18.0004 6.33698 18.0004H12.1667V19.5576C10.312 19.8112 8.78125 20.8954 8.11198 22.3528C7.77812 23.0798 8.2375 24 8.89427 24H17.1057C17.7625 24 18.2224 23.0798 17.888 22.3528C17.2187 20.8959 15.688 19.8112 13.8333 19.5576V18.0004H19.663C21.6073 18.0004 22.8073 16.0906 21.8057 14.5911L21.0464 13.4548ZM8 3.00006C8 2.17317 8.74792 1.50003 9.66667 1.50003H16.3333C17.2521 1.50003 18 2.17317 18 3.00006V12.0002H8V3.00006ZM16.1042 22.5004H9.89583C10.5302 21.5878 11.7167 21.0004 13 21.0004C14.2833 21.0004 15.4698 21.5878 16.1042 22.5004ZM20.388 16.1197C20.3161 16.2341 20.1016 16.5003 19.6625 16.5003H6.33698C5.89844 16.5003 5.68385 16.2341 5.61146 16.1197C5.53958 16.0053 5.39635 15.7025 5.6224 15.3641L6.38125 14.2278C6.68177 13.7792 7.22865 13.5003 7.81042 13.5003H18.1896C18.7714 13.5003 19.3182 13.7792 19.6182 14.2278L20.3771 15.3641C20.6031 15.702 20.4599 16.0053 20.388 16.1197ZM22.1667 6.00012C21.7062 6.00012 21.3333 6.33575 21.3333 6.75013V11.2502C21.3333 11.6646 21.7062 12.0002 22.1667 12.0002C22.6271 12.0002 23 11.6646 23 11.2502V6.75013C23 6.33575 22.6271 6.00012 22.1667 6.00012Z" fill="black"/>
<line x1="0.654047" y1="23.639" x2="24.654" y2="0.639004" stroke="black"/>
</svg>
