<svg width="24" height="24" viewBox="0 0 24 24" fill="none" xmlns="http://www.w3.org/2000/svg">
<g id="meeting room">
<path id="Icon" fill-rule="evenodd" clip-rule="evenodd" d="M19.5 14C19.2236 14 19 14.2236 19 14.5V18H17.2936L15.8023 15H17C17.2764 15 17.5 14.7764 17.5 14.5V13H20C20.2764 13 20.5 12.7764 20.5 12.5V5C20.7764 5 21 4.77637 21 4.5C21 4.22363 20.7764 4 20.5 4H3.5C3.22363 4 3 4.22363 3 4.5C3 4.77637 3.22363 5 3.5 5V12.5C3.5 12.7764 3.72363 13 4 13H6.5V14.5C6.5 14.7764 6.72363 15 7 15H8.1972L6.70587 18H5V14.5C5 14.2236 4.77637 14 4.5 14H3.5C3.22363 14 3 14.2236 3 14.5C3 14.7764 3.22363 15 3.5 15H4V18.5C4 18.7764 4.22363 19 4.5 19H6.28503C6.25604 19.1994 6.27111 19.4018 6.38134 19.5801C6.54345 19.8428 6.82616 20 7.1372 20H16.8623C17.1738 20 17.456 19.8428 17.6191 19.5801C17.7291 19.4017 17.7439 19.1992 17.7148 19H19.5C19.7764 19 20 18.7764 20 18.5V15H20.5C20.7764 15 21 14.7764 21 14.5C21 14.2236 20.7764 14 20.5 14H19.5ZM7.5 14V10.5C7.5 10.2236 7.27637 10 7 10H6C5.72363 10 5.5 10.2236 5.5 10.5C5.5 10.7764 5.72363 11 6 11H6.5V12H4.5V5H19.5V12H17.5V11H18C18.2764 11 18.5 10.7764 18.5 10.5C18.5 10.2236 18.2764 10 18 10H17C16.7236 10 16.5 10.2236 16.5 10.5V14H15.3052L14.5537 12.4883C14.4024 12.1865 14.0977 12 13.7598 12H10.2402C9.90088 12 9.5962 12.1875 9.44483 12.4902L8.69434 14H7.5ZM7.32568 19L10.3081 13H13.6914L16.6748 19H7.32568ZM12 13.5C11.7236 13.5 11.5 13.7236 11.5 14V18C11.5 18.2764 11.7236 18.5 12 18.5C12.2764 18.5 12.5 18.2764 12.5 18V14C12.5 13.7236 12.2764 13.5 12 13.5ZM15 8.5C15 10.1543 13.6543 11.5 12 11.5C10.3457 11.5 9 10.1543 9 8.5C9 6.8457 10.3457 5.5 12 5.5C13.6543 5.5 15 6.8457 15 8.5ZM12.5 8H13.9365C13.7559 7.29786 13.2022 6.74414 12.5 6.56348V8ZM11.5 8.5V6.56348C10.6382 6.78613 10 7.56934 10 8.5C10 9.60254 10.897 10.5 12 10.5C12.9307 10.5 13.7139 9.86133 13.9365 9H12C11.7236 9 11.5 8.77637 11.5 8.5Z" fill="#555555"/>
</g>
</svg>
