<svg width="24" height="28" viewBox="0 0 24 28" fill="none" xmlns="http://www.w3.org/2000/svg">
<path fill-rule="evenodd" clip-rule="evenodd" d="M16.7556 6.32935C15.7506 6.29533 14.7415 6.84674 14.5239 8.00569L13.4492 7.83092C13.776 6.09092 15.3392 5.26556 16.7953 5.31486C17.5228 5.33949 18.2515 5.58022 18.8118 6.05182C19.3799 6.53004 19.7466 7.2227 19.776 8.09017L18.6856 8.1222C18.6652 7.51897 18.4194 7.09041 18.08 6.80468C17.7326 6.51233 17.2586 6.34638 16.7556 6.32935Z" fill="black"/>
<path fill-rule="evenodd" clip-rule="evenodd" d="M16.7095 3.67464C17.312 3.67464 17.8004 3.22014 17.8004 2.65948C17.8004 2.09881 17.312 1.64431 16.7095 1.64431C16.107 1.64431 15.6186 2.09881 15.6186 2.65948C15.6186 3.22014 16.107 3.67464 16.7095 3.67464ZM16.7095 4.68981C17.9145 4.68981 18.8913 3.7808 18.8913 2.65948C18.8913 1.53815 17.9145 0.629141 16.7095 0.629141C15.5045 0.629141 14.5277 1.53815 14.5277 2.65948C14.5277 3.7808 15.5045 4.68981 16.7095 4.68981Z" fill="black"/>
<path fill-rule="evenodd" clip-rule="evenodd" d="M22.7733 16.23C22.8997 15.7461 22.9091 15.1751 22.9091 14.3C22.9091 13.425 22.8997 12.854 22.7733 12.3701C22.6703 11.9758 22.4733 11.5877 21.9441 11.2046C21.3697 10.7889 20.4047 10.3832 18.7786 10.0907C17.1645 9.80025 14.9731 9.63337 12 9.63337C9.03108 9.63337 6.84359 9.81944 5.2339 10.1324C3.61415 10.4474 2.64786 10.8785 2.07056 11.3115C1.53213 11.7153 1.32856 12.1206 1.22471 12.5101C1.10009 12.9774 1.09091 13.51 1.09091 14.3C1.09091 15.1751 1.10034 15.7461 1.22673 16.23C1.32972 16.6243 1.52669 17.0124 2.05591 17.3955C2.63028 17.8112 3.59525 18.2168 5.22138 18.5094C6.83549 18.7998 9.02693 18.9667 12 18.9667C14.9731 18.9667 17.1645 18.7998 18.7786 18.5094C20.4047 18.2168 21.3697 17.8112 21.9441 17.3955C22.4733 17.0124 22.6703 16.6243 22.7733 16.23ZM12 20.3C24 20.3 24 17.6137 24 14.3C24 10.9863 24 8.30004 12 8.30004C0 8.30004 0 11.3 0 14.3C0 17.6137 0 20.3 12 20.3Z" fill="black"/>
<path fill-rule="evenodd" clip-rule="evenodd" d="M7.4932 22.1978C8.4977 22.2435 9.51407 21.7039 9.74727 20.5475L10.8195 20.7348C10.4693 22.4709 8.89518 23.278 7.43991 23.2117C6.71275 23.1787 5.98734 22.9295 5.43346 22.4514C4.87179 21.9666 4.51445 21.2697 4.49668 20.402L5.58739 20.3826C5.59975 20.9861 5.83973 21.4174 6.17532 21.7071C6.51869 22.0035 6.99048 22.1749 7.4932 22.1978Z" fill="black"/>
<path fill-rule="evenodd" clip-rule="evenodd" d="M7.96721 24.7929C7.36671 24.7473 6.8402 25.1634 6.79122 25.7222C6.74224 26.281 7.18934 26.771 7.78984 26.8165C8.39033 26.8621 8.91684 26.4461 8.96582 25.8873C9.0148 25.3285 8.5677 24.8385 7.96721 24.7929ZM8.05589 23.7811C6.85489 23.69 5.80188 24.5221 5.70392 25.6397C5.60597 26.7573 6.50015 27.7372 7.70115 27.8283C8.90215 27.9195 9.95516 27.0874 10.0531 25.9698C10.1511 24.8522 9.25689 23.8723 8.05589 23.7811Z" fill="black"/>
<path fill-rule="evenodd" clip-rule="evenodd" d="M16.446 22.2663C17.4512 22.2391 18.4194 21.6275 18.5552 20.4578L19.6398 20.5669C19.4359 22.323 17.934 23.2417 16.4776 23.281C15.7499 23.3007 15.0058 23.1048 14.4137 22.6682C13.8132 22.2256 13.3987 21.5567 13.3084 20.6929L14.3942 20.5946C14.4569 21.1953 14.7323 21.608 15.0911 21.8725C15.4582 22.1431 15.9429 22.2799 16.446 22.2663Z" fill="black"/>
<path fill-rule="evenodd" clip-rule="evenodd" d="M15.7162 24.8628C15.1537 25.0638 14.8728 25.651 15.0888 26.1744C15.3047 26.6978 15.9358 26.9592 16.4982 26.7583C17.0607 26.5573 17.3416 25.9701 17.1256 25.4467C16.9097 24.9233 16.2787 24.6619 15.7162 24.8628ZM15.3252 23.9151C14.2003 24.317 13.6385 25.4914 14.0704 26.5383C14.5022 27.5851 15.7643 28.1079 16.8892 27.706C18.0141 27.3041 18.576 26.1296 18.1441 25.0828C17.7122 24.036 16.4501 23.5132 15.3252 23.9151Z" fill="black"/>
<path fill-rule="evenodd" clip-rule="evenodd" d="M7.80022 6.31174C6.79592 6.3612 5.8437 6.99411 5.73791 8.1665L4.65083 8.08156C4.80966 6.32137 6.28759 5.36965 7.74256 5.29799C8.46958 5.26218 9.21843 5.44152 9.82163 5.86477C10.4333 6.29397 10.8649 6.95346 10.9772 7.81505L9.89429 7.93738C9.81613 7.33824 9.53031 6.93178 9.16484 6.67534C8.7909 6.41295 8.30284 6.28698 7.80022 6.31174Z" fill="black"/>
<path fill-rule="evenodd" clip-rule="evenodd" d="M8.16818 3.55449C8.73475 3.36378 9.0279 2.78177 8.82296 2.25455C8.61802 1.72732 7.99259 1.45451 7.42603 1.64522C6.85946 1.83594 6.56631 2.41794 6.77125 2.94517C6.97618 3.4724 7.60161 3.7452 8.16818 3.55449ZM8.53926 4.50912C9.67239 4.1277 10.2587 2.96369 9.84882 1.90923C9.43894 0.854774 8.18808 0.30917 7.05495 0.690591C5.92182 1.07201 5.33551 2.23602 5.74539 3.29048C6.15527 4.34494 7.40612 4.89055 8.53926 4.50912Z" fill="black"/>
</svg>
