<svg width="33" height="36" viewBox="0 0 33 36" fill="none" xmlns="http://www.w3.org/2000/svg">
<path fill-rule="evenodd" clip-rule="evenodd" d="M8.07951 1.97891C8.08929 3.06609 9.02506 3.9566 10.159 3.95782C11.2929 3.95905 12.2127 3.07054 12.2029 1.98337C12.1932 0.89619 11.2574 0.00568041 10.1234 0.00445524C8.9895 0.00323006 8.06973 0.891735 8.07951 1.97891ZM8.76675 1.97965C8.76023 1.25487 9.37341 0.662533 10.1294 0.66335C10.8853 0.664167 11.5092 1.25784 11.5157 1.98262C11.5222 2.70741 10.909 3.29974 10.1531 3.29893C9.39711 3.29811 8.77327 2.70444 8.76675 1.97965ZM13.7374 8.85633C13.7387 9.00861 13.8694 9.1284 14.0344 9.12858C14.1993 9.12875 14.3278 9.00925 14.3264 8.85697C14.3089 6.90999 12.445 5.31995 10.1712 5.31749C7.89744 5.31504 6.06207 6.90108 6.07958 8.84806C6.08095 9.00034 6.21162 9.12012 6.37655 9.1203C6.54149 9.12048 6.67001 9.00097 6.66864 8.84869C6.65382 7.20083 8.22631 5.85923 10.1761 5.86134C12.1259 5.86345 13.7226 7.20847 13.7374 8.85633Z" fill="#090909"/>
<path fill-rule="evenodd" clip-rule="evenodd" d="M20.1252 1.99601C20.1154 3.08338 21.0351 3.97021 22.1689 3.96674C23.3026 3.96328 24.2382 3.07077 24.2479 1.9834C24.2576 0.896025 23.3379 0.00919284 22.2042 0.0126602C21.0704 0.0161275 20.1349 0.908633 20.1252 1.99601ZM20.8123 1.9939C20.8187 1.26899 21.4425 0.673986 22.1983 0.671674C22.9541 0.669362 23.5673 1.26058 23.5608 1.9855C23.5543 2.71041 22.9306 3.30542 22.1748 3.30773C21.4189 3.31004 20.8058 2.71882 20.8123 1.9939ZM25.659 8.8517C25.6576 9.00401 25.7861 9.12328 25.951 9.12278C26.1159 9.12227 26.2466 9.00221 26.2479 8.8499C26.2653 6.90257 24.4302 5.3199 22.1567 5.32685C19.8833 5.3338 18.0198 6.92778 18.0024 8.87512C18.0011 9.02742 18.1296 9.1467 18.2945 9.14619C18.4594 9.14569 18.59 9.02562 18.5914 8.87332C18.6061 7.22516 20.2024 5.87676 22.1519 5.8708C24.1014 5.86483 25.6737 7.20354 25.659 8.8517Z" fill="#090909"/>
<path fill-rule="evenodd" clip-rule="evenodd" d="M25.272 33.1489C25.2588 32.0618 24.3202 31.1753 23.1862 31.1788C22.0522 31.1823 21.1351 32.0746 21.1482 33.1617C21.1614 34.2487 22.1 35.1352 23.234 35.1317C24.368 35.1282 25.2851 34.2359 25.272 33.1489ZM24.5847 33.151C24.5934 33.8757 23.982 34.4705 23.226 34.4729C22.47 34.4752 21.8443 33.8842 21.8355 33.1595C21.8267 32.4348 22.4381 31.84 23.1942 31.8376C23.9502 31.8353 24.5759 32.4263 24.5847 33.151ZM19.5924 26.2958C19.5906 26.1435 19.4595 26.0243 19.2946 26.0248C19.1296 26.0253 19.0014 26.1453 19.0033 26.2976C19.0268 28.2443 20.8958 29.8264 23.1698 29.8194C25.4437 29.8123 27.2743 28.2187 27.2508 26.272C27.2489 26.1197 27.1179 26.0005 26.9529 26.001C26.788 26.0015 26.6598 26.1216 26.6617 26.2738C26.6816 27.9215 25.1131 29.2695 23.1632 29.2756C21.2132 29.2817 19.6123 27.9434 19.5924 26.2958Z" fill="#090909"/>
<path fill-rule="evenodd" clip-rule="evenodd" d="M12.2033 33.1446C12.2132 32.0575 11.2935 31.1687 10.1595 31.1695C9.02559 31.1703 8.08969 32.0605 8.07977 33.1477C8.06985 34.2348 8.98952 35.1236 10.1235 35.1228C11.2574 35.122 12.1933 34.2318 12.2033 33.1446ZM11.516 33.1451C11.5094 33.8699 10.8855 34.4633 10.1295 34.4639C9.37352 34.4645 8.7604 33.8719 8.76702 33.1472C8.77363 32.4224 9.39756 31.8289 10.1535 31.8284C10.9095 31.8278 11.5226 32.4204 11.516 33.1451ZM6.66979 26.2775C6.67118 26.1252 6.54268 26.0056 6.37774 26.0058C6.2128 26.0059 6.08211 26.1256 6.08072 26.2779C6.06296 28.2248 7.89816 29.8115 10.172 29.8098C12.4458 29.8081 14.31 28.2188 14.3277 26.2718C14.3291 26.1196 14.2006 26 14.0357 26.0001C13.8707 26.0002 13.74 26.12 13.7386 26.2723C13.7236 27.9201 12.1268 29.2645 10.1769 29.266C8.22711 29.2674 6.65476 27.9253 6.66979 26.2775Z" fill="#090909"/>
<path d="M32.5 17.5C32.5 19.2904 32.0607 20.5789 31.3113 21.5256C30.5583 22.4768 29.4504 23.1356 28.0175 23.5855C25.1216 24.4947 21.087 24.5 16.5 24.5C11.4165 24.5 7.37787 24.228 4.61794 23.1926C3.24945 22.6791 2.23005 21.99 1.55019 21.0839C0.873753 20.1823 0.5 19.0212 0.5 17.5C0.5 15.9788 0.873753 14.8177 1.55019 13.9161C2.23005 13.01 3.24945 12.3209 4.61794 11.8074C7.37787 10.772 11.4165 10.5 16.5 10.5C21.8838 10.5 25.9231 11.0369 28.6003 12.1997C29.9315 12.7779 30.9009 13.5003 31.5379 14.3647C32.1709 15.2236 32.5 16.2551 32.5 17.5Z" stroke="black"/>
</svg>
