<svg width="20" height="19" viewBox="0 0 20 18" stroke="black" stroke-width="0.6" fill="none" xmlns="http://www.w3.org/2000/svg">
<path fill-rule="evenodd" clip-rule="evenodd" d="M14 6C12.35 6 11 4.65 11 3C11 1.35 12.35 0 14 0C15.65 0 17 1.35 17 3C17 4.65 15.65 6 14 6ZM14 1C12.9 1 12 1.9 12 3C12 4.1 12.9 5 14 5C15.1 5 16 4.1 16 3C16 1.9 15.1 1 14 1ZM3.5 6.5C3.5 8.43 5.07 10 7 10C8.93 10 10.5 8.43 10.5 6.5C10.5 4.57 8.93 3 7 3C5.07 3 3.5 4.57 3.5 6.5ZM4.5 6.5C4.5 5.12 5.62 4 7 4C8.38 4 9.5 5.12 9.5 6.5C9.5 7.88 8.38 9 7 9C5.62 9 4.5 7.88 4.5 6.5ZM13 17.5C13 17.78 13.22 18 13.5 18C13.78 18 14 17.78 14 17.5C14 13.92 10.86 11 7 11C3.14 11 0 13.92 0 17.5C0 17.78 0.22 18 0.5 18C0.78 18 1 17.78 1 17.5C1 14.47 3.69 12 7 12C10.31 12 13 14.47 13 17.5ZM19 12.5C19 12.78 19.22 13 19.5 13C19.78 13 20 12.78 20 12.5C20 9.47 17.31 7 14 7C13.25 7 12.53 7.12 11.83 7.37C11.57 7.46 11.44 7.75 11.53 8.01C11.62 8.27 11.91 8.4 12.17 8.31C12.75 8.11 13.37 8 14 8C16.76 8 19 10.02 19 12.5Z" fill="#090909"/>
</svg>
