<svg width="13" height="13" viewBox="0 0 13 13" fill="none" xmlns="http://www.w3.org/2000/svg">
<path fill-rule="evenodd" clip-rule="evenodd" d="M3.49997 3.5C3.49997 5.43 5.06997 7 6.99997 7C8.92997 7 10.5 5.43 10.5 3.5C10.5 1.57 8.92997 0 6.99997 0C5.06997 0 3.49997 1.57 3.49997 3.5ZM4.49997 3.5C4.49997 2.12 5.61997 1 6.99997 1C8.37997 1 9.49997 2.12 9.49997 3.5C9.49997 4.88 8.37997 6 6.99997 6C5.61997 6 4.49997 4.88 4.49997 3.5ZM12.07 11.76C12.16 11.91 12.33 12 12.5 12C12.59 12 12.68 11.98 12.76 11.93C12.99 11.78 13.07 11.48 12.93 11.24C11.74 9.24 9.45997 8 6.99997 8C4.53997 8 2.26997 9.24 1.06997 11.24C0.92997 11.48 0.99997 11.79 1.23997 11.93C1.47997 12.07 1.78997 12 1.92997 11.76C2.93997 10.06 4.88997 9 6.99997 9C9.10997 9 11.06 10.06 12.07 11.76Z" fill="#555555"/>
</svg>
