<svg width="24" height="24" viewBox="0 0 24 24" fill="none" xmlns="http://www.w3.org/2000/svg">
<path fill-rule="evenodd" clip-rule="evenodd" d="M20 9.5C20 9.77637 19.7764 10 19.5 10H17.5V11H19.5C19.7764 11 20 11.2236 20 11.5V13.5C20 13.7764 19.7764 14 19.5 14H19V19H19.5C19.7764 19 20 19.2236 20 19.5C20 19.7764 19.7764 20 19.5 20H18.5C18.2236 20 18 19.7764 18 19.5V17H12.6514L12.7773 17.084C12.916 17.1768 13 17.333 13 17.5V18.1531C13.2936 18.3273 13.5 18.6337 13.5 19C13.5 19.5525 13.0525 20 12.5 20C11.9475 20 11.5 19.5525 11.5 19C11.5 18.6337 11.7064 18.3273 12 18.1531V17.7676L10.8486 17H10.5V18.1531C10.7936 18.3273 11 18.6337 11 19C11 19.5525 10.5525 20 9.99999 20C9.4475 20 8.99999 19.5525 8.99999 19C8.99999 18.6337 9.20641 18.3273 9.49999 18.1531V17H9.15136L7.99999 17.7676V18.1531C8.29357 18.3273 8.49999 18.6337 8.49999 19C8.49999 19.5525 8.05248 20 7.49999 20C6.9475 20 6.49999 19.5525 6.49999 19C6.49999 18.6337 6.70641 18.3273 6.99999 18.1531V17.5C6.99999 17.333 7.08349 17.1767 7.22265 17.084L7.34863 17H6V19.5C6 19.7764 5.77637 20 5.5 20H4.5C4.22363 20 4 19.7764 4 19.5C4 19.2236 4.22363 19 4.5 19H5V14H4.5C4.22363 14 4 13.7764 4 13.5V11.5C4 11.2236 4.22363 11 4.5 11H7.03632L7.50147 4.8252C7.52783 4.36621 7.91553 4 8.38379 4H11.6162C12.084 4 12.4726 4.36621 12.499 4.83398L12.9641 11H16.5V10H14.5C14.2236 10 14 9.77637 14 9.5V6C14 5.72363 14.2236 5.5 14.5 5.5H19.5C19.7764 5.5 20 5.72363 20 6V9.5ZM11.5088 5H8.49121L8.03906 11H11.9609L11.5088 5ZM6 16H18V14H6V16ZM5 13H19V12H5V13ZM15 6.5V9H16.5V8C16.5 7.72363 16.7236 7.5 17 7.5C17.2764 7.5 17.5 7.72363 17.5 8V9H19V6.5H15ZM10.75 5.5H9.25C8.97363 5.5 8.75 5.72363 8.75 6C8.75 6.27637 8.97363 6.5 9.25 6.5H10.75C11.0264 6.5 11.25 6.27637 11.25 6C11.25 5.72363 11.0264 5.5 10.75 5.5ZM9.25 7.5H10.75C11.0264 7.5 11.25 7.72363 11.25 8C11.25 8.27637 11.0264 8.5 10.75 8.5H9.25C8.97363 8.5 8.75 8.27637 8.75 8C8.75 7.72363 8.97363 7.5 9.25 7.5ZM9.25 9.5H10.75C11.0264 9.5 11.25 9.72363 11.25 10C11.25 10.2764 11.0264 10.5 10.75 10.5H9.25C8.97363 10.5 8.75 10.2764 8.75 10C8.75 9.72363 8.97363 9.5 9.25 9.5Z" fill="#555555"/>
</svg>
