<svg width="28" height="28" viewBox="0 0 28 28" fill="none" xmlns="http://www.w3.org/2000/svg">
<mask id="path-1-inside-1_1318_3102" fill="white">
<path fill-rule="evenodd" clip-rule="evenodd" d="M11.2 2.90769C11.2 4.50692 12.46 5.81538 14 5.81538C15.54 5.81538 16.8 4.50692 16.8 2.90769C16.8 1.30846 15.54 0 14 0C12.46 0 11.2 1.30846 11.2 2.90769ZM12.1333 2.90769C12.1333 1.84154 12.9733 0.969231 14 0.969231C15.0267 0.969231 15.8667 1.84154 15.8667 2.90769C15.8667 3.97385 15.0267 4.84615 14 4.84615C12.9733 4.84615 12.1333 3.97385 12.1333 2.90769ZM18.8 12.2C18.8 12.424 18.976 12.6 19.2 12.6C19.424 12.6 19.6 12.424 19.6 12.2C19.6 9.336 17.088 7 14 7C10.912 7 8.39999 9.336 8.39999 12.2C8.39999 12.424 8.57599 12.6 8.79999 12.6C9.02399 12.6 9.19999 12.424 9.19999 12.2C9.19999 9.776 11.352 7.8 14 7.8C16.648 7.8 18.8 9.776 18.8 12.2Z"/>
</mask>
<path fill-rule="evenodd" clip-rule="evenodd" d="M11.2 2.90769C11.2 4.50692 12.46 5.81538 14 5.81538C15.54 5.81538 16.8 4.50692 16.8 2.90769C16.8 1.30846 15.54 0 14 0C12.46 0 11.2 1.30846 11.2 2.90769ZM12.1333 2.90769C12.1333 1.84154 12.9733 0.969231 14 0.969231C15.0267 0.969231 15.8667 1.84154 15.8667 2.90769C15.8667 3.97385 15.0267 4.84615 14 4.84615C12.9733 4.84615 12.1333 3.97385 12.1333 2.90769ZM18.8 12.2C18.8 12.424 18.976 12.6 19.2 12.6C19.424 12.6 19.6 12.424 19.6 12.2C19.6 9.336 17.088 7 14 7C10.912 7 8.39999 9.336 8.39999 12.2C8.39999 12.424 8.57599 12.6 8.79999 12.6C9.02399 12.6 9.19999 12.424 9.19999 12.2C9.19999 9.776 11.352 7.8 14 7.8C16.648 7.8 18.8 9.776 18.8 12.2Z" fill="#090909"/>
<path d="M14 4.81538C13.0475 4.81538 12.2 3.99054 12.2 2.90769H10.2C10.2 5.0233 11.8725 6.81538 14 6.81538V4.81538ZM15.8 2.90769C15.8 3.99054 14.9525 4.81538 14 4.81538V6.81538C16.1275 6.81538 17.8 5.0233 17.8 2.90769H15.8ZM14 1C14.9525 1 15.8 1.82484 15.8 2.90769H17.8C17.8 0.792083 16.1275 -1 14 -1V1ZM12.2 2.90769C12.2 1.82484 13.0475 1 14 1V-1C11.8725 -1 10.2 0.792083 10.2 2.90769H12.2ZM14 -0.0307693C12.3858 -0.0307693 11.1333 1.32516 11.1333 2.90769H13.1333C13.1333 2.35792 13.5608 1.96923 14 1.96923V-0.0307693ZM16.8667 2.90769C16.8667 1.32516 15.6142 -0.0307693 14 -0.0307693V1.96923C14.4391 1.96923 14.8667 2.35792 14.8667 2.90769H16.8667ZM14 5.84615C15.6142 5.84615 16.8667 4.49022 16.8667 2.90769H14.8667C14.8667 3.45747 14.4391 3.84615 14 3.84615V5.84615ZM11.1333 2.90769C11.1333 4.49022 12.3858 5.84615 14 5.84615V3.84615C13.5608 3.84615 13.1333 3.45747 13.1333 2.90769H11.1333ZM19.2 11.6C19.5283 11.6 19.8 11.8717 19.8 12.2H17.8C17.8 12.9763 18.4237 13.6 19.2 13.6V11.6ZM18.6 12.2C18.6 11.8717 18.8717 11.6 19.2 11.6V13.6C19.9763 13.6 20.6 12.9763 20.6 12.2H18.6ZM14 8C16.6063 8 18.6 9.95637 18.6 12.2H20.6C20.6 8.71563 17.5696 6 14 6V8ZM9.39999 12.2C9.39999 9.95637 11.3936 8 14 8V6C10.4303 6 7.39999 8.71563 7.39999 12.2H9.39999ZM8.79999 11.6C9.12828 11.6 9.39999 11.8717 9.39999 12.2H7.39999C7.39999 12.9763 8.02371 13.6 8.79999 13.6V11.6ZM8.19999 12.2C8.19999 11.8717 8.47171 11.6 8.79999 11.6V13.6C9.57628 13.6 10.2 12.9763 10.2 12.2H8.19999ZM14 6.8C10.8829 6.8 8.19999 9.14406 8.19999 12.2H10.2C10.2 10.4079 11.8211 8.8 14 8.8V6.8ZM19.8 12.2C19.8 9.14406 17.1171 6.8 14 6.8V8.8C16.1789 8.8 17.8 10.4079 17.8 12.2H19.8Z" fill="black" mask="url(#path-1-inside-1_1318_3102)"/>
<line y1="14.5" x2="28" y2="14.5" stroke="black"/>
<line x1="2.5" y1="16" x2="2.5" y2="28" stroke="black"/>
<line x1="24.5" y1="16" x2="24.5" y2="28" stroke="black"/>
</svg>
