<svg width="40" height="31" viewBox="0 0 40 31" fill="none" xmlns="http://www.w3.org/2000/svg">
<path fill-rule="evenodd" clip-rule="evenodd" d="M8.02977 7.94063C8.02977 9.36623 9.15498 10.5326 10.5302 10.5326C11.9055 10.5326 13.0307 9.36623 13.0307 7.94063C13.0307 6.51503 11.9055 5.34863 10.5302 5.34863C9.15498 5.34863 8.02977 6.51503 8.02977 7.94063ZM8.86326 7.94063C8.86326 6.99023 9.6134 6.21263 10.5302 6.21263C11.4471 6.21263 12.1972 6.99023 12.1972 7.94063C12.1972 8.89103 11.4471 9.66863 10.5302 9.66863C9.6134 9.66863 8.86326 8.89103 8.86326 7.94063ZM14.8167 16.9511C14.8167 17.1508 14.9739 17.3076 15.1739 17.3076C15.374 17.3076 15.5312 17.1508 15.5312 16.9511C15.5312 14.398 13.2879 12.3156 10.5302 12.3156C7.77257 12.3156 5.5293 14.398 5.5293 16.9511C5.5293 17.1508 5.68647 17.3076 5.88651 17.3076C6.08654 17.3076 6.24372 17.1508 6.24372 16.9511C6.24372 14.7903 8.1655 13.0288 10.5302 13.0288C12.895 13.0288 14.8167 14.7903 14.8167 16.9511Z" fill="#090909"/>
<line y1="18.5" x2="19" y2="18.5" stroke="black"/>
<line x1="2.5" y1="20" x2="2.5" y2="31" stroke="black"/>
<path d="M16.5 20V31" stroke="black"/>
<line x1="21" y1="18.5" x2="40" y2="18.5" stroke="black"/>
<path d="M23 20V31" stroke="black"/>
<line x1="37.5" y1="20" x2="37.5" y2="31" stroke="black"/>
<path fill-rule="evenodd" clip-rule="evenodd" d="M18.3888 2.592C18.3888 4.0176 19.514 5.184 20.8893 5.184C22.2646 5.184 23.3898 4.0176 23.3898 2.592C23.3898 1.1664 22.2646 0 20.8893 0C19.514 0 18.3888 1.1664 18.3888 2.592ZM19.2223 2.592C19.2223 1.6416 19.9725 0.864 20.8893 0.864C21.8061 0.864 22.5563 1.6416 22.5563 2.592C22.5563 3.5424 21.8061 4.32 20.8893 4.32C19.9725 4.32 19.2223 3.5424 19.2223 2.592ZM25.1758 10.8754C25.1758 11.0751 25.333 11.232 25.533 11.232C25.7331 11.232 25.8902 11.0751 25.8902 10.8754C25.8902 8.32239 23.647 6.24002 20.8893 6.24002C18.1316 6.24002 15.8884 8.32239 15.8884 10.8754C15.8884 11.0751 16.0455 11.232 16.2456 11.232C16.4456 11.232 16.6028 11.0751 16.6028 10.8754C16.6028 8.71462 18.5246 6.95316 20.8893 6.95316C23.254 6.95316 25.1758 8.71462 25.1758 10.8754Z" fill="#090909"/>
<path fill-rule="evenodd" clip-rule="evenodd" d="M27.6763 8.83199C27.6763 10.2576 28.8015 11.424 30.1767 11.424C31.552 11.424 32.6772 10.2576 32.6772 8.83199C32.6772 7.40639 31.552 6.23999 30.1767 6.23999C28.8015 6.23999 27.6763 7.40639 27.6763 8.83199ZM28.5098 8.83199C28.5098 7.88159 29.2599 7.10399 30.1767 7.10399C31.0936 7.10399 31.8437 7.88159 31.8437 8.83199C31.8437 9.78239 31.0936 10.56 30.1767 10.56C29.2599 10.56 28.5098 9.78239 28.5098 8.83199ZM34.4633 17.1154C34.4633 17.3151 34.6204 17.472 34.8205 17.472C35.0205 17.472 35.1777 17.3151 35.1777 17.1154C35.1777 14.5624 32.9344 12.48 30.1767 12.48C27.4191 12.48 25.1758 14.5624 25.1758 17.1154C25.1758 17.3151 25.333 17.472 25.533 17.472C25.7331 17.472 25.8902 17.3151 25.8902 17.1154C25.8902 14.9546 27.812 13.1932 30.1767 13.1932C32.5415 13.1932 34.4633 14.9546 34.4633 17.1154Z" fill="#090909"/>
</svg>
