<svg width="24" height="24" viewBox="0 0 24 24" fill="none" xmlns="http://www.w3.org/2000/svg">
<g id="team">
<path id="Icon" fill-rule="evenodd" clip-rule="evenodd" d="M21 9.50001C21 9.77638 20.7764 10 20.5 10L18.5 10V11H20.5C20.7764 11 21 11.2236 21 11.5V13.5C21 13.7764 20.7764 14 20.5 14H20V19H20.5C20.7764 19 21 19.2236 21 19.5C21 19.7764 20.7764 20 20.5 20H19.5C19.2236 20 19 19.7764 19 19.5V18H13.6182L13.7236 18.0527C13.8926 18.1377 14 18.3105 14 18.5V19.5C14 19.7764 13.7764 20 13.5 20C13.2236 20 13 19.7764 13 19.5V18.8086L12 18.3089V19.5C12 19.7764 11.7764 20 11.5 20C11.2236 20 11 19.7764 11 19.5V18.3089L10 18.8086V19.5C10 19.7764 9.77637 20 9.5 20C9.22363 20 9 19.7764 9 19.5V18.5C9 18.3105 9.10694 18.1377 9.27637 18.0527L9.38184 18H8V19.5C8 19.7764 7.77637 20 7.5 20H6.5C6.22363 20 6 19.7764 6 19.5C6 19.2236 6.22363 19 6.5 19H7V16H5V17.5C5 17.7764 4.77637 18 4.5 18H3.5C3.22363 18 3 17.7764 3 17.5C3 17.2236 3.22363 17 3.5 17H4V12H3.5C3.22363 12 3 11.7764 3 11.5V9.5C3 9.22363 3.22363 9 3.5 9H5.05017L5.50293 4.71582C5.5249 4.3252 5.86914 4 6.28467 4H8.71533C9.13086 4 9.47509 4.3252 9.49902 4.73926L9.57666 5.47309C9.70691 5.19618 9.99237 5.00001 10.3223 5.00001H12.6777C13.1133 5.00001 13.4746 5.34083 13.499 5.7754L13.7823 9.00001H15V6.50001C15 6.22364 15.2236 6.00001 15.5 6.00001H20.5C20.7764 6.00001 21 6.22364 21 6.50001V9.50001ZM20 7.00001H16V9.00001H17.5V8.00001C17.5 7.72364 17.7236 7.50001 18 7.50001C18.2764 7.50001 18.5 7.72364 18.5 8.00001V9.00001H20V7.00001ZM15 11V10H13.8701L13.958 11H15ZM12.5156 6.00001H10.4844L10.0458 11H12.9542L12.5156 6.00001ZM8.52149 5.00001H6.47803L6.05549 9.00001H8.94465L8.52149 5.00001ZM9.12976 10H4V11H9.04199L9.12976 10ZM5 12V15H7V14H6.5C6.22363 14 6 13.7764 6 13.5V12H5ZM8 14V17H19V14H8ZM7 13H20V12H7V13ZM16 11H17.5V10H16V11ZM11 8.5H12C12.2764 8.5 12.5 8.27637 12.5 8C12.5 7.72363 12.2764 7.5 12 7.5H11C10.7236 7.5 10.5 7.72363 10.5 8C10.5 8.27637 10.7236 8.5 11 8.5ZM11 10H12C12.2764 10 12.5 9.77637 12.5 9.5C12.5 9.22363 12.2764 9 12 9H11C10.7236 9 10.5 9.22363 10.5 9.5C10.5 9.77637 10.7236 10 11 10ZM8 6H7C6.72363 6 6.5 6.22363 6.5 6.5C6.5 6.77637 6.72363 7 7 7H8C8.27637 7 8.5 6.77637 8.5 6.5C8.5 6.22363 8.27637 6 8 6ZM7 7.5H8C8.27637 7.5 8.5 7.72363 8.5 8C8.5 8.27637 8.27637 8.5 8 8.5H7C6.72363 8.5 6.5 8.27637 6.5 8C6.5 7.72363 6.72363 7.5 7 7.5Z" fill="#555555"/>
</g>
</svg>
