<svg width="24" height="22" viewBox="0 0 24 22" fill="none" xmlns="http://www.w3.org/2000/svg">
<path d="M1.99988 11.9999C2.37309 8.3923 7.62678 8.39216 8 11.9998M0 13.5H11M1.71953 14V22M9.5 14V22M8.5 9C8.85022 5.39326 14.1035 5.39897 14.4989 9.00104M15.3169 11.9997C15.6901 8.39206 20.9438 8.39191 21.317 11.9995M13 13.5H24M14.7195 14V22M21.5 14V22M7 6C7 7.10457 6.10457 8 5 8C3.89543 8 3 7.10457 3 6C3 4.89543 3.89543 4 5 4C6.10457 4 7 4.89543 7 6ZM13.317 2.99976C13.317 4.10433 12.4216 4.99976 11.317 4.99976C10.2125 4.99976 9.31705 4.10433 9.31705 2.99976C9.31705 1.89519 10.2125 0.999756 11.317 0.999756C12.4216 0.999756 13.317 1.89519 13.317 2.99976ZM20.317 5.99976C20.317 7.10433 19.4216 7.99976 18.317 7.99976C17.2125 7.99976 16.317 7.10433 16.317 5.99976C16.317 4.89519 17.2125 3.99976 18.317 3.99976C19.4216 3.99976 20.317 4.89519 20.317 5.99976Z" stroke="black"/>
</svg>
