<svg width="438" height="464" viewBox="0 0 438 464" fill="none" xmlns="http://www.w3.org/2000/svg">
<g filter="url(#filter0_d_963_35945)">
<circle cx="219" cy="211" r="207" fill="#020204"/>
</g>
<path d="M101.907 316.19L101.905 316.18H102.28H123.17C123.171 316.18 123.172 316.18 123.173 316.18C123.174 316.18 123.175 316.182 123.176 316.185C123.177 316.186 123.177 316.188 123.178 316.19H102.55H101.907ZM87.0473 270.278C87.2458 270.039 87.4997 269.867 87.7823 269.773C87.4983 269.869 87.2468 270.042 87.0473 270.278ZM68.8846 299.454L74.6777 290.138L68.8869 299.453C68.8866 299.454 68.8863 299.454 68.886 299.454C68.6403 299.846 68.5738 300.326 68.6849 300.771L68.6849 300.771L68.6866 300.777L82.5366 353.207L82.6349 353.58H82.6309L82.7966 354.207L85.5266 364.547L85.5272 364.55C85.6156 364.878 85.7955 365.163 86.0363 365.377C85.7926 365.162 85.6102 364.875 85.5239 364.544L85.5234 364.542L68.6841 300.784C68.684 300.784 68.6839 300.784 68.6838 300.783C68.5676 300.332 68.639 299.845 68.8835 299.455L68.8846 299.454Z" fill="#3B4064" stroke="#3B4064"/>
<path d="M129.122 247.27L129.12 247.26H129.5H146.474C146.474 247.26 146.475 247.261 146.475 247.261C146.477 247.263 146.479 247.265 146.479 247.267C146.48 247.268 146.48 247.269 146.48 247.27H129.76H129.122ZM104.524 242.134L109.748 233.742L104.527 242.144C104.527 242.144 104.526 242.144 104.526 242.145C104.28 242.536 104.214 243.017 104.325 243.461L104.325 243.461L104.327 243.468L106.248 250.745L104.324 243.465C104.324 243.464 104.324 243.464 104.324 243.464C104.208 243.013 104.279 242.525 104.524 242.136L104.524 242.134ZM117.32 287.75C117.317 287.75 117.313 287.75 117.31 287.75H117.32Z" fill="#3B4064" stroke="#3B4064"/>
<path d="M348.053 270.94C348.089 270.808 348.139 270.683 348.201 270.567C348.144 270.679 348.099 270.798 348.066 270.924C348.066 270.925 348.066 270.926 348.066 270.927L333.217 327.133L333.216 327.134C333.024 327.873 332.353 328.39 331.59 328.39C332.348 328.39 333.015 327.877 333.213 327.14L333.213 327.138L335.943 316.798L336.109 316.17H336.105L336.203 315.798L348.053 270.941C348.053 270.94 348.053 270.94 348.053 270.94Z" fill="#3B4064" stroke="#3B4064"/>
<path d="M333.694 243.435C333.707 243.385 333.718 243.335 333.726 243.284C333.718 243.335 333.708 243.385 333.696 243.435C333.696 243.435 333.696 243.436 333.695 243.437L331.773 250.71L333.693 243.438L333.694 243.435ZM322.323 286.468L323.908 280.475L322.327 286.462L322.326 286.464C322.146 287.157 321.544 287.655 320.841 287.714C321.54 287.655 322.137 287.16 322.323 286.47L322.323 286.468ZM308.993 246.868L314.305 226.765L308.898 247.24H308.895L308.993 246.868ZM306.593 255.958L307.717 251.711L306.597 255.952L306.596 255.954C306.404 256.693 305.733 257.21 304.97 257.21C305.728 257.21 306.395 256.696 306.593 255.96L306.593 255.958Z" fill="#3B4064" stroke="#3B4064"/>
<mask id="path-6-inside-1_963_35945" fill="white">
<path d="M362.81 44H75.19C71.23 44 68 47.17 68 51.07V189.87C68 193.77 71.23 196.94 75.19 196.94H78.03V211.22C78.03 212.4 79 213.36 80.2 213.36H89.35V241.8H83.7C83.42 241.8 83.2 242.02 83.2 242.3C83.2 242.58 83.42 242.8 83.7 242.8H96C96.28 242.8 96.5 242.58 96.5 242.3C96.5 242.02 96.28 241.8 96 241.8H90.35V213.36H99.5C100.7 213.36 101.67 212.4 101.67 211.22V196.94H132.17C132.09 197.29 132.08 197.65 132.17 198L139.6 226.14C139.85 227.1 140.72 227.77 141.71 227.77H153.21C153.49 227.77 153.71 227.55 153.71 227.27C153.71 226.99 153.49 226.77 153.21 226.77H141.71C141.17 226.77 140.71 226.41 140.57 225.89L139.06 220.18H155.77C156.05 220.18 156.27 219.96 156.27 219.68C156.27 219.4 156.05 219.18 155.77 219.18H138.81L133.15 197.75C133.07 197.43 133.12 197.09 133.29 196.82L143.56 180.31C143.82 179.9 144.25 179.69 144.74 179.77C145.22 179.84 145.58 180.17 145.71 180.64L151.6 202.93C151.85 203.89 152.72 204.56 153.71 204.56H161.07C161.35 204.56 161.57 204.34 161.57 204.06C161.57 203.78 161.35 203.56 161.07 203.56H153.7C153.16 203.56 152.7 203.2 152.56 202.68L151.05 196.97H163.62C163.9 196.97 164.12 196.75 164.12 196.47C164.12 196.19 163.9 195.97 163.62 195.97H150.78L146.67 180.39C146.44 179.53 145.76 178.92 144.88 178.79C144.01 178.66 143.17 179.04 142.71 179.8L132.65 195.98H101.68V175.93C101.68 174.75 100.71 173.79 99.51 173.79H80.21C79.01 173.79 78.04 174.75 78.04 175.93V195.98H75.19C71.78 195.98 69 193.26 69 189.91V51.07C69 47.72 71.78 45 75.19 45H178.02L184.87 55.23C187.38 58.98 191.61 61.22 196.18 61.22H241.82C246.39 61.22 250.61 58.98 253.12 55.23L259.98 45H362.82C366.23 45 369.01 47.72 369.01 51.07V189.87C369.01 193.22 366.23 195.94 362.82 195.94H359.98V175.89C359.98 174.71 359.01 173.75 357.81 173.75H338.51C337.31 173.75 336.34 174.71 336.34 175.89V195.94H305.37L295.31 179.77C294.84 179.02 294.01 178.63 293.14 178.76C292.26 178.89 291.58 179.51 291.35 180.36L287.24 195.94H274.4C274.12 195.94 273.9 196.16 273.9 196.44C273.9 196.72 274.12 196.94 274.4 196.94H286.97L285.46 202.65C285.32 203.17 284.85 203.53 284.32 203.53H276.96C276.68 203.53 276.46 203.75 276.46 204.03C276.46 204.31 276.68 204.53 276.96 204.53H284.32C285.31 204.53 286.18 203.86 286.43 202.9L292.32 180.61C292.44 180.14 292.81 179.81 293.29 179.74C293.77 179.67 294.21 179.87 294.47 180.29L304.74 196.8C304.91 197.08 304.96 197.42 304.88 197.73L299.22 219.16H282.25C281.97 219.16 281.75 219.38 281.75 219.66C281.75 219.94 281.97 220.16 282.25 220.16H298.96L297.45 225.87C297.31 226.39 296.84 226.75 296.31 226.75H284.81C284.53 226.75 284.31 226.97 284.31 227.25C284.31 227.53 284.53 227.75 284.81 227.75H296.31C297.3 227.75 298.17 227.08 298.42 226.12L305.85 197.98C305.94 197.63 305.93 197.27 305.85 196.92H336.35V211.2C336.35 212.38 337.32 213.34 338.52 213.34H347.67V241.78H342C341.72 241.78 341.5 242 341.5 242.28C341.5 242.56 341.72 242.78 342 242.78H354.29C354.57 242.78 354.79 242.56 354.79 242.28C354.79 242 354.57 241.78 354.29 241.78H348.64V213.34H357.79C358.99 213.34 359.96 212.38 359.96 211.2V196.92H362.8C366.76 196.92 369.99 193.75 369.99 189.85V51.07C370 47.17 366.78 44 362.81 44ZM79.03 175.89C79.03 175.26 79.56 174.75 80.2 174.75H99.5C100.15 174.75 100.67 175.26 100.67 175.89V211.23C100.67 211.86 100.14 212.37 99.5 212.37H80.2C79.55 212.37 79.03 211.86 79.03 211.23V175.89ZM252.29 54.67C249.96 58.14 246.05 60.21 241.82 60.21H196.18C191.95 60.21 188.03 58.14 185.7 54.67L179.23 45H258.77L252.29 54.67ZM358.97 211.23C358.97 211.86 358.44 212.37 357.8 212.37H338.5C337.85 212.37 337.33 211.86 337.33 211.23V175.89C337.33 175.26 337.86 174.75 338.5 174.75H357.8C358.45 174.75 358.97 175.26 358.97 175.89V211.23Z"/>
</mask>
<path d="M362.81 44H75.19C71.23 44 68 47.17 68 51.07V189.87C68 193.77 71.23 196.94 75.19 196.94H78.03V211.22C78.03 212.4 79 213.36 80.2 213.36H89.35V241.8H83.7C83.42 241.8 83.2 242.02 83.2 242.3C83.2 242.58 83.42 242.8 83.7 242.8H96C96.28 242.8 96.5 242.58 96.5 242.3C96.5 242.02 96.28 241.8 96 241.8H90.35V213.36H99.5C100.7 213.36 101.67 212.4 101.67 211.22V196.94H132.17C132.09 197.29 132.08 197.65 132.17 198L139.6 226.14C139.85 227.1 140.72 227.77 141.71 227.77H153.21C153.49 227.77 153.71 227.55 153.71 227.27C153.71 226.99 153.49 226.77 153.21 226.77H141.71C141.17 226.77 140.71 226.41 140.57 225.89L139.06 220.18H155.77C156.05 220.18 156.27 219.96 156.27 219.68C156.27 219.4 156.05 219.18 155.77 219.18H138.81L133.15 197.75C133.07 197.43 133.12 197.09 133.29 196.82L143.56 180.31C143.82 179.9 144.25 179.69 144.74 179.77C145.22 179.84 145.58 180.17 145.71 180.64L151.6 202.93C151.85 203.89 152.72 204.56 153.71 204.56H161.07C161.35 204.56 161.57 204.34 161.57 204.06C161.57 203.78 161.35 203.56 161.07 203.56H153.7C153.16 203.56 152.7 203.2 152.56 202.68L151.05 196.97H163.62C163.9 196.97 164.12 196.75 164.12 196.47C164.12 196.19 163.9 195.97 163.62 195.97H150.78L146.67 180.39C146.44 179.53 145.76 178.92 144.88 178.79C144.01 178.66 143.17 179.04 142.71 179.8L132.65 195.98H101.68V175.93C101.68 174.75 100.71 173.79 99.51 173.79H80.21C79.01 173.79 78.04 174.75 78.04 175.93V195.98H75.19C71.78 195.98 69 193.26 69 189.91V51.07C69 47.72 71.78 45 75.19 45H178.02L184.87 55.23C187.38 58.98 191.61 61.22 196.18 61.22H241.82C246.39 61.22 250.61 58.98 253.12 55.23L259.98 45H362.82C366.23 45 369.01 47.72 369.01 51.07V189.87C369.01 193.22 366.23 195.94 362.82 195.94H359.98V175.89C359.98 174.71 359.01 173.75 357.81 173.75H338.51C337.31 173.75 336.34 174.71 336.34 175.89V195.94H305.37L295.31 179.77C294.84 179.02 294.01 178.63 293.14 178.76C292.26 178.89 291.58 179.51 291.35 180.36L287.24 195.94H274.4C274.12 195.94 273.9 196.16 273.9 196.44C273.9 196.72 274.12 196.94 274.4 196.94H286.97L285.46 202.65C285.32 203.17 284.85 203.53 284.32 203.53H276.96C276.68 203.53 276.46 203.75 276.46 204.03C276.46 204.31 276.68 204.53 276.96 204.53H284.32C285.31 204.53 286.18 203.86 286.43 202.9L292.32 180.61C292.44 180.14 292.81 179.81 293.29 179.74C293.77 179.67 294.21 179.87 294.47 180.29L304.74 196.8C304.91 197.08 304.96 197.42 304.88 197.73L299.22 219.16H282.25C281.97 219.16 281.75 219.38 281.75 219.66C281.75 219.94 281.97 220.16 282.25 220.16H298.96L297.45 225.87C297.31 226.39 296.84 226.75 296.31 226.75H284.81C284.53 226.75 284.31 226.97 284.31 227.25C284.31 227.53 284.53 227.75 284.81 227.75H296.31C297.3 227.75 298.17 227.08 298.42 226.12L305.85 197.98C305.94 197.63 305.93 197.27 305.85 196.92H336.35V211.2C336.35 212.38 337.32 213.34 338.52 213.34H347.67V241.78H342C341.72 241.78 341.5 242 341.5 242.28C341.5 242.56 341.72 242.78 342 242.78H354.29C354.57 242.78 354.79 242.56 354.79 242.28C354.79 242 354.57 241.78 354.29 241.78H348.64V213.34H357.79C358.99 213.34 359.96 212.38 359.96 211.2V196.92H362.8C366.76 196.92 369.99 193.75 369.99 189.85V51.07C370 47.17 366.78 44 362.81 44ZM79.03 175.89C79.03 175.26 79.56 174.75 80.2 174.75H99.5C100.15 174.75 100.67 175.26 100.67 175.89V211.23C100.67 211.86 100.14 212.37 99.5 212.37H80.2C79.55 212.37 79.03 211.86 79.03 211.23V175.89ZM252.29 54.67C249.96 58.14 246.05 60.21 241.82 60.21H196.18C191.95 60.21 188.03 58.14 185.7 54.67L179.23 45H258.77L252.29 54.67ZM358.97 211.23C358.97 211.86 358.44 212.37 357.8 212.37H338.5C337.85 212.37 337.33 211.86 337.33 211.23V175.89C337.33 175.26 337.86 174.75 338.5 174.75H357.8C358.45 174.75 358.97 175.26 358.97 175.89V211.23Z" fill="#3B4064" stroke="#3B4064" stroke-width="2" mask="url(#path-6-inside-1_963_35945)"/>
<path d="M325.53 373.2L256.74 169.25C256.35 168.08 255.26 167.3 254.03 167.3H183.98C182.75 167.3 181.66 168.09 181.27 169.25L112.47 373.2C112.17 374.09 112.31 375.04 112.86 375.8C113.4 376.56 114.25 377 115.18 377H322.81C323.74 377 324.59 376.56 325.13 375.8C325.69 375.04 325.83 374.09 325.53 373.2ZM210.97 353.57L217.5 196.45H220.52L227.04 353.57H210.97Z" fill="#151724"/>
<path d="M99.5 174.75H80.2C79.55 174.75 79.03 175.26 79.03 175.89V211.23C79.03 211.86 79.56 212.37 80.2 212.37H99.5C100.15 212.37 100.67 211.86 100.67 211.23V175.89C100.68 175.26 100.15 174.75 99.5 174.75ZM89.86 181.66C91.75 181.66 93.29 183.17 93.29 185.03C93.29 186.89 91.76 188.4 89.86 188.4C87.96 188.4 86.43 186.89 86.43 185.03C86.43 183.17 87.96 181.66 89.86 181.66ZM89.86 205.85C86.47 205.85 83.71 203.15 83.71 199.81C83.71 196.47 86.46 193.77 89.86 193.77C93.26 193.77 96.01 196.47 96.01 199.81C96.01 203.15 93.25 205.85 89.86 205.85Z" fill="#020204"/>
<path d="M357.79 174.75H338.49C337.84 174.75 337.32 175.26 337.32 175.89V211.23C337.32 211.86 337.85 212.37 338.49 212.37H357.79C358.44 212.37 358.96 211.86 358.96 211.23V175.89C358.97 175.26 358.44 174.75 357.79 174.75Z" fill="#020204"/>
<path d="M326.47 372.88L257.68 168.93C257.15 167.35 255.68 166.3 254.02 166.3H183.97C182.31 166.3 180.84 167.36 180.31 168.93L111.52 372.88C111.12 374.08 111.31 375.36 112.04 376.39C112.77 377.42 113.92 378.01 115.18 378.01H322.81C324.07 378.01 325.21 377.42 325.95 376.39C326.69 375.36 326.88 374.08 326.47 372.88ZM325.15 375.8C324.6 376.56 323.76 377 322.82 377H115.18C114.24 377 113.4 376.56 112.85 375.8C112.31 375.04 112.17 374.09 112.47 373.2L181.26 169.25C181.65 168.08 182.74 167.3 183.97 167.3H254.02C255.25 167.3 256.34 168.09 256.73 169.25L325.52 373.2C325.83 374.09 325.69 375.03 325.15 375.8Z" fill="#3B4064"/>
<path d="M217.49 196.45L210.97 353.57H227.03L220.51 196.45H217.49Z" fill="#3B4064"/>
<path d="M287.22 195.94L291.33 180.36C291.56 179.5 292.24 178.89 293.12 178.76C293.99 178.62 294.83 179.01 295.29 179.77L305.35 195.94H336.32V175.89C336.32 174.71 337.29 173.75 338.49 173.75H357.79C358.99 173.75 359.96 174.71 359.96 175.89V195.94H362.8C366.21 195.94 368.99 193.22 368.99 189.87V51.07C368.99 47.72 366.21 45 362.8 45H259.98L253.13 55.23C250.62 58.98 246.39 61.22 241.83 61.22H196.19C191.62 61.22 187.4 58.98 184.88 55.23L178.02 45H75.19C71.78 45 69 47.72 69 51.07V189.87C69 193.22 71.78 195.94 75.19 195.94H78.03V175.89C78.03 174.71 79 173.75 80.2 173.75H99.5C100.7 173.75 101.67 174.71 101.67 175.89V195.94H132.64L142.7 179.76C143.17 179.01 144 178.62 144.87 178.75C145.74 178.88 146.43 179.5 146.66 180.35L150.77 195.93H163.61H171.19L180.3 168.91C180.83 167.33 182.3 166.28 183.96 166.28H254.01C255.67 166.28 257.14 167.34 257.67 168.91L266.78 195.93H274.37H287.22V195.94Z" fill="#08090F"/>
<path d="M179.23 45L185.71 54.67C188.04 58.14 191.95 60.21 196.19 60.21H241.83C246.06 60.21 249.98 58.14 252.3 54.67L258.77 45H179.23ZM219 57.31C216.36 57.31 214.21 55.21 214.21 52.61C214.21 50.01 216.35 47.91 219 47.91C221.65 47.91 223.79 50.01 223.79 52.61C223.79 55.2 221.64 57.31 219 57.31ZM231.39 52.09C230.21 52.09 229.26 51.15 229.26 50C229.26 48.85 230.21 47.91 231.39 47.91C232.57 47.91 233.52 48.85 233.52 50C233.52 51.15 232.56 52.09 231.39 52.09Z" fill="#08090F"/>
<path d="M89.86 205.85C93.2565 205.85 96.01 203.145 96.01 199.81C96.01 196.474 93.2565 193.77 89.86 193.77C86.4634 193.77 83.71 196.474 83.71 199.81C83.71 203.145 86.4634 205.85 89.86 205.85Z" fill="#ADB1CF"/>
<path d="M89.86 188.4C91.7543 188.4 93.29 186.891 93.29 185.03C93.29 183.169 91.7543 181.66 89.86 181.66C87.9657 181.66 86.43 183.169 86.43 185.03C86.43 186.891 87.9657 188.4 89.86 188.4Z" fill="#ADB1CF"/>
<path d="M348.14 205.85C351.537 205.85 354.29 203.145 354.29 199.81C354.29 196.474 351.537 193.77 348.14 193.77C344.743 193.77 341.99 196.474 341.99 199.81C341.99 203.145 344.743 205.85 348.14 205.85Z" fill="#ADB1CF"/>
<path d="M348.14 188.4C350.034 188.4 351.57 186.891 351.57 185.03C351.57 183.169 350.034 181.66 348.14 181.66C346.246 181.66 344.71 183.169 344.71 185.03C344.71 186.891 346.246 188.4 348.14 188.4Z" fill="#ADB1CF"/>
<path d="M219 57.3102C221.645 57.3102 223.79 55.2059 223.79 52.6102C223.79 50.0144 221.645 47.9102 219 47.9102C216.355 47.9102 214.21 50.0144 214.21 52.6102C214.21 55.2059 216.355 57.3102 219 57.3102Z" fill="#ADB1CF"/>
<path d="M231.39 52.0902C232.566 52.0902 233.52 51.1544 233.52 50.0002C233.52 48.8459 232.566 47.9102 231.39 47.9102C230.214 47.9102 229.26 48.8459 229.26 50.0002C229.26 51.1544 230.214 52.0902 231.39 52.0902Z" fill="#ADB1CF"/>
<defs>
<filter id="filter0_d_963_35945" x="0" y="0" width="438" height="438" filterUnits="userSpaceOnUse" color-interpolation-filters="sRGB">
<feFlood flood-opacity="0" result="BackgroundImageFix"/>
<feColorMatrix in="SourceAlpha" type="matrix" values="0 0 0 0 0 0 0 0 0 0 0 0 0 0 0 0 0 0 127 0" result="hardAlpha"/>
<feOffset dy="8"/>
<feGaussianBlur stdDeviation="6"/>
<feColorMatrix type="matrix" values="0 0 0 0 0.00784314 0 0 0 0 0.00784314 0 0 0 0 0.0156863 0 0 0 1 0"/>
<feBlend mode="normal" in2="BackgroundImageFix" result="effect1_dropShadow_963_35945"/>
<feBlend mode="normal" in="SourceGraphic" in2="effect1_dropShadow_963_35945" result="shape"/>
</filter>
</defs>
</svg>
