<svg width="302" height="335" viewBox="0 0 302 335" fill="none" xmlns="http://www.w3.org/2000/svg">
<path d="M33.9073 272.19L33.9047 272.18H34.28H55.17C55.1714 272.18 55.1724 272.18 55.173 272.18C55.1736 272.18 55.1748 272.182 55.1761 272.185C55.1766 272.186 55.1772 272.188 55.1777 272.19H34.55H33.9073ZM19.0473 226.278C19.2458 226.039 19.4997 225.867 19.7824 225.773C19.4983 225.869 19.2468 226.042 19.0473 226.278ZM0.884591 255.454L6.67766 246.138L0.886883 255.453C0.88661 255.454 0.886337 255.454 0.886065 255.454C0.64029 255.846 0.573758 256.326 0.684929 256.771L0.684886 256.771L0.686582 256.777L14.5366 309.207L14.6349 309.58H14.6309L14.7966 310.207L17.5266 320.547L17.5272 320.55C17.6156 320.878 17.7956 321.163 18.0366 321.377C17.7927 321.162 17.6102 320.875 17.5239 320.544L17.5234 320.542L0.684073 256.784C0.683969 256.784 0.683865 256.784 0.683761 256.783C0.567562 256.332 0.639036 255.845 0.883535 255.455L0.884591 255.454Z" fill="#3B4064" stroke="#3B4064"/>
<path d="M61.1224 203.27L61.1197 203.26H61.5H78.4741C78.4744 203.26 78.4749 203.261 78.4753 203.261C78.4773 203.263 78.4787 203.265 78.4794 203.267C78.4799 203.268 78.48 203.269 78.48 203.27H61.76H61.1224ZM36.5245 198.134L41.7483 189.742L36.5269 198.144C36.5266 198.144 36.5264 198.144 36.5261 198.145C36.2803 198.536 36.2138 199.016 36.3249 199.461L36.3249 199.461L36.3266 199.468L38.2479 206.745L36.3241 199.465C36.324 199.464 36.3239 199.464 36.3238 199.464C36.2076 199.013 36.279 198.525 36.5235 198.136L36.5245 198.134ZM49.32 243.75C49.3167 243.75 49.3133 243.75 49.31 243.75H49.32Z" fill="#3B4064" stroke="#3B4064"/>
<mask id="path-3-inside-1_963_35924" fill="white">
<path d="M301.54 255.19L283.53 226.22C283.06 225.47 282.23 225.08 281.36 225.21C280.49 225.34 279.8 225.96 279.57 226.81L267.72 271.67H246.83C246.55 271.67 246.33 271.89 246.33 272.17C246.33 272.45 246.55 272.67 246.83 272.67H267.46L264.73 283.01C264.59 283.53 264.12 283.89 263.59 283.89H250.9C250.62 283.89 250.4 284.11 250.4 284.39C250.4 284.67 250.62 284.89 250.9 284.89H263.59C264.58 284.89 265.45 284.22 265.7 283.26L280.55 227.05C280.67 226.58 281.04 226.25 281.52 226.18C282 226.11 282.44 226.31 282.7 226.73L300.71 255.7C300.88 255.98 300.93 256.32 300.85 256.64L287 309.05H259.39C259.11 309.05 258.89 309.27 258.89 309.55C258.89 309.83 259.11 310.05 259.39 310.05H286.73L284 320.39C283.86 320.91 283.39 321.27 282.86 321.27H263.5C263.22 321.27 263 321.49 263 321.77C263 322.05 263.22 322.27 263.5 322.27H282.84C283.83 322.27 284.7 321.6 284.95 320.64L301.79 256.88C301.95 256.33 301.86 255.7 301.54 255.19Z"/>
</mask>
<path d="M301.54 255.19L283.53 226.22C283.06 225.47 282.23 225.08 281.36 225.21C280.49 225.34 279.8 225.96 279.57 226.81L267.72 271.67H246.83C246.55 271.67 246.33 271.89 246.33 272.17C246.33 272.45 246.55 272.67 246.83 272.67H267.46L264.73 283.01C264.59 283.53 264.12 283.89 263.59 283.89H250.9C250.62 283.89 250.4 284.11 250.4 284.39C250.4 284.67 250.62 284.89 250.9 284.89H263.59C264.58 284.89 265.45 284.22 265.7 283.26L280.55 227.05C280.67 226.58 281.04 226.25 281.52 226.18C282 226.11 282.44 226.31 282.7 226.73L300.71 255.7C300.88 255.98 300.93 256.32 300.85 256.64L287 309.05H259.39C259.11 309.05 258.89 309.27 258.89 309.55C258.89 309.83 259.11 310.05 259.39 310.05H286.73L284 320.39C283.86 320.91 283.39 321.27 282.86 321.27H263.5C263.22 321.27 263 321.49 263 321.77C263 322.05 263.22 322.27 263.5 322.27H282.84C283.83 322.27 284.7 321.6 284.95 320.64L301.79 256.88C301.95 256.33 301.86 255.7 301.54 255.19Z" fill="#3B4064"/>
<path d="M301.54 255.19L300.691 255.718L300.693 255.722L301.54 255.19ZM283.53 226.22L284.379 225.692L284.377 225.689L283.53 226.22ZM279.57 226.81L278.605 226.549L278.603 226.555L279.57 226.81ZM267.72 271.67V272.67H268.49L268.687 271.926L267.72 271.67ZM267.46 272.67L268.427 272.926L268.758 271.67H267.46V272.67ZM264.73 283.01L265.696 283.27L265.697 283.266L264.73 283.01ZM265.7 283.26L264.733 283.005L264.732 283.008L265.7 283.26ZM280.55 227.05L281.517 227.306L281.519 227.298L280.55 227.05ZM282.7 226.73L281.85 227.257L281.851 227.258L282.7 226.73ZM300.71 255.7L301.565 255.181L301.559 255.172L300.71 255.7ZM300.85 256.64L301.817 256.896L301.82 256.883L300.85 256.64ZM287 309.05V310.05H287.77L287.967 309.306L287 309.05ZM286.73 310.05L287.697 310.306L288.028 309.05H286.73V310.05ZM284 320.39L284.966 320.65L284.967 320.646L284 320.39ZM284.95 320.64L283.983 320.385L283.982 320.388L284.95 320.64ZM301.79 256.88L300.83 256.601L300.826 256.613L300.823 256.625L301.79 256.88ZM302.389 254.662L284.379 225.692L282.681 226.748L300.691 255.718L302.389 254.662ZM284.377 225.689C283.701 224.609 282.484 224.031 281.212 224.221L281.508 226.199C281.976 226.129 282.419 226.331 282.683 226.751L284.377 225.689ZM281.212 224.221C279.945 224.411 278.937 225.32 278.605 226.549L280.535 227.071C280.663 226.601 281.035 226.27 281.508 226.199L281.212 224.221ZM278.603 226.555L266.753 271.415L268.687 271.926L280.537 227.066L278.603 226.555ZM267.72 270.67H246.83V272.67H267.72V270.67ZM246.83 270.67C245.998 270.67 245.33 271.338 245.33 272.17H247.33C247.33 272.443 247.102 272.67 246.83 272.67V270.67ZM245.33 272.17C245.33 273.003 245.998 273.67 246.83 273.67V271.67C247.102 271.67 247.33 271.898 247.33 272.17H245.33ZM246.83 273.67H267.46V271.67H246.83V273.67ZM266.493 272.415L263.763 282.755L265.697 283.266L268.427 272.926L266.493 272.415ZM263.764 282.75C263.741 282.838 263.664 282.89 263.59 282.89V284.89C264.576 284.89 265.439 284.223 265.696 283.27L263.764 282.75ZM263.59 282.89H250.9V284.89H263.59V282.89ZM250.9 282.89C250.068 282.89 249.4 283.558 249.4 284.39H251.4C251.4 284.663 251.172 284.89 250.9 284.89V282.89ZM249.4 284.39C249.4 285.223 250.068 285.89 250.9 285.89V283.89C251.172 283.89 251.4 284.118 251.4 284.39H249.4ZM250.9 285.89H263.59V283.89H250.9V285.89ZM263.59 285.89C265.034 285.89 266.303 284.914 266.668 283.512L264.732 283.008C264.597 283.527 264.126 283.89 263.59 283.89V285.89ZM266.667 283.516L281.517 227.306L279.583 226.795L264.733 283.005L266.667 283.516ZM281.519 227.298C281.531 227.25 281.551 227.225 281.567 227.21C281.584 227.195 281.613 227.177 281.664 227.17L281.376 225.191C280.5 225.318 279.802 225.938 279.581 226.803L281.519 227.298ZM281.664 227.17C281.724 227.161 281.756 227.171 281.772 227.179C281.788 227.186 281.817 227.204 281.85 227.257L283.55 226.204C283.079 225.442 282.246 225.064 281.376 225.191L281.664 227.17ZM281.851 227.258L299.861 256.228L301.559 255.172L283.549 226.202L281.851 227.258ZM299.855 256.219C299.884 256.267 299.896 256.333 299.88 256.398L301.82 256.883C301.964 256.308 301.876 255.693 301.565 255.181L299.855 256.219ZM299.883 256.385L286.033 308.795L287.967 309.306L301.817 256.896L299.883 256.385ZM287 308.05H259.39V310.05H287V308.05ZM259.39 308.05C258.558 308.05 257.89 308.718 257.89 309.55H259.89C259.89 309.823 259.662 310.05 259.39 310.05V308.05ZM257.89 309.55C257.89 310.383 258.558 311.05 259.39 311.05V309.05C259.662 309.05 259.89 309.278 259.89 309.55H257.89ZM259.39 311.05H286.73V309.05H259.39V311.05ZM285.763 309.795L283.033 320.135L284.967 320.646L287.697 310.306L285.763 309.795ZM283.034 320.13C283.011 320.218 282.934 320.27 282.86 320.27V322.27C283.846 322.27 284.709 321.603 284.966 320.65L283.034 320.13ZM282.86 320.27H263.5V322.27H282.86V320.27ZM263.5 320.27C262.668 320.27 262 320.938 262 321.77H264C264 322.043 263.772 322.27 263.5 322.27V320.27ZM262 321.77C262 322.603 262.668 323.27 263.5 323.27V321.27C263.772 321.27 264 321.498 264 321.77H262ZM263.5 323.27H282.84V321.27H263.5V323.27ZM282.84 323.27C284.284 323.27 285.553 322.294 285.918 320.892L283.982 320.388C283.847 320.907 283.376 321.27 282.84 321.27V323.27ZM285.917 320.896L302.757 257.136L300.823 256.625L283.983 320.385L285.917 320.896ZM302.75 257.16C302.993 256.326 302.853 255.402 302.387 254.659L300.693 255.722C300.867 255.999 300.907 256.335 300.83 256.601L302.75 257.16Z" fill="#3B4064" mask="url(#path-3-inside-1_963_35924)"/>
<path d="M240.993 202.868L246.305 182.765L240.898 203.24H240.895L240.993 202.868ZM238.593 211.958L239.717 207.711L238.597 211.952L238.596 211.954C238.404 212.693 237.733 213.21 236.97 213.21C237.728 213.21 238.395 212.696 238.593 211.96L238.593 211.958ZM265.694 199.435C265.707 199.385 265.718 199.335 265.726 199.284C265.718 199.335 265.708 199.385 265.696 199.435C265.696 199.435 265.696 199.436 265.695 199.437L263.773 206.71L265.693 199.438L265.694 199.435ZM254.323 242.468L255.908 236.475L254.327 242.462L254.326 242.464C254.146 243.157 253.544 243.655 252.841 243.714C253.54 243.655 254.137 243.16 254.323 242.47L254.323 242.468Z" fill="#3B4064" stroke="#3B4064"/>
<mask id="path-6-inside-2_963_35924" fill="white">
<path d="M294.81 0H7.19C3.23 0 0 3.17 0 7.07V145.87C0 149.77 3.23 152.94 7.19 152.94H10.03V167.22C10.03 168.4 11 169.36 12.2 169.36H21.35V197.8H15.7C15.42 197.8 15.2 198.02 15.2 198.3C15.2 198.58 15.42 198.8 15.7 198.8H28C28.28 198.8 28.5 198.58 28.5 198.3C28.5 198.02 28.28 197.8 28 197.8H22.35V169.36H31.5C32.7 169.36 33.67 168.4 33.67 167.22V152.94H64.17C64.09 153.29 64.08 153.65 64.17 154L71.6 182.14C71.85 183.1 72.72 183.77 73.71 183.77H85.21C85.49 183.77 85.71 183.55 85.71 183.27C85.71 182.99 85.49 182.77 85.21 182.77H73.71C73.17 182.77 72.71 182.41 72.57 181.89L71.06 176.18H87.77C88.05 176.18 88.27 175.96 88.27 175.68C88.27 175.4 88.05 175.18 87.77 175.18H70.81L65.15 153.75C65.07 153.43 65.12 153.09 65.29 152.82L75.56 136.31C75.82 135.9 76.25 135.69 76.74 135.77C77.22 135.84 77.58 136.17 77.71 136.64L83.6 158.93C83.85 159.89 84.72 160.56 85.71 160.56H93.07C93.35 160.56 93.57 160.34 93.57 160.06C93.57 159.78 93.35 159.56 93.07 159.56H85.7C85.16 159.56 84.7 159.2 84.56 158.68L83.05 152.97H95.62C95.9 152.97 96.12 152.75 96.12 152.47C96.12 152.19 95.9 151.97 95.62 151.97H82.78L78.67 136.39C78.44 135.53 77.76 134.92 76.88 134.79C76.01 134.66 75.17 135.04 74.71 135.8L64.65 151.98H33.68V131.93C33.68 130.75 32.71 129.79 31.51 129.79H12.21C11.01 129.79 10.04 130.75 10.04 131.93V151.98H7.19C3.78 151.98 1 149.26 1 145.91V7.07C1 3.72 3.78 1 7.19 1H110.02L116.87 11.23C119.38 14.98 123.61 17.22 128.18 17.22H173.82C178.39 17.22 182.61 14.98 185.12 11.23L191.98 1H294.82C298.23 1 301.01 3.72 301.01 7.07V145.87C301.01 149.22 298.23 151.94 294.82 151.94H291.98V131.89C291.98 130.71 291.01 129.75 289.81 129.75H270.51C269.31 129.75 268.34 130.71 268.34 131.89V151.94H237.37L227.31 135.77C226.84 135.02 226.01 134.63 225.14 134.76C224.26 134.89 223.58 135.51 223.35 136.36L219.24 151.94H206.4C206.12 151.94 205.9 152.16 205.9 152.44C205.9 152.72 206.12 152.94 206.4 152.94H218.97L217.46 158.65C217.32 159.17 216.85 159.53 216.32 159.53H208.96C208.68 159.53 208.46 159.75 208.46 160.03C208.46 160.31 208.68 160.53 208.96 160.53H216.32C217.31 160.53 218.18 159.86 218.43 158.9L224.32 136.61C224.44 136.14 224.81 135.81 225.29 135.74C225.77 135.67 226.21 135.87 226.47 136.29L236.74 152.8C236.91 153.08 236.96 153.42 236.88 153.73L231.22 175.16H214.25C213.97 175.16 213.75 175.38 213.75 175.66C213.75 175.94 213.97 176.16 214.25 176.16H230.96L229.45 181.87C229.31 182.39 228.84 182.75 228.31 182.75H216.81C216.53 182.75 216.31 182.97 216.31 183.25C216.31 183.53 216.53 183.75 216.81 183.75H228.31C229.3 183.75 230.17 183.08 230.42 182.12L237.85 153.98C237.94 153.63 237.93 153.27 237.85 152.92H268.35V167.2C268.35 168.38 269.32 169.34 270.52 169.34H279.67V197.78H274C273.72 197.78 273.5 198 273.5 198.28C273.5 198.56 273.72 198.78 274 198.78H286.29C286.57 198.78 286.79 198.56 286.79 198.28C286.79 198 286.57 197.78 286.29 197.78H280.64V169.34H289.79C290.99 169.34 291.96 168.38 291.96 167.2V152.92H294.8C298.76 152.92 301.99 149.75 301.99 145.85V7.07C302 3.17 298.78 0 294.81 0ZM11.03 131.89C11.03 131.26 11.56 130.75 12.2 130.75H31.5C32.15 130.75 32.67 131.26 32.67 131.89V167.23C32.67 167.86 32.14 168.37 31.5 168.37H12.2C11.55 168.37 11.03 167.86 11.03 167.23V131.89ZM184.29 10.67C181.96 14.14 178.05 16.21 173.82 16.21H128.18C123.95 16.21 120.03 14.14 117.7 10.67L111.23 1H190.77L184.29 10.67ZM290.97 167.23C290.97 167.86 290.44 168.37 289.8 168.37H270.5C269.85 168.37 269.33 167.86 269.33 167.23V131.89C269.33 131.26 269.86 130.75 270.5 130.75H289.8C290.45 130.75 290.97 131.26 290.97 131.89V167.23Z"/>
</mask>
<path d="M294.81 0H7.19C3.23 0 0 3.17 0 7.07V145.87C0 149.77 3.23 152.94 7.19 152.94H10.03V167.22C10.03 168.4 11 169.36 12.2 169.36H21.35V197.8H15.7C15.42 197.8 15.2 198.02 15.2 198.3C15.2 198.58 15.42 198.8 15.7 198.8H28C28.28 198.8 28.5 198.58 28.5 198.3C28.5 198.02 28.28 197.8 28 197.8H22.35V169.36H31.5C32.7 169.36 33.67 168.4 33.67 167.22V152.94H64.17C64.09 153.29 64.08 153.65 64.17 154L71.6 182.14C71.85 183.1 72.72 183.77 73.71 183.77H85.21C85.49 183.77 85.71 183.55 85.71 183.27C85.71 182.99 85.49 182.77 85.21 182.77H73.71C73.17 182.77 72.71 182.41 72.57 181.89L71.06 176.18H87.77C88.05 176.18 88.27 175.96 88.27 175.68C88.27 175.4 88.05 175.18 87.77 175.18H70.81L65.15 153.75C65.07 153.43 65.12 153.09 65.29 152.82L75.56 136.31C75.82 135.9 76.25 135.69 76.74 135.77C77.22 135.84 77.58 136.17 77.71 136.64L83.6 158.93C83.85 159.89 84.72 160.56 85.71 160.56H93.07C93.35 160.56 93.57 160.34 93.57 160.06C93.57 159.78 93.35 159.56 93.07 159.56H85.7C85.16 159.56 84.7 159.2 84.56 158.68L83.05 152.97H95.62C95.9 152.97 96.12 152.75 96.12 152.47C96.12 152.19 95.9 151.97 95.62 151.97H82.78L78.67 136.39C78.44 135.53 77.76 134.92 76.88 134.79C76.01 134.66 75.17 135.04 74.71 135.8L64.65 151.98H33.68V131.93C33.68 130.75 32.71 129.79 31.51 129.79H12.21C11.01 129.79 10.04 130.75 10.04 131.93V151.98H7.19C3.78 151.98 1 149.26 1 145.91V7.07C1 3.72 3.78 1 7.19 1H110.02L116.87 11.23C119.38 14.98 123.61 17.22 128.18 17.22H173.82C178.39 17.22 182.61 14.98 185.12 11.23L191.98 1H294.82C298.23 1 301.01 3.72 301.01 7.07V145.87C301.01 149.22 298.23 151.94 294.82 151.94H291.98V131.89C291.98 130.71 291.01 129.75 289.81 129.75H270.51C269.31 129.75 268.34 130.71 268.34 131.89V151.94H237.37L227.31 135.77C226.84 135.02 226.01 134.63 225.14 134.76C224.26 134.89 223.58 135.51 223.35 136.36L219.24 151.94H206.4C206.12 151.94 205.9 152.16 205.9 152.44C205.9 152.72 206.12 152.94 206.4 152.94H218.97L217.46 158.65C217.32 159.17 216.85 159.53 216.32 159.53H208.96C208.68 159.53 208.46 159.75 208.46 160.03C208.46 160.31 208.68 160.53 208.96 160.53H216.32C217.31 160.53 218.18 159.86 218.43 158.9L224.32 136.61C224.44 136.14 224.81 135.81 225.29 135.74C225.77 135.67 226.21 135.87 226.47 136.29L236.74 152.8C236.91 153.08 236.96 153.42 236.88 153.73L231.22 175.16H214.25C213.97 175.16 213.75 175.38 213.75 175.66C213.75 175.94 213.97 176.16 214.25 176.16H230.96L229.45 181.87C229.31 182.39 228.84 182.75 228.31 182.75H216.81C216.53 182.75 216.31 182.97 216.31 183.25C216.31 183.53 216.53 183.75 216.81 183.75H228.31C229.3 183.75 230.17 183.08 230.42 182.12L237.85 153.98C237.94 153.63 237.93 153.27 237.85 152.92H268.35V167.2C268.35 168.38 269.32 169.34 270.52 169.34H279.67V197.78H274C273.72 197.78 273.5 198 273.5 198.28C273.5 198.56 273.72 198.78 274 198.78H286.29C286.57 198.78 286.79 198.56 286.79 198.28C286.79 198 286.57 197.78 286.29 197.78H280.64V169.34H289.79C290.99 169.34 291.96 168.38 291.96 167.2V152.92H294.8C298.76 152.92 301.99 149.75 301.99 145.85V7.07C302 3.17 298.78 0 294.81 0ZM11.03 131.89C11.03 131.26 11.56 130.75 12.2 130.75H31.5C32.15 130.75 32.67 131.26 32.67 131.89V167.23C32.67 167.86 32.14 168.37 31.5 168.37H12.2C11.55 168.37 11.03 167.86 11.03 167.23V131.89ZM184.29 10.67C181.96 14.14 178.05 16.21 173.82 16.21H128.18C123.95 16.21 120.03 14.14 117.7 10.67L111.23 1H190.77L184.29 10.67ZM290.97 167.23C290.97 167.86 290.44 168.37 289.8 168.37H270.5C269.85 168.37 269.33 167.86 269.33 167.23V131.89C269.33 131.26 269.86 130.75 270.5 130.75H289.8C290.45 130.75 290.97 131.26 290.97 131.89V167.23Z" fill="#3B4064" stroke="#3B4064" stroke-width="2" mask="url(#path-6-inside-2_963_35924)"/>
<path d="M257.53 329.2L188.74 125.25C188.35 124.08 187.26 123.3 186.03 123.3H115.98C114.75 123.3 113.66 124.09 113.27 125.25L44.47 329.2C44.17 330.09 44.31 331.04 44.86 331.8C45.4 332.56 46.25 333 47.18 333H254.81C255.74 333 256.59 332.56 257.13 331.8C257.69 331.04 257.83 330.09 257.53 329.2ZM142.97 309.57L149.5 152.45H152.52L159.04 309.57H142.97Z" fill="#151724"/>
<path d="M31.5 130.75H12.2C11.55 130.75 11.03 131.26 11.03 131.89V167.23C11.03 167.86 11.56 168.37 12.2 168.37H31.5C32.15 168.37 32.67 167.86 32.67 167.23V131.89C32.68 131.26 32.15 130.75 31.5 130.75ZM21.86 137.66C23.75 137.66 25.29 139.17 25.29 141.03C25.29 142.89 23.76 144.4 21.86 144.4C19.96 144.4 18.43 142.89 18.43 141.03C18.43 139.17 19.96 137.66 21.86 137.66ZM21.86 161.85C18.47 161.85 15.71 159.15 15.71 155.81C15.71 152.47 18.46 149.77 21.86 149.77C25.26 149.77 28.01 152.47 28.01 155.81C28.01 159.15 25.25 161.85 21.86 161.85Z" fill="#020204"/>
<path d="M289.79 130.75H270.49C269.84 130.75 269.32 131.26 269.32 131.89V167.23C269.32 167.86 269.85 168.37 270.49 168.37H289.79C290.44 168.37 290.96 167.86 290.96 167.23V131.89C290.97 131.26 290.44 130.75 289.79 130.75Z" fill="#020204"/>
<path d="M258.47 328.88L189.68 124.93C189.15 123.35 187.68 122.3 186.02 122.3H115.97C114.31 122.3 112.84 123.36 112.31 124.93L43.52 328.88C43.12 330.08 43.31 331.36 44.04 332.39C44.77 333.42 45.92 334.01 47.18 334.01H254.81C256.07 334.01 257.21 333.42 257.95 332.39C258.69 331.36 258.88 330.08 258.47 328.88ZM257.15 331.8C256.6 332.56 255.76 333 254.82 333H47.18C46.24 333 45.4 332.56 44.85 331.8C44.31 331.04 44.17 330.09 44.47 329.2L113.26 125.25C113.65 124.08 114.74 123.3 115.97 123.3H186.02C187.25 123.3 188.34 124.09 188.73 125.25L257.52 329.2C257.83 330.09 257.69 331.03 257.15 331.8Z" fill="#3B4064"/>
<path d="M149.49 152.45L142.97 309.57H159.03L152.51 152.45H149.49Z" fill="#3B4064"/>
<path d="M219.22 151.94L223.33 136.36C223.56 135.5 224.24 134.89 225.12 134.76C225.99 134.62 226.83 135.01 227.29 135.77L237.35 151.94H268.32V131.89C268.32 130.71 269.29 129.75 270.49 129.75H289.79C290.99 129.75 291.96 130.71 291.96 131.89V151.94H294.8C298.21 151.94 300.99 149.22 300.99 145.87V7.07C300.99 3.72 298.21 1 294.8 1H191.98L185.13 11.23C182.62 14.98 178.39 17.22 173.83 17.22H128.19C123.62 17.22 119.4 14.98 116.88 11.23L110.02 1H7.19C3.78 1 1 3.72 1 7.07V145.87C1 149.22 3.78 151.94 7.19 151.94H10.03V131.89C10.03 130.71 11 129.75 12.2 129.75H31.5C32.7 129.75 33.67 130.71 33.67 131.89V151.94H64.64L74.7 135.76C75.17 135.01 76 134.62 76.87 134.75C77.74 134.88 78.43 135.5 78.66 136.35L82.77 151.93H95.61H103.19L112.3 124.91C112.83 123.33 114.3 122.28 115.96 122.28H186.01C187.67 122.28 189.14 123.34 189.67 124.91L198.78 151.93H206.37H219.22V151.94Z" fill="#08090F"/>
<path d="M111.23 1L117.71 10.67C120.04 14.14 123.95 16.21 128.19 16.21H173.83C178.06 16.21 181.98 14.14 184.3 10.67L190.77 1H111.23ZM151 13.31C148.36 13.31 146.21 11.21 146.21 8.61C146.21 6.01 148.35 3.91 151 3.91C153.65 3.91 155.79 6.01 155.79 8.61C155.79 11.2 153.64 13.31 151 13.31ZM163.39 8.09C162.21 8.09 161.26 7.15 161.26 6C161.26 4.85 162.21 3.91 163.39 3.91C164.57 3.91 165.52 4.85 165.52 6C165.52 7.15 164.56 8.09 163.39 8.09Z" fill="#08090F"/>
<path d="M21.86 161.85C25.2565 161.85 28.01 159.145 28.01 155.81C28.01 152.474 25.2565 149.77 21.86 149.77C18.4634 149.77 15.71 152.474 15.71 155.81C15.71 159.145 18.4634 161.85 21.86 161.85Z" fill="#ADB1CF"/>
<path d="M21.86 144.4C23.7543 144.4 25.29 142.891 25.29 141.03C25.29 139.169 23.7543 137.66 21.86 137.66C19.9657 137.66 18.43 139.169 18.43 141.03C18.43 142.891 19.9657 144.4 21.86 144.4Z" fill="#ADB1CF"/>
<path d="M280.14 161.85C283.537 161.85 286.29 159.145 286.29 155.81C286.29 152.474 283.537 149.77 280.14 149.77C276.743 149.77 273.99 152.474 273.99 155.81C273.99 159.145 276.743 161.85 280.14 161.85Z" fill="#ADB1CF"/>
<path d="M280.14 144.4C282.034 144.4 283.57 142.891 283.57 141.03C283.57 139.169 282.034 137.66 280.14 137.66C278.246 137.66 276.71 139.169 276.71 141.03C276.71 142.891 278.246 144.4 280.14 144.4Z" fill="#ADB1CF"/>
<path d="M151 13.3102C153.645 13.3102 155.79 11.2059 155.79 8.61016C155.79 6.01442 153.645 3.91016 151 3.91016C148.355 3.91016 146.21 6.01442 146.21 8.61016C146.21 11.2059 148.355 13.3102 151 13.3102Z" fill="#ADB1CF"/>
<path d="M163.39 8.09016C164.566 8.09016 165.52 7.15443 165.52 6.00016C165.52 4.84588 164.566 3.91016 163.39 3.91016C162.214 3.91016 161.26 4.84588 161.26 6.00016C161.26 7.15443 162.214 8.09016 163.39 8.09016Z" fill="#ADB1CF"/>
</svg>
