<svg id="login" xmlns="http://www.w3.org/2000/svg" viewBox="0 0 302 334"><defs><style>.cls-1{fill:#3b4064;}.cls-2{fill:#020204;}.cls-3{fill:#adb1cf;}.cls-4{fill:#08090f;}.cls-5{fill:#151724;}</style></defs><path id="_login_" data-name="&lt;login&gt;" class="cls-1" d="M55.1748,271.678H34.28387L22.43359,226.8139a2.179,2.179,0,0,0-3.95947-.59913L.46143,255.18827a2.20262,2.20262,0,0,0-.25782,1.721L17.044,320.66451a2.18524,2.18524,0,0,0,2.10888,1.629H38.49658a.50123.50123,0,0,0,0-1.00246H19.15283a1.18391,1.18391,0,0,1-1.14209-.883l-2.73089-10.33887H42.62012a.50123.50123,0,0,0,0-1.00246H15.015L1.17041,256.65281a1.19789,1.19789,0,0,1,.13965-.93492l18.01269-28.97252A1.141,1.141,0,0,1,20.5,226.20008a1.15458,1.15458,0,0,1,.9668.87031L36.313,283.27679a2.1861,2.1861,0,0,0,2.10889,1.629h12.686a.50123.50123,0,0,0,0-1.00246h-12.686a1.18434,1.18434,0,0,1-1.14209-.883l-2.73114-10.33985H55.1748a.50123.50123,0,0,0,0-1.00246Z"/><path id="_login_2" data-name="&lt;login&gt;" class="cls-1" d="M78.47852,202.75628H61.49609l-7.1875-27.21137a2.17874,2.17874,0,0,0-3.95947-.59864L36.0957,197.87221a2.20562,2.20562,0,0,0-.2583,1.721l11.36621,43.032a2.18612,2.18612,0,0,0,2.10889,1.629H64.81982a.50123.50123,0,0,0,0-1.00246H49.3125a1.18435,1.18435,0,0,1-1.14209-.883l-2.1377-8.09312H68.18506a.50123.50123,0,0,0,0-1.00246H45.76794L36.8042,199.33674a1.195,1.195,0,0,1,.14014-.93393l14.25341-22.92594a1.17936,1.17936,0,0,1,2.14405.32453l9.58984,36.30646a2.18612,2.18612,0,0,0,2.10889,1.629H75.11279a.50123.50123,0,0,0,0-1.00246H65.04053a1.18434,1.18434,0,0,1-1.14209-.883l-2.13758-8.09263H78.47852a.50123.50123,0,0,0,0-1.00246Z"/><path id="_login_3" data-name="&lt;login&gt;" class="cls-1" d="M301.53906,255.18729l-18.01367-28.97252a2.17865,2.17865,0,0,0-3.959.59913L267.71576,271.678H246.8252a.50123.50123,0,0,0,0,1.00246h20.62573l-2.7312,10.33985a1.18293,1.18293,0,0,1-1.14161.883H250.89258a.50123.50123,0,0,0,0,1.00246h12.68554a2.18425,2.18425,0,0,0,2.1084-1.629l14.84668-56.2064a1.17891,1.17891,0,0,1,2.14356-.325l18.01269,28.97154a1.19916,1.19916,0,0,1,.14063.9359l-13.845,52.41388H259.37988a.50123.50123,0,0,0,0,1.00246h27.3404l-2.731,10.33887a1.18292,1.18292,0,0,1-1.1416.883H263.50293a.50123.50123,0,0,0,0,1.00246h19.34473a2.18425,2.18425,0,0,0,2.10839-1.629l16.84083-63.75521A2.21253,2.21253,0,0,0,301.53906,255.18729Z"/><path id="_login_4" data-name="&lt;login&gt;" class="cls-1" d="M265.90527,197.87221l-14.2539-22.92545a2.179,2.179,0,0,0-3.96.59815l-7.1875,27.21137H223.52148a.50123.50123,0,0,0,0,1.00246h16.71766l-2.13758,8.09263a1.18292,1.18292,0,0,1-1.1416.883H226.88672a.50123.50123,0,0,0,0,1.00246H236.96a2.18427,2.18427,0,0,0,2.1084-1.629l9.58984-36.30646a1.17911,1.17911,0,0,1,2.14356-.32453l14.2539,22.92545a1.19455,1.19455,0,0,1,.13965.93442l-8.96374,33.93638H233.81445a.50123.50123,0,0,0,0,1.00246H255.9668l-2.1377,8.09312a1.18292,1.18292,0,0,1-1.1416.883H237.18066a.50123.50123,0,0,0,0,1.00246H252.6875a2.18426,2.18426,0,0,0,2.1084-1.629l11.36621-43.031A2.20456,2.20456,0,0,0,265.90527,197.87221Z"/><path id="_login_5" data-name="&lt;login&gt;" class="cls-2" d="M31.50488,130.7513H12.20557a1.15838,1.15838,0,0,0-1.17237,1.141v35.33532a1.15838,1.15838,0,0,0,1.17237,1.141H31.50488a1.15838,1.15838,0,0,0,1.17237-1.141V131.89229A1.15838,1.15838,0,0,0,31.50488,130.7513Zm-9.64953,6.91218a3.36562,3.36562,0,1,1-3.42609,3.36508A3.396,3.396,0,0,1,21.85535,137.66348Zm0,24.18465a6.03851,6.03851,0,1,1,6.147-6.03754A6.093,6.093,0,0,1,21.85535,161.84813Z"/><path id="_login_6" data-name="&lt;login&gt;" class="cls-2" d="M289.79492,130.7513h-19.2998a1.1588,1.1588,0,0,0-1.17285,1.141v35.33532a1.1588,1.1588,0,0,0,1.17285,1.141h19.2998a1.158,1.158,0,0,0,1.17188-1.141V131.89229A1.158,1.158,0,0,0,289.79492,130.7513Z"/><ellipse id="_login_7" data-name="&lt;login&gt;" class="cls-3" cx="21.85533" cy="155.81061" rx="6.14698" ry="6.03753"/><ellipse id="_login_8" data-name="&lt;login&gt;" class="cls-3" cx="21.85533" cy="141.02859" rx="3.42609" ry="3.36508"/><path id="_login_9" data-name="&lt;login&gt;" class="cls-4" d="M219.21942,151.94447l4.11456-15.57683a2.179,2.179,0,0,1,3.96-.59815l10.05694,16.175h30.97138V131.89229a2.16054,2.16054,0,0,1,2.17285-2.14345h19.2998a2.16032,2.16032,0,0,1,2.17188,2.14345v20.05218h2.84472A6.13661,6.13661,0,0,0,301,145.87585V7.07108a6.13661,6.13661,0,0,0-6.18848-6.06862H191.97638l-6.85333,10.2258a13.56123,13.56123,0,0,1-11.30469,5.98638H128.18164a13.56338,13.56338,0,0,1-11.30518-5.98638l-6.85284-10.2258H7.189A6.13672,6.13672,0,0,0,1,7.07108V145.87585a6.13672,6.13672,0,0,0,6.189,6.06862H10.0332V131.89229a2.16043,2.16043,0,0,1,2.17237-2.14345H31.50488a2.16043,2.16043,0,0,1,2.17237,2.14345v20.05218H64.64984L74.70654,135.769a2.17844,2.17844,0,0,1,3.959.59864l4.11456,15.57683h12.8371l.00213.00043h7.58454l9.114-27.02041a3.86211,3.86211,0,0,1,3.65918-2.63489h70.04639a3.86,3.86,0,0,1,3.6582,2.63489l9.114,27.02041h7.585l.00213-.00043Z"/><ellipse id="_login_10" data-name="&lt;login&gt;" class="cls-3" cx="280.14467" cy="155.81061" rx="6.14698" ry="6.03753"/><ellipse id="_login_11" data-name="&lt;login&gt;" class="cls-3" cx="280.14467" cy="141.02859" rx="3.42609" ry="3.36508"/><path class="cls-1" d="M258.47461,328.87609l-68.793-203.9516a3.86,3.86,0,0,0-3.6582-2.63489H115.97705a3.86211,3.86211,0,0,0-3.65918,2.63489l-68.793,203.9516A3.87692,3.87692,0,0,0,47.18408,334H254.81641a3.87636,3.87636,0,0,0,3.6582-5.12391Zm-1.32947,2.92123A2.83239,2.83239,0,0,1,254.816,332.998H47.18445a2.87473,2.87473,0,0,1-2.71362-3.80072l68.7929-203.95178a2.86413,2.86413,0,0,1,2.71369-1.95414H186.023a2.86583,2.86583,0,0,1,2.71362,1.95414l68.793,203.95178A2.85818,2.85818,0,0,1,257.14514,331.79732Z"/><polygon id="_login_12" data-name="&lt;login&gt;" class="cls-3" points="148.492 152.446 140.967 309.567 161.033 309.567 153.508 152.446 148.492 152.446"/><path id="_login_13" data-name="&lt;login&gt;" class="cls-1" d="M294.81152,0H7.189A7.13878,7.13878,0,0,0,0,7.07108V145.87585a7.13878,7.13878,0,0,0,7.189,7.07108H10.0332v14.28068a2.16043,2.16043,0,0,0,2.17237,2.14345h9.1499v28.44388h-5.647a.50123.50123,0,0,0,0,1.00246H28.00244a.50123.50123,0,0,0,0-1.00246h-5.647V169.37106h9.14941a2.16043,2.16043,0,0,0,2.17237-2.14345V152.94693H64.17657a2.19285,2.19285,0,0,0,.00458,1.05728l7.43262,28.13992a2.18526,2.18526,0,0,0,2.10889,1.629H85.21973a.50123.50123,0,0,0,0-1.00246H73.72266a1.18391,1.18391,0,0,1-1.14209-.883l-1.50824-5.71032H87.78027a.50123.50123,0,0,0,0-1.00246H70.8075L65.148,153.74773a1.19689,1.19689,0,0,1,.13965-.93394l10.26758-16.51468a1.13768,1.13768,0,0,1,1.17675-.5448,1.15342,1.15342,0,0,1,.9668.86982l5.8877,22.29009a2.18634,2.18634,0,0,0,2.10888,1.628h7.35987a.50124.50124,0,0,0,0-1.00247H85.69531a1.184,1.184,0,0,1-1.14209-.88254l-1.50836-5.71031H95.61719a.50123.50123,0,0,0,0-1.00246H82.78009l-4.11456-15.57683a2.17844,2.17844,0,0,0-3.959-.59864l-10.0567,16.17547H33.67725V131.89229a2.16043,2.16043,0,0,0-2.17237-2.14345H12.20557a2.16043,2.16043,0,0,0-2.17237,2.14345v20.05218H7.189A6.13672,6.13672,0,0,1,1,145.87585V7.07108A6.13672,6.13672,0,0,1,7.189,1.00246H110.02362l6.85284,10.2258a13.56338,13.56338,0,0,0,11.30518,5.98638h45.63672a13.56123,13.56123,0,0,0,11.30469-5.98638l6.85333-10.2258H294.81152A6.13661,6.13661,0,0,1,301,7.07108V145.87585a6.13661,6.13661,0,0,1-6.18848,6.06862H291.9668V131.89229a2.16032,2.16032,0,0,0-2.17188-2.14345h-19.2998a2.16054,2.16054,0,0,0-2.17285,2.14345v20.05218H237.35089l-10.05694-16.175a2.179,2.179,0,0,0-3.96.59815l-4.11456,15.57683H206.38281a.50123.50123,0,0,0,0,1.00246h12.57184l-1.50836,5.71031a1.18247,1.18247,0,0,1-1.1416.88254h-7.36035a.50124.50124,0,0,0,0,1.00247h7.36035a2.18439,2.18439,0,0,0,2.1084-1.62852l5.88769-22.2896a1.17911,1.17911,0,0,1,2.14356-.32453l10.26757,16.5137a1.199,1.199,0,0,1,.14063.93443l-5.66034,21.42713H214.21973a.50123.50123,0,0,0,0,1.00246h16.7077l-1.50848,5.71032a1.18293,1.18293,0,0,1-1.14161.883H216.78027a.50123.50123,0,0,0,0,1.00246h11.49707a2.18482,2.18482,0,0,0,2.1084-1.629l7.4336-28.13992a2.19739,2.19739,0,0,0,.00427-1.05728h30.49866v14.28068a2.16054,2.16054,0,0,0,2.17285,2.14345h9.14941v28.44388h-5.64648a.50123.50123,0,0,0,0,1.00246H286.292a.50123.50123,0,0,0,0-1.00246h-5.64746V169.37106h9.15039a2.16032,2.16032,0,0,0,2.17188-2.14345V152.94693h2.84472A7.13836,7.13836,0,0,0,302,145.87585V7.07108A7.13836,7.13836,0,0,0,294.81152,0ZM11.0332,131.89229a1.15838,1.15838,0,0,1,1.17237-1.141H31.50488a1.15838,1.15838,0,0,1,1.17237,1.141v35.33532a1.15838,1.15838,0,0,1-1.17237,1.141H12.20557a1.15838,1.15838,0,0,1-1.17237-1.141ZM184.293,10.66927a12.56294,12.56294,0,0,1-10.47461,5.54291H128.18164a12.56445,12.56445,0,0,1-10.4751-5.54291l-6.478-9.66681h79.543ZM290.9668,167.22761a1.158,1.158,0,0,1-1.17188,1.141h-19.2998a1.1588,1.1588,0,0,1-1.17285-1.141V131.89229a1.1588,1.1588,0,0,1,1.17285-1.141h19.2998a1.158,1.158,0,0,1,1.17188,1.141Z"/><path id="_login_14" data-name="&lt;login&gt;" class="cls-4" d="M111.22852,1.00246l6.478,9.66681a12.56445,12.56445,0,0,0,10.4751,5.54291h45.63672A12.56294,12.56294,0,0,0,184.293,10.66927l6.47851-9.66681ZM151,13.30875a4.70209,4.70209,0,1,1,4.78656-4.70131A4.74454,4.74454,0,0,1,151,13.30875Zm12.3866-5.22108a2.09113,2.09113,0,1,1,2.12866-2.09076A2.11,2.11,0,0,1,163.3866,8.08767Z"/><ellipse id="_login_15" data-name="&lt;login&gt;" class="cls-3" cx="151" cy="8.60743" rx="4.78653" ry="4.70131"/><ellipse id="_login_16" data-name="&lt;login&gt;" class="cls-3" cx="163.3866" cy="5.9969" rx="2.12868" ry="2.09078"/><path class="cls-5" d="M257.52734,329.19719l-68.793-203.9516a2.86187,2.86187,0,0,0-2.71094-1.95352H115.97705a2.86308,2.86308,0,0,0-2.71191,1.95352l-68.793,203.9516a2.87492,2.87492,0,0,0,2.71191,3.80035H254.81641a2.87436,2.87436,0,0,0,2.71093-3.80035ZM140.96667,309.5675l7.52509-157.122h5.01666l7.52491,157.122Z"/></svg>