<svg width="180" height="250" viewBox="0 0 180 250" fill="none" xmlns="http://www.w3.org/2000/svg">
<path fill-rule="evenodd" clip-rule="evenodd" d="M175.52 0H4.48C2.01 0 0 1.97 0 4.39V86.58C0 89 2.01 90.97 4.48 90.97H5.97V99.22C5.97 100.03 6.64 100.69 7.46 100.69H12.7V117.13H9.54C9.26 117.13 9.04 117.35 9.04 117.63C9.04 117.91 9.26 118.13 9.54 118.13H16.85C17.13 118.13 17.35 117.91 17.35 117.63C17.35 117.35 17.13 117.13 16.85 117.13H13.7V100.69H18.94C19.76 100.69 20.43 100.03 20.43 99.22V90.97H38.06V91.03L42.79 108.85C42.85 109.07 43.05 109.22 43.27 109.22H50.88C51.16 109.22 51.38 109 51.38 108.72C51.38 108.44 51.16 108.22 50.88 108.22H43.66L42.73 104.72H52.4C52.68 104.72 52.9 104.5 52.9 104.22C52.9 103.94 52.68 103.72 52.4 103.72H42.46L39.08 90.97L45.91 80.03L49.9 95.09C49.96 95.31 50.16 95.46 50.38 95.46H55.53C55.81 95.46 56.03 95.24 56.03 94.96C56.03 94.68 55.81 94.46 55.53 94.46H50.77L49.84 90.96H57.05C57.33 90.96 57.55 90.74 57.55 90.46C57.55 90.18 57.33 89.96 57.05 89.96H49.57L46.57 78.66C46.52 78.47 46.36 78.32 46.16 78.29C45.96 78.26 45.77 78.35 45.66 78.52L38.52 89.96H20.42V78.3C20.42 77.49 19.75 76.83 18.93 76.83H7.46C6.64 76.83 5.97 77.49 5.97 78.3V89.97H4.48C2.56 89.97 1 88.45 1 86.58V4.39C1 2.52 2.56 1 4.48 1H65.53L69.55 6.97C71.08 9.25 73.66 10.6 76.44 10.6H103.58C106.36 10.6 108.94 9.24 110.47 6.97L114.48 1H175.53C177.45 1 179.01 2.52 179.01 4.39V86.58C179.01 88.45 177.45 89.97 175.53 89.97H174.04V78.3C174.04 77.49 173.37 76.83 172.55 76.83H161.07C160.25 76.83 159.58 77.49 159.58 78.3V89.97H141.48L134.34 78.53C134.23 78.36 134.04 78.27 133.84 78.3C133.64 78.33 133.48 78.47 133.43 78.67L130.43 89.97H122.95C122.67 89.97 122.45 90.19 122.45 90.47C122.45 90.75 122.67 90.97 122.95 90.97H130.16L129.23 94.47H124.47C124.19 94.47 123.97 94.69 123.97 94.97C123.97 95.25 124.19 95.47 124.47 95.47H129.62C129.85 95.47 130.04 95.32 130.1 95.1L134.09 80.04L140.92 90.98L137.54 103.73H127.6C127.32 103.73 127.1 103.95 127.1 104.23C127.1 104.51 127.32 104.73 127.6 104.73H137.27L136.34 108.23H129.12C128.84 108.23 128.62 108.45 128.62 108.73C128.62 109.01 128.84 109.23 129.12 109.23H136.73C136.96 109.23 137.15 109.08 137.21 108.86L141.94 91.04V90.98H159.57V99.23C159.57 100.04 160.24 100.7 161.06 100.7H166.3V117.14H163.14C162.86 117.14 162.64 117.36 162.64 117.64C162.64 117.92 162.86 118.14 163.14 118.14H170.45C170.73 118.14 170.95 117.92 170.95 117.64C170.95 117.36 170.73 117.14 170.45 117.14H167.29V100.7H172.53C173.35 100.7 174.02 100.04 174.02 99.23V90.98H175.51C177.98 90.98 179.99 89.01 179.99 86.59V4.39C180 1.97 177.99 0 175.52 0ZM6.97 78.3C6.97 78.04 7.19 77.83 7.46 77.83H18.94C19.21 77.83 19.43 78.04 19.43 78.3V99.22C19.43 99.48 19.21 99.69 18.94 99.69H7.46C7.19 99.69 6.97 99.48 6.97 99.22V78.3ZM109.63 6.41C108.28 8.41 106.02 9.6 103.57 9.6H76.43C73.98 9.6 71.71 8.41 70.37 6.41L66.73 1H113.27L109.63 6.41ZM173.03 99.22C173.03 99.48 172.81 99.69 172.54 99.69H161.06C160.79 99.69 160.57 99.48 160.57 99.22V78.3C160.57 78.04 160.79 77.83 161.06 77.83H172.54C172.81 77.83 173.03 78.04 173.03 78.3V99.22ZM112.74 72.75C112.67 72.55 112.48 72.41 112.27 72.41H67.74C67.53 72.41 67.34 72.55 67.27 72.75L25 197.51C24.95 197.66 24.97 197.83 25.07 197.96C25.17 198.09 25.32 198.17 25.48 198.17H56.5V237.5C56.5 244.39 62.11 250 69 250H111C117.89 250 123.5 244.39 123.5 237.5V198.17H154.53C154.69 198.17 154.84 198.09 154.94 197.96C155.04 197.83 155.06 197.66 155.01 197.51L112.74 72.75ZM122.5 237.5C122.5 243.84 117.34 249 111 249H69C62.66 249 57.5 243.84 57.5 237.5V195.5C57.5 189.16 62.66 184 69 184H111C117.34 184 122.5 189.16 122.5 195.5V237.5ZM84.56 183L88.99 90.97H91.02L95.44 183H84.56ZM123.5 197.17V195.5C123.5 188.61 117.89 183 111 183H96.44L91.99 90.44C91.98 90.17 91.76 89.96 91.49 89.96H88.51C88.24 89.96 88.02 90.17 88.01 90.44L83.56 183H69C62.11 183 56.5 188.61 56.5 195.5V197.17H26.17L68.1 73.41H111.91L153.84 197.17H123.5ZM11.21 190.24H23.1C23.37 190.24 23.6 190.45 23.6 190.73C23.6 191.01 23.38 191.23 23.1 191.23H10.82C10.6 191.23 10.4 191.08 10.34 190.86L0.0200002 151.95C-0.00999976 151.82 0.0100002 151.68 0.0800002 151.56L12.24 132.07C12.35 131.9 12.54 131.81 12.74 131.84C12.94 131.87 13.1 132.02 13.15 132.21L20.75 160.86H33.01C33.29 160.86 33.51 161.08 33.51 161.36C33.51 161.64 33.29 161.86 33.01 161.86H21.01L22.66 168.1H30.59C30.87 168.1 31.09 168.32 31.09 168.6C31.09 168.88 30.87 169.1 30.59 169.1H22.28C22.06 169.1 21.86 168.95 21.8 168.73L12.48 133.59L1.04 151.91L9.29 183H25.55C25.83 183 26.05 183.22 26.05 183.5C26.05 183.78 25.83 184 25.55 184H9.55L11.21 190.24ZM47.37 120.55C47.37 120.27 47.15 120.05 46.87 120.05H36.93L32.1 101.86C32.05 101.67 31.89 101.52 31.69 101.49C31.49 101.46 31.3 101.55 31.19 101.72L21.26 117.62C21.19 117.74 21.17 117.88 21.2 118.01L28.27 144.65C28.33 144.87 28.53 145.02 28.75 145.02H38.74C39.02 145.02 39.24 144.8 39.24 144.52C39.24 144.24 39.02 144.02 38.74 144.02H29.13L27.83 139.11H40.74C41.02 139.11 41.24 138.89 41.24 138.61C41.24 138.33 41.02 138.11 40.74 138.11H27.58L22.23 117.96L31.43 103.22L37.63 126.58C37.69 126.8 37.89 126.95 38.11 126.95H44.87C45.15 126.95 45.37 126.73 45.37 126.45C45.37 126.17 45.15 125.95 44.87 125.95H38.5L37.2 121.04H46.88C47.15 121.05 47.37 120.83 47.37 120.55ZM167.26 131.85C167.46 131.82 167.66 131.91 167.76 132.08L179.91 151.57C179.98 151.68 180.01 151.83 179.97 151.96L169.65 190.87C169.59 191.09 169.4 191.24 169.17 191.24H156.9C156.62 191.24 156.4 191.02 156.4 190.74C156.4 190.46 156.62 190.24 156.9 190.24H168.79L170.44 184H154.45C154.17 184 153.95 183.78 153.95 183.5C153.95 183.22 154.17 183 154.45 183H170.71L178.95 151.92L167.51 133.6L158.19 168.74C158.13 168.96 157.94 169.11 157.71 169.11H149.4C149.12 169.11 148.9 168.89 148.9 168.61C148.9 168.33 149.12 168.11 149.4 168.11H157.33L158.98 161.87H146.98C146.7 161.87 146.48 161.65 146.48 161.37C146.48 161.09 146.7 160.87 146.98 160.87H159.25L166.85 132.22C166.9 132.02 167.06 131.88 167.26 131.85ZM141.25 144.03C140.97 144.03 140.75 144.25 140.75 144.53C140.75 144.81 140.97 145.03 141.25 145.03H151.24C151.47 145.03 151.66 144.88 151.72 144.66L158.79 118.02C158.83 117.89 158.8 117.74 158.73 117.63L148.8 101.73C148.7 101.56 148.5 101.47 148.3 101.5C148.1 101.53 147.94 101.67 147.89 101.87L143.06 120.06H133.12C132.84 120.06 132.62 120.28 132.62 120.56C132.62 120.84 132.84 121.06 133.12 121.06H142.8L141.5 125.97H135.13C134.85 125.97 134.63 126.19 134.63 126.47C134.63 126.75 134.85 126.97 135.13 126.97H141.89C142.12 126.97 142.31 126.82 142.37 126.6L148.57 103.24L157.77 117.98L152.42 138.13H139.25C138.97 138.13 138.75 138.35 138.75 138.63C138.75 138.91 138.97 139.13 139.25 139.13H152.16L150.86 144.04H141.25V144.03ZM92.85 5.30002C92.85 6.83002 91.57 8.08002 90 8.08002C88.43 8.08002 87.15 6.84002 87.15 5.30002C87.15 3.77002 88.42 2.52002 90 2.52002C91.58 2.52002 92.85 3.76002 92.85 5.30002ZM97.37 4.99001C98.07 4.99001 98.64 4.44001 98.64 3.75001C98.64 3.07001 98.07 2.51001 97.37 2.51001C96.67 2.51001 96.1 3.06001 96.1 3.75001C96.1 4.44001 96.67 4.99001 97.37 4.99001ZM16.86 92.46C16.86 94.43 15.22 96.03 13.2 96.03C11.18 96.03 9.54001 94.43 9.54001 92.46C9.54001 90.49 11.18 88.89 13.2 88.89C15.22 88.89 16.86 90.49 16.86 92.46ZM13.2 85.7C14.33 85.7 15.24 84.81 15.24 83.71C15.24 82.61 14.33 81.72 13.2 81.72C12.07 81.72 11.16 82.61 11.16 83.71C11.16 84.81 12.07 85.7 13.2 85.7ZM163.14 92.45C163.14 90.48 164.78 88.88 166.8 88.88C168.82 88.88 170.46 90.48 170.46 92.45C170.46 94.42 168.82 96.02 166.8 96.02C164.78 96.02 163.14 94.42 163.14 92.45ZM166.8 85.7C167.93 85.7 168.84 84.81 168.84 83.71C168.84 82.61 167.93 81.72 166.8 81.72C165.67 81.72 164.76 82.61 164.76 83.71C164.76 84.81 165.68 85.7 166.8 85.7ZM95.21 211.29H105.29C108.17 211.29 110.52 213.62 110.52 216.5C110.52 219.38 108.18 221.71 105.31 221.71H95.22V231.8C95.22 234.68 92.88 237.01 90.01 237.01C87.14 237.01 84.8 234.67 84.8 231.8V221.71H74.71C71.84 221.71 69.5 219.38 69.5 216.5C69.5 213.62 71.84 211.29 74.71 211.29H84.79V201.2C84.79 198.32 87.13 195.99 90 195.99C92.88 195.99 95.21 198.33 95.21 201.2V211.29ZM94.71 220.71H105.29C107.61 220.71 109.52 218.82 109.52 216.5C109.52 214.18 107.63 212.29 105.31 212.29H94.72C94.44 212.29 94.22 212.07 94.22 211.79V201.2C94.22 198.88 92.33 196.99 90.01 196.99C87.69 196.99 85.8 198.88 85.8 201.2V211.79C85.8 212.07 85.58 212.29 85.3 212.29H74.71C72.39 212.29 70.5 214.18 70.5 216.5C70.5 218.82 72.39 220.71 74.71 220.71H85.29C85.57 220.71 85.79 220.93 85.79 221.21V231.8C85.79 234.12 87.68 236.01 90 236.01C92.32 236.01 94.21 234.12 94.21 231.8V221.21C94.21 220.93 94.43 220.71 94.71 220.71Z" fill="#090909"/>
</svg>
