<svg width="180" height="250" viewBox="0 0 180 250" fill="none" xmlns="http://www.w3.org/2000/svg">
<path fill-rule="evenodd" clip-rule="evenodd" d="M177.5 71.07C178.88 71.07 180 69.95 180 68.57V48.57C180 47.19 178.88 46.07 177.5 46.07H170V4.39C170 1.97 167.99 0 165.52 0H14.48C12.01 0 10 1.97 10 4.39V38.4C3.93 43.05 0 50.36 0 58.58C0 66.8 3.93 74.11 10 78.75V193.78C10 196.2 12.01 198.17 14.48 198.17H56.5V237.5C56.5 244.39 62.11 250 69 250H111C117.89 250 123.5 244.39 123.5 237.5V198.17H165.52C167.99 198.17 170 196.2 170 193.78V161.08H177.5C178.88 161.08 180 159.96 180 158.58V138.58C180 137.2 178.88 136.08 177.5 136.08H170V131.08H177.5C178.88 131.08 180 129.96 180 128.58V108.58C180 107.2 178.88 106.08 177.5 106.08H170V101.08H177.5C178.88 101.08 180 99.96 180 98.58V78.58C180 77.2 178.88 76.08 177.5 76.08H170V71.08H177.5V71.07ZM179 48.57V68.57C179 69.4 178.33 70.07 177.5 70.07H101.24C100.41 70.07 99.74 69.4 99.74 68.57V48.57C99.74 47.74 100.41 47.07 101.24 47.07H177.5C178.33 47.07 179 47.75 179 48.57ZM101.24 76.07C99.86 76.07 98.74 77.19 98.74 78.57V98.57C98.74 99.95 99.86 101.07 101.24 101.07H163V106.07H101.24C99.86 106.07 98.74 107.19 98.74 108.57V128.57C98.74 129.95 99.86 131.07 101.24 131.07H163V136.07H101.24C99.86 136.07 98.74 137.19 98.74 138.57V158.57C98.74 159.95 99.86 161.07 101.24 161.07H163V187.66C163 188.49 162.33 189.16 161.5 189.16H121.76C119.58 185.48 115.58 182.99 111 182.99H69C64.42 182.99 60.42 185.47 58.24 189.16H18.5C17.67 189.16 17 188.49 17 187.66V82.53C19.63 83.45 22.44 83.96 25.38 83.96C39.37 83.96 50.76 72.57 50.76 58.58C50.76 44.58 39.37 33.2 25.38 33.2C22.44 33.2 19.62 33.71 17 34.63V8.5C17 7.67 17.67 7 18.5 7H69.57C71.1 9.25 73.67 10.6 76.43 10.6H103.57C106.34 10.6 108.9 9.25 110.43 7H161.5C162.33 7 163 7.67 163 8.5V46.07H101.24C99.86 46.07 98.74 47.19 98.74 48.57V68.57C98.74 69.95 99.86 71.07 101.24 71.07H163V76.07H101.24ZM169 4.39V46.07H164V8.5C164 7.12 162.88 6 161.5 6H111.11L114.48 1H165.53C167.44 1 169 2.52 169 4.39ZM113.27 1L109.63 6.41C108.28 8.41 106.02 9.6 103.57 9.6H76.43C73.98 9.6 71.71 8.41 70.37 6.41L66.73 1H113.27ZM11 4.39C11 2.52 12.56 1 14.48 1H65.53L68.9 6H18.5C17.12 6 16 7.12 16 8.5V35C14.23 35.71 12.55 36.61 11 37.68V4.39ZM1 58.58C1 45.14 11.94 34.2 25.38 34.2C38.82 34.2 49.76 45.14 49.76 58.58C49.76 72.02 38.82 82.96 25.38 82.96C11.94 82.96 1 72.02 1 58.58ZM14.48 197.17C12.56 197.17 11 195.65 11 193.78V79.47C12.55 80.54 14.23 81.44 16 82.15V187.67C16 189.05 17.12 190.17 18.5 190.17H57.71C56.94 191.79 56.5 193.59 56.5 195.5V197.17H14.48ZM122.5 237.5C122.5 243.84 117.34 249 111 249H69C62.66 249 57.5 243.84 57.5 237.5V195.5C57.5 189.16 62.66 184 69 184H111C117.34 184 122.5 189.16 122.5 195.5V237.5ZM169 193.78C169 195.65 167.44 197.17 165.52 197.17H123.5V195.5C123.5 193.59 123.06 191.79 122.29 190.17H161.5C162.88 190.17 164 189.05 164 187.67V161.08H169V193.78ZM179 138.57V158.57C179 159.4 178.33 160.07 177.5 160.07H101.24C100.41 160.07 99.74 159.4 99.74 158.57V138.57C99.74 137.74 100.41 137.07 101.24 137.07H177.5C178.33 137.07 179 137.75 179 138.57ZM169 136.07H164V131.07H169V136.07ZM179 108.57V128.57C179 129.4 178.33 130.07 177.5 130.07H101.24C100.41 130.07 99.74 129.4 99.74 128.57V108.57C99.74 107.74 100.41 107.07 101.24 107.07H177.5C178.33 107.07 179 107.75 179 108.57ZM169 106.07H164V101.07H169V106.07ZM179 78.57V98.57C179 99.4 178.33 100.07 177.5 100.07H101.24C100.41 100.07 99.74 99.4 99.74 98.57V78.57C99.74 77.74 100.41 77.07 101.24 77.07H177.5C178.33 77.07 179 77.75 179 78.57ZM169 76.07H164V71.07H169V76.07ZM90 8.14995C91.57 8.14995 92.85 6.87995 92.85 5.29995C92.85 3.72995 91.58 2.44995 90 2.44995C88.42 2.44995 87.15 3.71995 87.15 5.29995C87.15 6.86995 88.43 8.14995 90 8.14995ZM97.37 5.05001C98.07 5.05001 98.64 4.48001 98.64 3.78001C98.64 3.08001 98.07 2.51001 97.37 2.51001C96.67 2.51001 96.1 3.08001 96.1 3.78001C96.1 4.48001 96.67 5.05001 97.37 5.05001ZM81.88 198.54L108.7 213.44C109.83 214.07 110.5 215.22 110.5 216.51C110.5 217.8 109.83 218.94 108.7 219.57L81.88 234.47C81.35 234.76 80.76 234.91 80.18 234.91C79.57 234.91 78.96 234.75 78.41 234.42C77.33 233.78 76.68 232.65 76.68 231.4V201.6C76.68 200.34 77.33 199.22 78.41 198.58C79.48 197.95 80.78 197.93 81.88 198.54ZM81.39 233.58L108.21 218.68C109.02 218.24 109.5 217.42 109.5 216.5C109.5 215.58 109.02 214.77 108.21 214.32L81.39 199.42C81.01 199.21 80.6 199.1 80.18 199.1C79.74 199.1 79.31 199.22 78.91 199.45C78.14 199.9 77.68 200.7 77.68 201.6V231.4C77.68 232.29 78.14 233.1 78.91 233.55C79.68 234 80.61 234.01 81.39 233.58ZM43.15 193.17H36.5C36.22 193.17 36 193.39 36 193.67C36 193.95 36.22 194.17 36.5 194.17H43.15C43.43 194.17 43.65 193.95 43.65 193.67C43.65 193.39 43.42 193.17 43.15 193.17ZM136.85 193.17H143.5C143.78 193.17 144 193.39 144 193.67C144 193.95 143.78 194.17 143.5 194.17H136.85C136.57 194.17 136.35 193.95 136.35 193.67C136.35 193.39 136.57 193.17 136.85 193.17ZM71.39 100.07H26.5C26.22 100.07 26 100.29 26 100.57C26 100.85 26.22 101.07 26.5 101.07H71.39C71.67 101.07 71.89 100.85 71.89 100.57C71.89 100.29 71.66 100.07 71.39 100.07ZM26.5 118.07H71.39C71.66 118.07 71.89 118.29 71.89 118.57C71.89 118.85 71.67 119.07 71.39 119.07H26.5C26.22 119.07 26 118.85 26 118.57C26 118.29 26.22 118.07 26.5 118.07ZM51.39 136.07H26.5C26.22 136.07 26 136.29 26 136.57C26 136.85 26.22 137.07 26.5 137.07H51.39C51.67 137.07 51.89 136.85 51.89 136.57C51.89 136.29 51.66 136.07 51.39 136.07ZM41.72 46.26C42.46 47 42.88 48.02 42.88 49.05C42.88 50 42.53 50.89 41.89 51.54L22.53 71.07C21.96 71.64 21.21 71.97 20.34 72.05C20.18 72.07 20.03 72.08 19.88 72.08C18.94 72.08 18.06 71.73 17.42 71.08L8.87 62.43C8.23 61.77 7.88 60.89 7.88 59.94C7.88 58.91 8.31001 57.89 9.05 57.15C10.49 55.71 12.96 55.63 14.3 56.99L19.74 62.5C19.8 62.57 19.88 62.6 19.97 62.6C20.06 62.6 20.14 62.56 20.2 62.5L36.47 46.09C37.12 45.44 37.99 45.08 38.94 45.08C39.96 45.08 40.98 45.51 41.72 46.26ZM21.81 70.36L41.17 50.83C41.63 50.37 41.88 49.74 41.89 49.05C41.89 48.28 41.57 47.52 41.01 46.96C40.45 46.39 39.7 46.07 38.94 46.07C38.26 46.07 37.64 46.33 37.18 46.79L20.91 63.2C20.66 63.45 20.33 63.59 19.97 63.59C19.61 63.59 19.28 63.45 19.03 63.2L13.59 57.69C13.13 57.23 12.5 56.97 11.82 56.97C11.07 56.97 10.32 57.29 9.76 57.85C9.2 58.41 8.88 59.17 8.88 59.94C8.87 60.63 9.12 61.26 9.58 61.72L18.13 70.37C18.65 70.9 19.41 71.15 20.23 71.05C20.89 70.99 21.41 70.76 21.81 70.36ZM119.99 59.0699H104.64C104.36 59.0699 104.14 58.8499 104.14 58.5699C104.14 58.2899 104.36 58.0699 104.64 58.0699H119.99C120.27 58.0699 120.49 58.2899 120.49 58.5699C120.49 58.8499 120.27 59.0699 119.99 59.0699ZM125.64 59.0699H174.51C174.79 59.0699 175.01 58.8499 175.01 58.5699C175.01 58.2899 174.79 58.0699 174.51 58.0699H125.64C125.36 58.0699 125.14 58.2899 125.14 58.5699C125.14 58.8499 125.36 59.0699 125.64 59.0699ZM90 55.1801C91.87 55.1801 93.39 56.7001 93.39 58.5701C93.39 60.2701 92.13 61.6701 90.5 61.9101V85.2301C92.13 85.4701 93.39 86.8701 93.39 88.5701C93.39 90.2701 92.13 91.6701 90.5 91.9101V115.23C92.13 115.47 93.39 116.87 93.39 118.57C93.39 120.27 92.13 121.67 90.5 121.91V145.23C92.13 145.47 93.39 146.87 93.39 148.57C93.39 150.44 91.87 151.96 90 151.96C88.13 151.96 86.61 150.44 86.61 148.57C86.61 146.87 87.87 145.47 89.5 145.23V121.91C87.87 121.67 86.61 120.27 86.61 118.57C86.61 116.87 87.87 115.47 89.5 115.23V91.9101C87.87 91.6701 86.61 90.2701 86.61 88.5701C86.61 86.8701 87.87 85.4701 89.5 85.2301V61.9101C87.87 61.6701 86.61 60.2701 86.61 58.5701C86.61 56.7001 88.13 55.1801 90 55.1801ZM90 56.1801C88.68 56.1801 87.61 57.2501 87.61 58.5701C87.61 59.8901 88.68 60.9601 90 60.9601C91.32 60.9601 92.39 59.8901 92.39 58.5701C92.39 57.2501 91.32 56.1801 90 56.1801ZM90 150.96C91.32 150.96 92.39 149.89 92.39 148.57C92.39 147.26 91.32 146.18 90 146.18C88.68 146.18 87.61 147.25 87.61 148.57C87.61 149.89 88.68 150.96 90 150.96ZM90 120.96C91.32 120.96 92.39 119.89 92.39 118.57C92.39 117.26 91.32 116.18 90 116.18C88.68 116.18 87.61 117.25 87.61 118.57C87.61 119.89 88.68 120.96 90 120.96ZM90 90.9601C91.32 90.9601 92.39 89.8901 92.39 88.5701C92.39 87.2601 91.32 86.1801 90 86.1801C88.68 86.1801 87.61 87.2501 87.61 88.5701C87.61 89.8901 88.68 90.9601 90 90.9601ZM104.64 89.0699H119.99C120.27 89.0699 120.49 88.8499 120.49 88.5699C120.49 88.2899 120.27 88.0699 119.99 88.0699H104.64C104.36 88.0699 104.14 88.2899 104.14 88.5699C104.14 88.8499 104.36 89.0699 104.64 89.0699ZM174.51 89.0699H125.64C125.36 89.0699 125.14 88.8499 125.14 88.5699C125.14 88.2899 125.36 88.0699 125.64 88.0699H174.51C174.79 88.0699 175.01 88.2899 175.01 88.5699C175.01 88.8499 174.79 89.0699 174.51 89.0699ZM104.64 119.07H119.99C120.27 119.07 120.49 118.85 120.49 118.57C120.49 118.29 120.27 118.07 119.99 118.07H104.64C104.36 118.07 104.14 118.29 104.14 118.57C104.14 118.85 104.36 119.07 104.64 119.07ZM174.51 119.07H125.64C125.36 119.07 125.14 118.85 125.14 118.57C125.14 118.29 125.36 118.07 125.64 118.07H174.51C174.79 118.07 175.01 118.29 175.01 118.57C175.01 118.85 174.79 119.07 174.51 119.07ZM104.64 149.07H119.99C120.27 149.07 120.49 148.85 120.49 148.57C120.49 148.29 120.27 148.07 119.99 148.07H104.64C104.36 148.07 104.14 148.29 104.14 148.57C104.14 148.85 104.36 149.07 104.64 149.07ZM174.51 149.07H125.64C125.36 149.07 125.14 148.85 125.14 148.57C125.14 148.29 125.36 148.07 125.64 148.07H174.51C174.79 148.07 175.01 148.29 175.01 148.57C175.01 148.85 174.79 149.07 174.51 149.07Z" fill="#090909"/>
</svg>
