<svg width="154" height="21" viewBox="0 0 154 21" fill="none" xmlns="http://www.w3.org/2000/svg">
<mask id="path-1-outside-1_202_42" maskUnits="userSpaceOnUse" x="0" y="0" width="154" height="21" fill="black">
<rect fill="white" width="154" height="21"/>
<path d="M2 1.25213H4.45802L11.3655 10.0047H11.5704L18.4779 1.25213H20.9359L12.5263 11.7066V19.6938H10.4096V11.7066L2 1.25213Z"/>
<path d="M41.6625 10.473C41.6625 12.394 41.23 14.0659 40.3652 15.4886C39.5003 16.9054 38.3092 18.0039 36.7919 18.7844C35.2822 19.5588 33.5449 19.946 31.58 19.946C29.6151 19.946 27.874 19.5588 26.3567 18.7844C24.847 18.0039 23.6597 16.9054 22.7949 15.4886C21.9376 14.0659 21.509 12.394 21.509 10.473C21.509 8.55197 21.9376 6.8831 22.7949 5.46635C23.6597 4.0436 24.8508 2.94502 26.3681 2.17062C27.8854 1.39021 29.6227 1 31.58 1C33.5449 1 35.2822 1.39021 36.7919 2.17062C38.3092 2.94502 39.5003 4.0436 40.3652 5.46635C41.23 6.8831 41.6625 8.55197 41.6625 10.473ZM39.5914 10.473C39.5914 8.82212 39.2424 7.40837 38.5444 6.23175C37.8465 5.04913 36.8944 4.14566 35.6881 3.52133C34.4819 2.897 33.1125 2.58483 31.58 2.58483C30.0551 2.58483 28.6896 2.897 27.4833 3.52133C26.2771 4.14566 25.3212 5.04613 24.6156 6.22275C23.9177 7.39937 23.5687 8.81611 23.5687 10.473C23.5687 12.1239 23.9177 13.5376 24.6156 14.7142C25.3136 15.8908 26.2657 16.7943 27.4719 17.4246C28.6782 18.049 30.0475 18.3611 31.58 18.3611C33.1125 18.3611 34.4819 18.049 35.6881 17.4246C36.9019 16.8003 37.8578 15.8998 38.5558 14.7232C39.2538 13.5406 39.5989 12.1239 39.5914 10.473Z"/>
<path d="M52.355 19.6938H45.5271V1.25213H52.7646C54.9875 1.25213 56.8879 1.61833 58.4659 2.35071C60.0515 3.0831 61.2653 4.13365 62.1074 5.50237C62.9495 6.87109 63.3706 8.51295 63.3706 10.428C63.3706 12.361 62.9381 14.0209 62.0733 15.4076C61.216 16.7883 59.9642 17.8479 58.318 18.5863C56.6793 19.3246 54.6916 19.6938 52.355 19.6938ZM47.6551 18.181H52.2298C54.2326 18.181 55.9092 17.8689 57.2596 17.2445C58.61 16.6202 59.6228 15.7288 60.298 14.5701C60.9732 13.4115 61.3108 12.0308 61.3108 10.428C61.3032 8.83713 60.9694 7.4684 60.3094 6.3218C59.657 5.1752 58.6859 4.29573 57.3962 3.68341C56.1141 3.07109 54.5285 2.76493 52.6395 2.76493H47.6551V18.181Z"/>
<path d="M69.3746 1.25213V19.6938H67.2466V1.25213H69.3746Z"/>
<path d="M82.2954 19.6938H74.7506V1.25213H82.5344C84.8179 1.25213 86.779 1.62133 88.4177 2.35972C90.0564 3.0921 91.3119 4.14566 92.1844 5.52038C93.0644 6.8891 93.5044 8.53096 93.5044 10.446C93.5044 12.367 93.0606 14.0179 92.173 15.3986C91.293 16.7793 90.0184 17.8419 88.3494 18.5863C86.6804 19.3246 84.6624 19.6938 82.2954 19.6938ZM78.267 17.2626H82.1019C83.8772 17.2626 85.3527 16.9984 86.5286 16.4701C87.7046 15.9359 88.5846 15.1645 89.1688 14.1559C89.7529 13.1414 90.045 11.9047 90.045 10.446C90.045 8.99921 89.7529 7.77156 89.1688 6.76303C88.5922 5.7545 87.7311 4.9891 86.5856 4.46682C85.44 3.94455 84.0175 3.68341 82.3181 3.68341H78.267V17.2626Z"/>
<path d="M96.5953 19.6938V1.25213H111.207V3.64739H100.112V9.26635H110.444V11.6526H100.112V17.2986H111.343V19.6938H96.5953Z"/>
<path d="M127.333 6.09668C127.212 5.24423 126.711 4.58389 125.831 4.11564C124.951 3.64139 123.843 3.40427 122.508 3.40427C121.552 3.40427 120.725 3.52433 120.027 3.76445C119.329 3.99858 118.787 4.32275 118.4 4.73697C118.021 5.14518 117.831 5.61043 117.831 6.1327C117.831 6.57093 117.96 6.94913 118.218 7.2673C118.484 7.58547 118.829 7.85261 119.254 8.06872C119.686 8.27883 120.149 8.45592 120.642 8.6C121.135 8.73807 121.609 8.85213 122.064 8.94218L124.34 9.41043C125.084 9.5545 125.846 9.74961 126.628 9.99573C127.409 10.2419 128.134 10.566 128.801 10.9682C129.469 11.3705 130.007 11.8687 130.417 12.463C130.834 13.0573 131.043 13.7687 131.043 14.5972C131.043 15.6417 130.702 16.5692 130.019 17.3796C129.344 18.19 128.361 18.8294 127.071 19.2976C125.789 19.7659 124.238 20 122.417 20C120.672 20 119.163 19.7809 117.888 19.3427C116.613 18.9044 115.616 18.2831 114.895 17.4787C114.174 16.6682 113.776 15.7077 113.7 14.5972H117.228C117.296 15.2635 117.569 15.8188 118.047 16.263C118.533 16.7013 119.151 17.0284 119.902 17.2445C120.661 17.4547 121.492 17.5597 122.394 17.5597C123.388 17.5597 124.272 17.4367 125.046 17.1905C125.827 16.9384 126.442 16.5902 126.889 16.146C127.337 15.6957 127.561 15.1705 127.561 14.5701C127.561 14.0239 127.364 13.5766 126.969 13.2284C126.582 12.8803 126.055 12.5921 125.387 12.364C124.727 12.1359 123.98 11.9348 123.145 11.7607L120.392 11.1664C118.525 10.7641 117.046 10.1728 115.953 9.39242C114.869 8.61201 114.326 7.57946 114.326 6.29479C114.326 5.23223 114.69 4.30474 115.419 3.51232C116.147 2.7199 117.133 2.10458 118.377 1.66635C119.622 1.22212 121.025 1 122.588 1C124.166 1 125.558 1.21912 126.764 1.65735C127.978 2.09558 128.934 2.69889 129.632 3.4673C130.33 4.2297 130.694 5.10616 130.724 6.09668H127.333Z"/>
<path d="M133.963 19.6938V1.25213H137.479V10.0588H137.764L147.539 1.25213H151.966L142.566 9.5545L152 19.6938H147.767L140.233 11.4545L137.479 13.9578V19.6938H133.963Z"/>
</mask>
<path d="M2 1.25213H4.45802L11.3655 10.0047H11.5704L18.4779 1.25213H20.9359L12.5263 11.7066V19.6938H10.4096V11.7066L2 1.25213Z" fill="black"/>
<path d="M41.6625 10.473C41.6625 12.394 41.23 14.0659 40.3652 15.4886C39.5003 16.9054 38.3092 18.0039 36.7919 18.7844C35.2822 19.5588 33.5449 19.946 31.58 19.946C29.6151 19.946 27.874 19.5588 26.3567 18.7844C24.847 18.0039 23.6597 16.9054 22.7949 15.4886C21.9376 14.0659 21.509 12.394 21.509 10.473C21.509 8.55197 21.9376 6.8831 22.7949 5.46635C23.6597 4.0436 24.8508 2.94502 26.3681 2.17062C27.8854 1.39021 29.6227 1 31.58 1C33.5449 1 35.2822 1.39021 36.7919 2.17062C38.3092 2.94502 39.5003 4.0436 40.3652 5.46635C41.23 6.8831 41.6625 8.55197 41.6625 10.473ZM39.5914 10.473C39.5914 8.82212 39.2424 7.40837 38.5444 6.23175C37.8465 5.04913 36.8944 4.14566 35.6881 3.52133C34.4819 2.897 33.1125 2.58483 31.58 2.58483C30.0551 2.58483 28.6896 2.897 27.4833 3.52133C26.2771 4.14566 25.3212 5.04613 24.6156 6.22275C23.9177 7.39937 23.5687 8.81611 23.5687 10.473C23.5687 12.1239 23.9177 13.5376 24.6156 14.7142C25.3136 15.8908 26.2657 16.7943 27.4719 17.4246C28.6782 18.049 30.0475 18.3611 31.58 18.3611C33.1125 18.3611 34.4819 18.049 35.6881 17.4246C36.9019 16.8003 37.8578 15.8998 38.5558 14.7232C39.2538 13.5406 39.5989 12.1239 39.5914 10.473Z" fill="black"/>
<path d="M52.355 19.6938H45.5271V1.25213H52.7646C54.9875 1.25213 56.8879 1.61833 58.4659 2.35071C60.0515 3.0831 61.2653 4.13365 62.1074 5.50237C62.9495 6.87109 63.3706 8.51295 63.3706 10.428C63.3706 12.361 62.9381 14.0209 62.0733 15.4076C61.216 16.7883 59.9642 17.8479 58.318 18.5863C56.6793 19.3246 54.6916 19.6938 52.355 19.6938ZM47.6551 18.181H52.2298C54.2326 18.181 55.9092 17.8689 57.2596 17.2445C58.61 16.6202 59.6228 15.7288 60.298 14.5701C60.9732 13.4115 61.3108 12.0308 61.3108 10.428C61.3032 8.83713 60.9694 7.4684 60.3094 6.3218C59.657 5.1752 58.6859 4.29573 57.3962 3.68341C56.1141 3.07109 54.5285 2.76493 52.6395 2.76493H47.6551V18.181Z" fill="black"/>
<path d="M69.3746 1.25213V19.6938H67.2466V1.25213H69.3746Z" fill="black"/>
<path d="M82.2954 19.6938H74.7506V1.25213H82.5344C84.8179 1.25213 86.779 1.62133 88.4177 2.35972C90.0564 3.0921 91.3119 4.14566 92.1844 5.52038C93.0644 6.8891 93.5044 8.53096 93.5044 10.446C93.5044 12.367 93.0606 14.0179 92.173 15.3986C91.293 16.7793 90.0184 17.8419 88.3494 18.5863C86.6804 19.3246 84.6624 19.6938 82.2954 19.6938ZM78.267 17.2626H82.1019C83.8772 17.2626 85.3527 16.9984 86.5286 16.4701C87.7046 15.9359 88.5846 15.1645 89.1688 14.1559C89.7529 13.1414 90.045 11.9047 90.045 10.446C90.045 8.99921 89.7529 7.77156 89.1688 6.76303C88.5922 5.7545 87.7311 4.9891 86.5856 4.46682C85.44 3.94455 84.0175 3.68341 82.3181 3.68341H78.267V17.2626Z" fill="white"/>
<path d="M96.5953 19.6938V1.25213H111.207V3.64739H100.112V9.26635H110.444V11.6526H100.112V17.2986H111.343V19.6938H96.5953Z" fill="white"/>
<path d="M127.333 6.09668C127.212 5.24423 126.711 4.58389 125.831 4.11564C124.951 3.64139 123.843 3.40427 122.508 3.40427C121.552 3.40427 120.725 3.52433 120.027 3.76445C119.329 3.99858 118.787 4.32275 118.4 4.73697C118.021 5.14518 117.831 5.61043 117.831 6.1327C117.831 6.57093 117.96 6.94913 118.218 7.2673C118.484 7.58547 118.829 7.85261 119.254 8.06872C119.686 8.27883 120.149 8.45592 120.642 8.6C121.135 8.73807 121.609 8.85213 122.064 8.94218L124.34 9.41043C125.084 9.5545 125.846 9.74961 126.628 9.99573C127.409 10.2419 128.134 10.566 128.801 10.9682C129.469 11.3705 130.007 11.8687 130.417 12.463C130.834 13.0573 131.043 13.7687 131.043 14.5972C131.043 15.6417 130.702 16.5692 130.019 17.3796C129.344 18.19 128.361 18.8294 127.071 19.2976C125.789 19.7659 124.238 20 122.417 20C120.672 20 119.163 19.7809 117.888 19.3427C116.613 18.9044 115.616 18.2831 114.895 17.4787C114.174 16.6682 113.776 15.7077 113.7 14.5972H117.228C117.296 15.2635 117.569 15.8188 118.047 16.263C118.533 16.7013 119.151 17.0284 119.902 17.2445C120.661 17.4547 121.492 17.5597 122.394 17.5597C123.388 17.5597 124.272 17.4367 125.046 17.1905C125.827 16.9384 126.442 16.5902 126.889 16.146C127.337 15.6957 127.561 15.1705 127.561 14.5701C127.561 14.0239 127.364 13.5766 126.969 13.2284C126.582 12.8803 126.055 12.5921 125.387 12.364C124.727 12.1359 123.98 11.9348 123.145 11.7607L120.392 11.1664C118.525 10.7641 117.046 10.1728 115.953 9.39242C114.869 8.61201 114.326 7.57946 114.326 6.29479C114.326 5.23223 114.69 4.30474 115.419 3.51232C116.147 2.7199 117.133 2.10458 118.377 1.66635C119.622 1.22212 121.025 1 122.588 1C124.166 1 125.558 1.21912 126.764 1.65735C127.978 2.09558 128.934 2.69889 129.632 3.4673C130.33 4.2297 130.694 5.10616 130.724 6.09668H127.333Z" fill="white"/>
<path d="M133.963 19.6938V1.25213H137.479V10.0588H137.764L147.539 1.25213H151.966L142.566 9.5545L152 19.6938H147.767L140.233 11.4545L137.479 13.9578V19.6938H133.963Z" fill="white"/>
<path d="M2 1.25213H4.45802L11.3655 10.0047H11.5704L18.4779 1.25213H20.9359L12.5263 11.7066V19.6938H10.4096V11.7066L2 1.25213Z" stroke="black" stroke-width="1.2" mask="url(#path-1-outside-1_202_42)"/>
<path d="M41.6625 10.473C41.6625 12.394 41.23 14.0659 40.3652 15.4886C39.5003 16.9054 38.3092 18.0039 36.7919 18.7844C35.2822 19.5588 33.5449 19.946 31.58 19.946C29.6151 19.946 27.874 19.5588 26.3567 18.7844C24.847 18.0039 23.6597 16.9054 22.7949 15.4886C21.9376 14.0659 21.509 12.394 21.509 10.473C21.509 8.55197 21.9376 6.8831 22.7949 5.46635C23.6597 4.0436 24.8508 2.94502 26.3681 2.17062C27.8854 1.39021 29.6227 1 31.58 1C33.5449 1 35.2822 1.39021 36.7919 2.17062C38.3092 2.94502 39.5003 4.0436 40.3652 5.46635C41.23 6.8831 41.6625 8.55197 41.6625 10.473ZM39.5914 10.473C39.5914 8.82212 39.2424 7.40837 38.5444 6.23175C37.8465 5.04913 36.8944 4.14566 35.6881 3.52133C34.4819 2.897 33.1125 2.58483 31.58 2.58483C30.0551 2.58483 28.6896 2.897 27.4833 3.52133C26.2771 4.14566 25.3212 5.04613 24.6156 6.22275C23.9177 7.39937 23.5687 8.81611 23.5687 10.473C23.5687 12.1239 23.9177 13.5376 24.6156 14.7142C25.3136 15.8908 26.2657 16.7943 27.4719 17.4246C28.6782 18.049 30.0475 18.3611 31.58 18.3611C33.1125 18.3611 34.4819 18.049 35.6881 17.4246C36.9019 16.8003 37.8578 15.8998 38.5558 14.7232C39.2538 13.5406 39.5989 12.1239 39.5914 10.473Z" stroke="black" stroke-width="1.2" mask="url(#path-1-outside-1_202_42)"/>
<path d="M52.355 19.6938H45.5271V1.25213H52.7646C54.9875 1.25213 56.8879 1.61833 58.4659 2.35071C60.0515 3.0831 61.2653 4.13365 62.1074 5.50237C62.9495 6.87109 63.3706 8.51295 63.3706 10.428C63.3706 12.361 62.9381 14.0209 62.0733 15.4076C61.216 16.7883 59.9642 17.8479 58.318 18.5863C56.6793 19.3246 54.6916 19.6938 52.355 19.6938ZM47.6551 18.181H52.2298C54.2326 18.181 55.9092 17.8689 57.2596 17.2445C58.61 16.6202 59.6228 15.7288 60.298 14.5701C60.9732 13.4115 61.3108 12.0308 61.3108 10.428C61.3032 8.83713 60.9694 7.4684 60.3094 6.3218C59.657 5.1752 58.6859 4.29573 57.3962 3.68341C56.1141 3.07109 54.5285 2.76493 52.6395 2.76493H47.6551V18.181Z" stroke="black" stroke-width="1.2" mask="url(#path-1-outside-1_202_42)"/>
<path d="M69.3746 1.25213V19.6938H67.2466V1.25213H69.3746Z" stroke="black" stroke-width="1.2" mask="url(#path-1-outside-1_202_42)"/>
<path d="M82.2954 19.6938H74.7506V1.25213H82.5344C84.8179 1.25213 86.779 1.62133 88.4177 2.35972C90.0564 3.0921 91.3119 4.14566 92.1844 5.52038C93.0644 6.8891 93.5044 8.53096 93.5044 10.446C93.5044 12.367 93.0606 14.0179 92.173 15.3986C91.293 16.7793 90.0184 17.8419 88.3494 18.5863C86.6804 19.3246 84.6624 19.6938 82.2954 19.6938ZM78.267 17.2626H82.1019C83.8772 17.2626 85.3527 16.9984 86.5286 16.4701C87.7046 15.9359 88.5846 15.1645 89.1688 14.1559C89.7529 13.1414 90.045 11.9047 90.045 10.446C90.045 8.99921 89.7529 7.77156 89.1688 6.76303C88.5922 5.7545 87.7311 4.9891 86.5856 4.46682C85.44 3.94455 84.0175 3.68341 82.3181 3.68341H78.267V17.2626Z" stroke="black" stroke-width="1.2" mask="url(#path-1-outside-1_202_42)"/>
<path d="M96.5953 19.6938V1.25213H111.207V3.64739H100.112V9.26635H110.444V11.6526H100.112V17.2986H111.343V19.6938H96.5953Z" stroke="black" stroke-width="1.2" mask="url(#path-1-outside-1_202_42)"/>
<path d="M127.333 6.09668C127.212 5.24423 126.711 4.58389 125.831 4.11564C124.951 3.64139 123.843 3.40427 122.508 3.40427C121.552 3.40427 120.725 3.52433 120.027 3.76445C119.329 3.99858 118.787 4.32275 118.4 4.73697C118.021 5.14518 117.831 5.61043 117.831 6.1327C117.831 6.57093 117.96 6.94913 118.218 7.2673C118.484 7.58547 118.829 7.85261 119.254 8.06872C119.686 8.27883 120.149 8.45592 120.642 8.6C121.135 8.73807 121.609 8.85213 122.064 8.94218L124.34 9.41043C125.084 9.5545 125.846 9.74961 126.628 9.99573C127.409 10.2419 128.134 10.566 128.801 10.9682C129.469 11.3705 130.007 11.8687 130.417 12.463C130.834 13.0573 131.043 13.7687 131.043 14.5972C131.043 15.6417 130.702 16.5692 130.019 17.3796C129.344 18.19 128.361 18.8294 127.071 19.2976C125.789 19.7659 124.238 20 122.417 20C120.672 20 119.163 19.7809 117.888 19.3427C116.613 18.9044 115.616 18.2831 114.895 17.4787C114.174 16.6682 113.776 15.7077 113.7 14.5972H117.228C117.296 15.2635 117.569 15.8188 118.047 16.263C118.533 16.7013 119.151 17.0284 119.902 17.2445C120.661 17.4547 121.492 17.5597 122.394 17.5597C123.388 17.5597 124.272 17.4367 125.046 17.1905C125.827 16.9384 126.442 16.5902 126.889 16.146C127.337 15.6957 127.561 15.1705 127.561 14.5701C127.561 14.0239 127.364 13.5766 126.969 13.2284C126.582 12.8803 126.055 12.5921 125.387 12.364C124.727 12.1359 123.98 11.9348 123.145 11.7607L120.392 11.1664C118.525 10.7641 117.046 10.1728 115.953 9.39242C114.869 8.61201 114.326 7.57946 114.326 6.29479C114.326 5.23223 114.69 4.30474 115.419 3.51232C116.147 2.7199 117.133 2.10458 118.377 1.66635C119.622 1.22212 121.025 1 122.588 1C124.166 1 125.558 1.21912 126.764 1.65735C127.978 2.09558 128.934 2.69889 129.632 3.4673C130.33 4.2297 130.694 5.10616 130.724 6.09668H127.333Z" stroke="black" stroke-width="1.2" mask="url(#path-1-outside-1_202_42)"/>
<path d="M133.963 19.6938V1.25213H137.479V10.0588H137.764L147.539 1.25213H151.966L142.566 9.5545L152 19.6938H147.767L140.233 11.4545L137.479 13.9578V19.6938H133.963Z" stroke="black" stroke-width="1.2" mask="url(#path-1-outside-1_202_42)"/>
</svg>
