<svg width="204" height="27" viewBox="0 0 204 27" fill="none" xmlns="http://www.w3.org/2000/svg">
<mask id="path-1-outside-1_204_3" maskUnits="userSpaceOnUse" x="0" y="0" width="204" height="27" fill="black">
<rect fill="white" width="204" height="27"/>
<path d="M2 1.33175H6.27797L14.8339 12.6588H15.1954L23.7514 1.33175H28.0293L16.8825 15.5972V25.5972H13.1468V15.5972L2 1.33175Z"/>
<path d="M55.7436 13.4645C55.7436 16.0237 55.1562 18.2354 53.9812 20.0995C52.8063 21.9637 51.1945 23.4013 49.1459 24.4123C47.0973 25.4234 44.7575 25.9289 42.1264 25.9289C39.4954 25.9289 37.1556 25.4234 35.107 24.4123C33.0584 23.4013 31.4466 21.9637 30.2716 20.0995C29.0967 18.2354 28.5092 16.0237 28.5092 13.4645C28.5092 10.9052 29.0967 8.69352 30.2716 6.82938C31.4466 4.96525 33.0584 3.52765 35.107 2.51659C37.1556 1.50553 39.4954 1 42.1264 1C44.7575 1 47.0973 1.50553 49.1459 2.51659C51.1945 3.52765 52.8063 4.96525 53.9812 6.82938C55.1562 8.69352 55.7436 10.9052 55.7436 13.4645ZM52.1285 13.4645C52.1285 11.3633 51.6816 9.59005 50.7878 8.14455C49.9041 6.69905 48.7041 5.60506 47.1877 4.86256C45.6814 4.12006 43.9943 3.74882 42.1264 3.74882C40.2586 3.74882 38.5665 4.12006 37.0501 4.86256C35.5438 5.60506 34.3438 6.69905 33.45 8.14455C32.5663 9.59005 32.1244 11.3633 32.1244 13.4645C32.1244 15.5656 32.5663 17.3389 33.45 18.7844C34.3438 20.2299 35.5438 21.3239 37.0501 22.0663C38.5665 22.8088 40.2586 23.1801 42.1264 23.1801C43.9943 23.1801 45.6814 22.8088 47.1877 22.0663C48.7041 21.3239 49.9041 20.2299 50.7878 18.7844C51.6816 17.3389 52.1285 15.5656 52.1285 13.4645Z"/>
<path d="M69.8483 25.5972H60.3283V1.33175H70.27C73.2626 1.33175 75.8234 1.81754 77.9523 2.7891C80.0813 3.75276 81.7131 5.13902 82.8479 6.94787C83.9826 8.74881 84.55 10.9052 84.55 13.4171C84.55 15.9447 83.9776 18.1209 82.8328 19.9455C81.688 21.7622 80.021 23.1603 77.8318 24.1398C75.6426 25.1114 72.9814 25.5972 69.8483 25.5972ZM64.064 22.9905H69.6073C72.158 22.9905 74.2719 22.6035 75.9489 21.8294C77.6259 21.0553 78.8762 19.9534 79.6997 18.5237C80.5231 17.094 80.9348 15.3918 80.9348 13.4171C80.9348 11.4581 80.5281 9.77172 79.7147 8.35782C78.9013 6.93602 77.6862 5.84597 76.0694 5.08768C74.4526 4.32148 72.4392 3.93839 70.029 3.93839H64.064V22.9905Z"/>
<path d="M92.8553 1.33175V25.5972H89.1196V1.33175H92.8553Z"/>
<path d="M109.733 25.5972H99.7456V1.33175H110.049C113.072 1.33175 115.667 1.81754 117.837 2.7891C120.006 3.75276 121.668 5.13902 122.822 6.94787C123.987 8.74881 124.57 10.9092 124.57 13.4289C124.57 15.9566 123.982 18.1288 122.807 19.9455C121.643 21.7622 119.955 23.1603 117.746 24.1398C115.537 25.1114 112.866 25.5972 109.733 25.5972ZM104.4 22.3981H109.476C111.826 22.3981 113.78 22.0506 115.336 21.3554C116.893 20.6524 118.057 19.6374 118.831 18.3104C119.604 16.9755 119.991 15.3483 119.991 13.4289C119.991 11.5253 119.604 9.90995 118.831 8.58294C118.068 7.25592 116.928 6.24881 115.411 5.56161C113.895 4.87441 112.012 4.53081 109.763 4.53081H104.4V22.3981ZM128.661 25.5972V1.33175H148.002V4.48341H133.316V11.8768H146.993V15.0166H133.316V22.4455H148.183V25.5972H128.661ZM169.349 7.70616C169.188 6.58452 168.525 5.71564 167.36 5.09953C166.195 4.47551 164.729 4.16351 162.962 4.16351C161.697 4.16351 160.602 4.32149 159.678 4.63744C158.754 4.9455 158.036 5.37204 157.524 5.91706C157.022 6.45419 156.771 7.06635 156.771 7.75356C156.771 8.33017 156.942 8.8278 157.283 9.24644C157.635 9.66509 158.091 10.0166 158.654 10.3009C159.226 10.5774 159.839 10.8104 160.492 11C161.144 11.1817 161.772 11.3318 162.374 11.4502L165.387 12.0664C166.371 12.2559 167.38 12.5126 168.415 12.8365C169.449 13.1603 170.408 13.5869 171.292 14.1161C172.176 14.6453 172.889 15.3009 173.431 16.0829C173.983 16.8649 174.259 17.8009 174.259 18.891C174.259 20.2654 173.807 21.4858 172.904 22.5521C172.01 23.6185 170.709 24.4597 169.002 25.0758C167.305 25.6919 165.251 26 162.841 26C160.532 26 158.533 25.7117 156.846 25.1351C155.159 24.5585 153.839 23.7409 152.885 22.6825C151.931 21.6161 151.403 20.3523 151.303 18.891H155.973C156.063 19.7678 156.424 20.4984 157.057 21.0829C157.7 21.6596 158.518 22.09 159.512 22.3744C160.517 22.6509 161.616 22.7891 162.811 22.7891C164.127 22.7891 165.297 22.6272 166.321 22.3033C167.355 21.9716 168.169 21.5134 168.761 20.9289C169.354 20.3365 169.65 19.6453 169.65 18.8554C169.65 18.1366 169.389 17.5482 168.867 17.09C168.355 16.6319 167.657 16.2528 166.773 15.9526C165.899 15.6524 164.91 15.3878 163.805 15.1588L160.16 14.3768C157.69 13.8476 155.732 13.0695 154.285 12.0427C152.849 11.0158 152.131 9.65719 152.131 7.96682C152.131 6.56872 152.613 5.34834 153.577 4.30569C154.542 3.26303 155.847 2.4534 157.494 1.87678C159.141 1.29226 160.999 1 163.067 1C165.156 1 166.999 1.28831 168.596 1.86493C170.202 2.44155 171.468 3.23539 172.391 4.24644C173.315 5.2496 173.797 6.40284 173.838 7.70616H169.349ZM178.125 25.5972V1.33175H182.779V12.9194H183.156L196.095 1.33175H201.955L189.513 12.2559L202 25.5972H196.396L186.425 14.7559L182.779 18.0498V25.5972H178.125Z"/>
</mask>
<path d="M2 1.33175H6.27797L14.8339 12.6588H15.1954L23.7514 1.33175H28.0293L16.8825 15.5972V25.5972H13.1468V15.5972L2 1.33175Z" fill="black"/>
<path d="M55.7436 13.4645C55.7436 16.0237 55.1562 18.2354 53.9812 20.0995C52.8063 21.9637 51.1945 23.4013 49.1459 24.4123C47.0973 25.4234 44.7575 25.9289 42.1264 25.9289C39.4954 25.9289 37.1556 25.4234 35.107 24.4123C33.0584 23.4013 31.4466 21.9637 30.2716 20.0995C29.0967 18.2354 28.5092 16.0237 28.5092 13.4645C28.5092 10.9052 29.0967 8.69352 30.2716 6.82938C31.4466 4.96525 33.0584 3.52765 35.107 2.51659C37.1556 1.50553 39.4954 1 42.1264 1C44.7575 1 47.0973 1.50553 49.1459 2.51659C51.1945 3.52765 52.8063 4.96525 53.9812 6.82938C55.1562 8.69352 55.7436 10.9052 55.7436 13.4645ZM52.1285 13.4645C52.1285 11.3633 51.6816 9.59005 50.7878 8.14455C49.9041 6.69905 48.7041 5.60506 47.1877 4.86256C45.6814 4.12006 43.9943 3.74882 42.1264 3.74882C40.2586 3.74882 38.5665 4.12006 37.0501 4.86256C35.5438 5.60506 34.3438 6.69905 33.45 8.14455C32.5663 9.59005 32.1244 11.3633 32.1244 13.4645C32.1244 15.5656 32.5663 17.3389 33.45 18.7844C34.3438 20.2299 35.5438 21.3239 37.0501 22.0663C38.5665 22.8088 40.2586 23.1801 42.1264 23.1801C43.9943 23.1801 45.6814 22.8088 47.1877 22.0663C48.7041 21.3239 49.9041 20.2299 50.7878 18.7844C51.6816 17.3389 52.1285 15.5656 52.1285 13.4645Z" fill="black"/>
<path d="M69.8483 25.5972H60.3283V1.33175H70.27C73.2626 1.33175 75.8234 1.81754 77.9523 2.7891C80.0813 3.75276 81.7131 5.13902 82.8479 6.94787C83.9826 8.74881 84.55 10.9052 84.55 13.4171C84.55 15.9447 83.9776 18.1209 82.8328 19.9455C81.688 21.7622 80.021 23.1603 77.8318 24.1398C75.6426 25.1114 72.9814 25.5972 69.8483 25.5972ZM64.064 22.9905H69.6073C72.158 22.9905 74.2719 22.6035 75.9489 21.8294C77.6259 21.0553 78.8762 19.9534 79.6997 18.5237C80.5231 17.094 80.9348 15.3918 80.9348 13.4171C80.9348 11.4581 80.5281 9.77172 79.7147 8.35782C78.9013 6.93602 77.6862 5.84597 76.0694 5.08768C74.4526 4.32148 72.4392 3.93839 70.029 3.93839H64.064V22.9905Z" fill="black"/>
<path d="M92.8553 1.33175V25.5972H89.1196V1.33175H92.8553Z" fill="black"/>
<path d="M2 1.33175H6.27797L14.8339 12.6588H15.1954L23.7514 1.33175H28.0293L16.8825 15.5972V25.5972H13.1468V15.5972L2 1.33175Z" stroke="black" stroke-width="1.2" mask="url(#path-1-outside-1_204_3)"/>
<path d="M55.7436 13.4645C55.7436 16.0237 55.1562 18.2354 53.9812 20.0995C52.8063 21.9637 51.1945 23.4013 49.1459 24.4123C47.0973 25.4234 44.7575 25.9289 42.1264 25.9289C39.4954 25.9289 37.1556 25.4234 35.107 24.4123C33.0584 23.4013 31.4466 21.9637 30.2716 20.0995C29.0967 18.2354 28.5092 16.0237 28.5092 13.4645C28.5092 10.9052 29.0967 8.69352 30.2716 6.82938C31.4466 4.96525 33.0584 3.52765 35.107 2.51659C37.1556 1.50553 39.4954 1 42.1264 1C44.7575 1 47.0973 1.50553 49.1459 2.51659C51.1945 3.52765 52.8063 4.96525 53.9812 6.82938C55.1562 8.69352 55.7436 10.9052 55.7436 13.4645ZM52.1285 13.4645C52.1285 11.3633 51.6816 9.59005 50.7878 8.14455C49.9041 6.69905 48.7041 5.60506 47.1877 4.86256C45.6814 4.12006 43.9943 3.74882 42.1264 3.74882C40.2586 3.74882 38.5665 4.12006 37.0501 4.86256C35.5438 5.60506 34.3438 6.69905 33.45 8.14455C32.5663 9.59005 32.1244 11.3633 32.1244 13.4645C32.1244 15.5656 32.5663 17.3389 33.45 18.7844C34.3438 20.2299 35.5438 21.3239 37.0501 22.0663C38.5665 22.8088 40.2586 23.1801 42.1264 23.1801C43.9943 23.1801 45.6814 22.8088 47.1877 22.0663C48.7041 21.3239 49.9041 20.2299 50.7878 18.7844C51.6816 17.3389 52.1285 15.5656 52.1285 13.4645Z" stroke="black" stroke-width="1.2" mask="url(#path-1-outside-1_204_3)"/>
<path d="M69.8483 25.5972H60.3283V1.33175H70.27C73.2626 1.33175 75.8234 1.81754 77.9523 2.7891C80.0813 3.75276 81.7131 5.13902 82.8479 6.94787C83.9826 8.74881 84.55 10.9052 84.55 13.4171C84.55 15.9447 83.9776 18.1209 82.8328 19.9455C81.688 21.7622 80.021 23.1603 77.8318 24.1398C75.6426 25.1114 72.9814 25.5972 69.8483 25.5972ZM64.064 22.9905H69.6073C72.158 22.9905 74.2719 22.6035 75.9489 21.8294C77.6259 21.0553 78.8762 19.9534 79.6997 18.5237C80.5231 17.094 80.9348 15.3918 80.9348 13.4171C80.9348 11.4581 80.5281 9.77172 79.7147 8.35782C78.9013 6.93602 77.6862 5.84597 76.0694 5.08768C74.4526 4.32148 72.4392 3.93839 70.029 3.93839H64.064V22.9905Z" stroke="black" stroke-width="1.2" mask="url(#path-1-outside-1_204_3)"/>
<path d="M92.8553 1.33175V25.5972H89.1196V1.33175H92.8553Z" stroke="black" stroke-width="1.2" mask="url(#path-1-outside-1_204_3)"/>
<path d="M109.733 25.5972H99.7456V1.33175H110.049C113.072 1.33175 115.667 1.81754 117.837 2.7891C120.006 3.75276 121.668 5.13902 122.822 6.94787C123.987 8.74881 124.57 10.9092 124.57 13.4289C124.57 15.9566 123.982 18.1288 122.807 19.9455C121.643 21.7622 119.955 23.1603 117.746 24.1398C115.537 25.1114 112.866 25.5972 109.733 25.5972ZM104.4 22.3981H109.476C111.826 22.3981 113.78 22.0506 115.336 21.3554C116.893 20.6524 118.057 19.6374 118.831 18.3104C119.604 16.9755 119.991 15.3483 119.991 13.4289C119.991 11.5253 119.604 9.90995 118.831 8.58294C118.068 7.25592 116.928 6.24881 115.411 5.56161C113.895 4.87441 112.012 4.53081 109.763 4.53081H104.4V22.3981ZM128.661 25.5972V1.33175H148.002V4.48341H133.316V11.8768H146.993V15.0166H133.316V22.4455H148.183V25.5972H128.661ZM169.349 7.70616C169.188 6.58452 168.525 5.71564 167.36 5.09953C166.195 4.47551 164.729 4.16351 162.962 4.16351C161.697 4.16351 160.602 4.32149 159.678 4.63744C158.754 4.9455 158.036 5.37204 157.524 5.91706C157.022 6.45419 156.771 7.06635 156.771 7.75356C156.771 8.33017 156.942 8.8278 157.283 9.24644C157.635 9.66509 158.091 10.0166 158.654 10.3009C159.226 10.5774 159.839 10.8104 160.492 11C161.144 11.1817 161.772 11.3318 162.374 11.4502L165.387 12.0664C166.371 12.2559 167.38 12.5126 168.415 12.8365C169.449 13.1603 170.408 13.5869 171.292 14.1161C172.176 14.6453 172.889 15.3009 173.431 16.0829C173.983 16.8649 174.259 17.8009 174.259 18.891C174.259 20.2654 173.807 21.4858 172.904 22.5521C172.01 23.6185 170.709 24.4597 169.002 25.0758C167.305 25.6919 165.251 26 162.841 26C160.532 26 158.533 25.7117 156.846 25.1351C155.159 24.5585 153.839 23.7409 152.885 22.6825C151.931 21.6161 151.403 20.3523 151.303 18.891H155.973C156.063 19.7678 156.424 20.4984 157.057 21.0829C157.7 21.6596 158.518 22.09 159.512 22.3744C160.517 22.6509 161.616 22.7891 162.811 22.7891C164.127 22.7891 165.297 22.6272 166.321 22.3033C167.355 21.9716 168.169 21.5134 168.761 20.9289C169.354 20.3365 169.65 19.6453 169.65 18.8554C169.65 18.1366 169.389 17.5482 168.867 17.09C168.355 16.6319 167.657 16.2528 166.773 15.9526C165.899 15.6524 164.91 15.3878 163.805 15.1588L160.16 14.3768C157.69 13.8476 155.732 13.0695 154.285 12.0427C152.849 11.0158 152.131 9.65719 152.131 7.96682C152.131 6.56872 152.613 5.34834 153.577 4.30569C154.542 3.26303 155.847 2.4534 157.494 1.87678C159.141 1.29226 160.999 1 163.067 1C165.156 1 166.999 1.28831 168.596 1.86493C170.202 2.44155 171.468 3.23539 172.391 4.24644C173.315 5.2496 173.797 6.40284 173.838 7.70616H169.349ZM178.125 25.5972V1.33175H182.779V12.9194H183.156L196.095 1.33175H201.955L189.513 12.2559L202 25.5972H196.396L186.425 14.7559L182.779 18.0498V25.5972H178.125Z" stroke="black" stroke-width="1.2" mask="url(#path-1-outside-1_204_3)"/>
</svg>
