<?xml version="1.0" encoding="utf-8"?>
<!-- Generator: Adobe Illustrator 24.3.2, SVG Export Plug-In . SVG Version: 6.00 Build 0)  -->
<svg version="1.1" id="Layer_1" xmlns="http://www.w3.org/2000/svg" xmlns:xlink="http://www.w3.org/1999/xlink" x="0px" y="0px"
	 viewBox="0 0 216 29" style="enable-background:new 0 0 216 29;" xml:space="preserve">
<g>
	<polygon class="st0" points="26.96,0.43 16.96,11.95 6.96,0.43 0,0.43 14.05,16.62 14.05,28.57 19.77,28.57 19.77,16.62 
		33.77,0.43 	"/>
	<path class="st0" d="M47.98,0c-9.57,0-16.5,6.15-16.5,14.5c0,8.35,6.93,14.5,16.5,14.5c9.53,0,16.5-6.15,16.5-14.5
		C64.48,6.15,57.51,0,47.98,0z M47.98,23.94c-6.26,0-10.62-3.76-10.62-9.44c0-5.68,4.35-9.44,10.62-9.44S58.6,8.81,58.6,14.5
		S54.24,23.94,47.98,23.94z"/>
	<path class="st0" d="M82.63,0.43H68.35v28.14h14.28c9.81,0,15.99-5.49,15.99-14.07S92.43,0.43,82.63,0.43z M82.63,23.63h-8.68V5.37
		h8.68c6.38,0,10.16,3.57,10.16,9.13C92.79,20.03,89.01,23.63,82.63,23.63z"/>
	<rect x="103" y="0.43" class="st0" width="5.72" height="28.14"/>
	<path class="st0" d="M114.37,28.9h7.02V18.25h18.17v-6.14h-18.17V6.37h20.39V0.11h-27.41V28.9z M115.01,0.75h26.12v4.96h-20.39
		v7.04h18.17v4.83h-18.17v10.66h-5.73V0.75z"/>
	<path class="st0" d="M146.15,28.9h27.73v-6.26h-20.7V17.3h18.48v-6.18h-18.48V6.37h20.7V0.11h-27.73V28.9z M146.8,0.75h26.43v4.96
		h-20.7v6.06h18.48v4.88h-18.48v6.65h20.7v4.95H146.8V0.75z"/>
	<path class="st0" d="M205.81,0.11l-8.46,19.66l-8.51-19.66h-10.34V28.9h6.99V8.45l8.92,20.45h5.68l8.96-20.45V28.9H216V0.11H205.81
		z M215.36,28.25h-5.65V5.35l-10.03,22.9h-4.83l-9.99-22.91v22.91h-5.69V0.75h9.26l8.93,20.64l8.88-20.64h9.11V28.25z"/>
</g>
</svg>
